M48
; DRILL file {KiCad 5.1.10-1.fc34} date Tue Aug  3 16:02:28 2021
; FORMAT={-:-/ absolute / metric / decimal}
; #@! TF.CreationDate,2021-08-03T16:02:28+03:00
; #@! TF.GenerationSoftware,Kicad,Pcbnew,5.1.10-1.fc34
; #@! TF.FileFunction,Plated,1,2,PTH
FMAT,2
METRIC
T1C0.400
T2C0.500
T3C1.000
T4C1.500
%
G90
G05
T1
X31.204Y-15.38
X31.204Y-16.18
X31.204Y-16.98
X31.204Y-18.58
X31.204Y-19.38
X31.204Y-20.18
X31.904Y-14.98
X31.904Y-16.58
X31.904Y-17.38
X31.904Y-18.18
X31.904Y-18.98
X31.904Y-20.58
X38.862Y-11.938
X38.862Y-17.272
X39.587Y-13.407
X39.624Y-16.256
X49.022Y-12.446
X49.022Y-16.256
X50.292Y-22.86
X52.832Y-26.487
X54.102Y-25.4
X54.864Y-26.487
X56.134Y-25.4
X57.404Y-26.487
X58.674Y-25.4
X59.944Y-25.146
X63.246Y-12.446
X63.246Y-25.4
X64.441Y-18.882
X64.454Y-21.59
X73.66Y-16.51
X73.66Y-18.034
X139.446Y-22.86
X148.436Y-14.98
X148.436Y-16.58
X148.436Y-17.38
X148.436Y-18.18
X148.436Y-18.98
X148.436Y-20.58
X149.136Y-15.38
X149.136Y-16.18
X149.136Y-16.98
X149.136Y-18.58
X149.136Y-19.38
X149.136Y-20.18
X225.768Y-15.38
X225.768Y-16.18
X225.768Y-16.98
X225.768Y-18.58
X225.768Y-19.38
X225.768Y-20.18
X226.468Y-14.98
X226.468Y-16.58
X226.468Y-17.38
X226.468Y-18.18
X226.468Y-18.98
X226.468Y-20.58
X288.29Y-17.113
X289.306Y-22.352
X289.555Y-17.563
X290.83Y-21.082
X294.132Y-17.526
X296.672Y-21.082
X297.18Y-14.478
X300.575Y-26.255
X301.85Y-26.006
X303.203Y-14.267
X303.878Y-25.004
X304.546Y-13.716
X304.625Y-26.416
X306.07Y-26.67
X307.594Y-25.908
X308.864Y-16.256
X308.864Y-24.892
X309.372Y-13.97
X312.928Y-22.352
X313.944Y-15.494
X313.944Y-21.336
X314.706Y-22.352
X314.96Y-13.208
X315.722Y-16.255
X318.516Y-17.526
X321.056Y-22.352
X321.564Y-16.256
X322.326Y-22.098
X330.454Y-21.844
X343.0Y-14.98
X343.0Y-16.58
X343.0Y-17.38
X343.0Y-18.18
X343.0Y-18.98
X343.0Y-20.58
X343.7Y-15.38
X343.7Y-16.18
X343.7Y-16.98
X343.7Y-18.58
X343.7Y-19.38
X343.7Y-20.18
T3
X74.168Y-20.32
X74.168Y-22.86
X325.12Y-20.32
X325.12Y-22.86
T4
X29.65Y-31.54
X29.65Y-50.54
X29.65Y-69.54
X29.65Y-88.54
X29.65Y-107.54
X29.65Y-126.54
X36.0Y-29.0
X36.0Y-48.0
X36.0Y-67.0
X36.0Y-86.0
X36.0Y-105.0
X36.0Y-124.0
X48.65Y-31.54
X48.65Y-50.54
X48.65Y-69.54
X48.65Y-88.54
X48.65Y-107.54
X48.65Y-126.54
X55.0Y-29.0
X55.0Y-48.0
X55.0Y-67.0
X55.0Y-86.0
X55.0Y-105.0
X55.0Y-124.0
X67.65Y-31.54
X67.65Y-50.54
X67.65Y-69.54
X67.65Y-88.54
X67.65Y-107.54
X67.65Y-126.54
X74.0Y-29.0
X74.0Y-48.0
X74.0Y-67.0
X74.0Y-86.0
X74.0Y-105.0
X74.0Y-124.0
X86.65Y-31.54
X86.65Y-50.54
X86.65Y-69.54
X86.65Y-88.54
X86.65Y-107.54
X86.65Y-126.54
X93.0Y-29.0
X93.0Y-48.0
X93.0Y-67.0
X93.0Y-86.0
X93.0Y-105.0
X93.0Y-124.0
X105.65Y-31.54
X105.65Y-50.54
X105.65Y-69.54
X105.65Y-88.54
X105.65Y-107.54
X112.0Y-29.0
X112.0Y-48.0
X112.0Y-67.0
X112.0Y-86.0
X112.0Y-105.0
X115.15Y-126.54
X121.5Y-124.0
X124.65Y-31.54
X124.65Y-50.54
X124.65Y-69.54
X124.65Y-88.54
X124.65Y-107.54
X131.0Y-29.0
X131.0Y-48.0
X131.0Y-67.0
X131.0Y-86.0
X131.0Y-105.0
X143.65Y-31.54
X143.65Y-50.54
X143.65Y-69.54
X143.65Y-88.54
X143.65Y-107.54
X150.0Y-29.0
X150.0Y-48.0
X150.0Y-67.0
X150.0Y-86.0
X150.0Y-105.0
X223.65Y-31.54
X223.65Y-50.54
X223.65Y-69.54
X223.65Y-88.54
X223.65Y-107.54
X230.0Y-29.0
X230.0Y-48.0
X230.0Y-67.0
X230.0Y-86.0
X230.0Y-105.0
X242.65Y-31.54
X242.65Y-50.54
X242.65Y-69.54
X242.65Y-88.54
X242.65Y-107.54
X242.65Y-126.54
X249.0Y-29.0
X249.0Y-48.0
X249.0Y-67.0
X249.0Y-86.0
X249.0Y-105.0
X249.0Y-124.0
X261.65Y-31.54
X261.65Y-50.54
X261.65Y-69.54
X261.65Y-88.54
X261.65Y-107.54
X261.65Y-126.54
X268.0Y-29.0
X268.0Y-48.0
X268.0Y-67.0
X268.0Y-86.0
X268.0Y-105.0
X268.0Y-124.0
X280.65Y-31.54
X280.65Y-50.54
X280.65Y-69.54
X280.65Y-88.54
X280.65Y-107.54
X280.65Y-126.54
X287.0Y-29.0
X287.0Y-48.0
X287.0Y-67.0
X287.0Y-86.0
X287.0Y-105.0
X287.0Y-124.0
X299.65Y-31.54
X299.65Y-50.54
X299.65Y-69.54
X299.65Y-88.54
X299.65Y-107.54
X299.65Y-126.54
X306.0Y-29.0
X306.0Y-48.0
X306.0Y-67.0
X306.0Y-86.0
X306.0Y-105.0
X306.0Y-124.0
X318.65Y-31.54
X318.65Y-50.54
X318.65Y-69.54
X318.65Y-107.54
X318.65Y-126.54
X325.0Y-29.0
X325.0Y-48.0
X325.0Y-67.0
X325.0Y-105.0
X325.0Y-124.0
X328.15Y-88.54
X334.5Y-86.0
X337.65Y-31.54
X337.65Y-50.54
X337.65Y-69.54
X337.65Y-107.54
X337.65Y-126.54
X344.0Y-29.0
X344.0Y-48.0
X344.0Y-67.0
X344.0Y-105.0
X344.0Y-124.0
T2
G00X25.054Y-13.29
M15
G01X25.654Y-13.29
M16
G05
G00X25.054Y-22.27
M15
G01X25.654Y-22.27
M16
G05
G00X31.004Y-13.65
M15
G01X31.604Y-13.65
M16
G05
G00X31.004Y-21.91
M15
G01X31.604Y-21.91
M16
G05
G00X149.336Y-13.65
M15
G01X148.736Y-13.65
M16
G05
G00X149.336Y-21.91
M15
G01X148.736Y-21.91
M16
G05
G00X155.286Y-13.29
M15
G01X154.686Y-13.29
M16
G05
G00X155.286Y-22.27
M15
G01X154.686Y-22.27
M16
G05
G00X219.618Y-13.29
M15
G01X220.218Y-13.29
M16
G05
G00X219.618Y-22.27
M15
G01X220.218Y-22.27
M16
G05
G00X225.568Y-13.65
M15
G01X226.168Y-13.65
M16
G05
G00X225.568Y-21.91
M15
G01X226.168Y-21.91
M16
G05
G00X343.9Y-13.65
M15
G01X343.3Y-13.65
M16
G05
G00X343.9Y-21.91
M15
G01X343.3Y-21.91
M16
G05
G00X349.85Y-13.29
M15
G01X349.25Y-13.29
M16
G05
G00X349.85Y-22.27
M15
G01X349.25Y-22.27
M16
G05
T0
M30
