%TF.GenerationSoftware,KiCad,Pcbnew,5.1.10-1.fc34*%
%TF.CreationDate,2021-08-03T16:02:25+03:00*%
%TF.ProjectId,keyboard,6b657962-6f61-4726-942e-6b696361645f,rev?*%
%TF.SameCoordinates,Original*%
%TF.FileFunction,Soldermask,Top*%
%TF.FilePolarity,Negative*%
%FSLAX46Y46*%
G04 Gerber Fmt 4.6, Leading zero omitted, Abs format (unit mm)*
G04 Created by KiCad (PCBNEW 5.1.10-1.fc34) date 2021-08-03 16:02:25*
%MOMM*%
%LPD*%
G01*
G04 APERTURE LIST*
%ADD10C,0.650000*%
%ADD11O,0.650000X0.950000*%
%ADD12O,1.400000X0.800000*%
%ADD13O,1.700000X1.700000*%
%ADD14R,1.700000X1.700000*%
%ADD15C,1.700000*%
%ADD16C,4.000000*%
%ADD17C,2.200000*%
%ADD18C,3.050000*%
G04 APERTURE END LIST*
D10*
%TO.C,J6*%
X225768000Y-20180000D03*
X225768000Y-19380000D03*
X225768000Y-18580000D03*
X225768000Y-16980000D03*
X225768000Y-16180000D03*
X225768000Y-15380000D03*
X226468000Y-20580000D03*
X226468000Y-18980000D03*
X226468000Y-18180000D03*
X226468000Y-17380000D03*
X226468000Y-16580000D03*
X226468000Y-14980000D03*
X227118000Y-21380000D03*
D11*
X227118000Y-14180000D03*
D12*
X219918000Y-22270000D03*
X219918000Y-13290000D03*
X225868000Y-13650000D03*
X225868000Y-21910000D03*
%TD*%
D10*
%TO.C,J5*%
X149136000Y-15380000D03*
X149136000Y-16180000D03*
X149136000Y-16980000D03*
X149136000Y-18580000D03*
X149136000Y-19380000D03*
X149136000Y-20180000D03*
X148436000Y-14980000D03*
X148436000Y-16580000D03*
X148436000Y-17380000D03*
X148436000Y-18180000D03*
X148436000Y-18980000D03*
X148436000Y-20580000D03*
X147786000Y-14180000D03*
D11*
X147786000Y-21380000D03*
D12*
X154986000Y-13290000D03*
X154986000Y-22270000D03*
X149036000Y-21910000D03*
X149036000Y-13650000D03*
%TD*%
D13*
%TO.C,J4*%
X325120000Y-22860000D03*
D14*
X325120000Y-20320000D03*
%TD*%
D13*
%TO.C,J3*%
X74168000Y-22860000D03*
D14*
X74168000Y-20320000D03*
%TD*%
D10*
%TO.C,J2*%
X343700000Y-15380000D03*
X343700000Y-16180000D03*
X343700000Y-16980000D03*
X343700000Y-18580000D03*
X343700000Y-19380000D03*
X343700000Y-20180000D03*
X343000000Y-14980000D03*
X343000000Y-16580000D03*
X343000000Y-17380000D03*
X343000000Y-18180000D03*
X343000000Y-18980000D03*
X343000000Y-20580000D03*
X342350000Y-14180000D03*
D11*
X342350000Y-21380000D03*
D12*
X349550000Y-13290000D03*
X349550000Y-22270000D03*
X343600000Y-21910000D03*
X343600000Y-13650000D03*
%TD*%
D10*
%TO.C,J1*%
X31204000Y-20180000D03*
X31204000Y-19380000D03*
X31204000Y-18580000D03*
X31204000Y-16980000D03*
X31204000Y-16180000D03*
X31204000Y-15380000D03*
X31904000Y-20580000D03*
X31904000Y-18980000D03*
X31904000Y-18180000D03*
X31904000Y-17380000D03*
X31904000Y-16580000D03*
X31904000Y-14980000D03*
X32554000Y-21380000D03*
D11*
X32554000Y-14180000D03*
D12*
X25354000Y-22270000D03*
X25354000Y-13290000D03*
X31304000Y-13650000D03*
X31304000Y-21910000D03*
%TD*%
D15*
%TO.C,SW1*%
X38540000Y-34080000D03*
X28380000Y-34080000D03*
D16*
X33460000Y-34080000D03*
D17*
X29650000Y-31540000D03*
X36000000Y-29000000D03*
%TD*%
D15*
%TO.C,SW2*%
X57540000Y-34080000D03*
X47380000Y-34080000D03*
D16*
X52460000Y-34080000D03*
D17*
X48650000Y-31540000D03*
X55000000Y-29000000D03*
%TD*%
%TO.C,SW3*%
X74000000Y-29000000D03*
X67650000Y-31540000D03*
D16*
X71460000Y-34080000D03*
D15*
X66380000Y-34080000D03*
X76540000Y-34080000D03*
%TD*%
%TO.C,SW4*%
X95540000Y-34080000D03*
X85380000Y-34080000D03*
D16*
X90460000Y-34080000D03*
D17*
X86650000Y-31540000D03*
X93000000Y-29000000D03*
%TD*%
%TO.C,SW5*%
X112000000Y-29000000D03*
X105650000Y-31540000D03*
D16*
X109460000Y-34080000D03*
D15*
X104380000Y-34080000D03*
X114540000Y-34080000D03*
%TD*%
D17*
%TO.C,SW6*%
X131000000Y-29000000D03*
X124650000Y-31540000D03*
D16*
X128460000Y-34080000D03*
D15*
X123380000Y-34080000D03*
X133540000Y-34080000D03*
%TD*%
D17*
%TO.C,SW7*%
X150000000Y-29000000D03*
X143650000Y-31540000D03*
D16*
X147460000Y-34080000D03*
D15*
X142380000Y-34080000D03*
X152540000Y-34080000D03*
%TD*%
D17*
%TO.C,SW8*%
X230000000Y-29000000D03*
X223650000Y-31540000D03*
D16*
X227460000Y-34080000D03*
D15*
X222380000Y-34080000D03*
X232540000Y-34080000D03*
%TD*%
%TO.C,SW9*%
X251540000Y-34080000D03*
X241380000Y-34080000D03*
D16*
X246460000Y-34080000D03*
D17*
X242650000Y-31540000D03*
X249000000Y-29000000D03*
%TD*%
D15*
%TO.C,SW10*%
X270540000Y-34080000D03*
X260380000Y-34080000D03*
D16*
X265460000Y-34080000D03*
D17*
X261650000Y-31540000D03*
X268000000Y-29000000D03*
%TD*%
D15*
%TO.C,SW11*%
X289540000Y-34080000D03*
X279380000Y-34080000D03*
D16*
X284460000Y-34080000D03*
D17*
X280650000Y-31540000D03*
X287000000Y-29000000D03*
%TD*%
%TO.C,SW12*%
X306000000Y-29000000D03*
X299650000Y-31540000D03*
D16*
X303460000Y-34080000D03*
D15*
X298380000Y-34080000D03*
X308540000Y-34080000D03*
%TD*%
D17*
%TO.C,SW13*%
X325000000Y-29000000D03*
X318650000Y-31540000D03*
D16*
X322460000Y-34080000D03*
D15*
X317380000Y-34080000D03*
X327540000Y-34080000D03*
%TD*%
D17*
%TO.C,SW14*%
X344000000Y-29000000D03*
X337650000Y-31540000D03*
D16*
X341460000Y-34080000D03*
D15*
X336380000Y-34080000D03*
X346540000Y-34080000D03*
%TD*%
%TO.C,SW15*%
X38540000Y-53080000D03*
X28380000Y-53080000D03*
D16*
X33460000Y-53080000D03*
D17*
X29650000Y-50540000D03*
X36000000Y-48000000D03*
%TD*%
%TO.C,SW16*%
X55000000Y-48000000D03*
X48650000Y-50540000D03*
D16*
X52460000Y-53080000D03*
D15*
X47380000Y-53080000D03*
X57540000Y-53080000D03*
%TD*%
%TO.C,SW17*%
X76540000Y-53080000D03*
X66380000Y-53080000D03*
D16*
X71460000Y-53080000D03*
D17*
X67650000Y-50540000D03*
X74000000Y-48000000D03*
%TD*%
D15*
%TO.C,SW18*%
X95540000Y-53080000D03*
X85380000Y-53080000D03*
D16*
X90460000Y-53080000D03*
D17*
X86650000Y-50540000D03*
X93000000Y-48000000D03*
%TD*%
%TO.C,SW19*%
X112000000Y-48000000D03*
X105650000Y-50540000D03*
D16*
X109460000Y-53080000D03*
D15*
X104380000Y-53080000D03*
X114540000Y-53080000D03*
%TD*%
D17*
%TO.C,SW20*%
X131000000Y-48000000D03*
X124650000Y-50540000D03*
D16*
X128460000Y-53080000D03*
D15*
X123380000Y-53080000D03*
X133540000Y-53080000D03*
%TD*%
%TO.C,SW21*%
X152540000Y-53080000D03*
X142380000Y-53080000D03*
D16*
X147460000Y-53080000D03*
D17*
X143650000Y-50540000D03*
X150000000Y-48000000D03*
%TD*%
%TO.C,SW22*%
X230000000Y-48000000D03*
X223650000Y-50540000D03*
D16*
X227460000Y-53080000D03*
D15*
X222380000Y-53080000D03*
X232540000Y-53080000D03*
%TD*%
%TO.C,SW23*%
X251540000Y-53080000D03*
X241380000Y-53080000D03*
D16*
X246460000Y-53080000D03*
D17*
X242650000Y-50540000D03*
X249000000Y-48000000D03*
%TD*%
%TO.C,SW24*%
X268000000Y-48000000D03*
X261650000Y-50540000D03*
D16*
X265460000Y-53080000D03*
D15*
X260380000Y-53080000D03*
X270540000Y-53080000D03*
%TD*%
%TO.C,SW25*%
X289540000Y-53080000D03*
X279380000Y-53080000D03*
D16*
X284460000Y-53080000D03*
D17*
X280650000Y-50540000D03*
X287000000Y-48000000D03*
%TD*%
%TO.C,SW26*%
X306000000Y-48000000D03*
X299650000Y-50540000D03*
D16*
X303460000Y-53080000D03*
D15*
X298380000Y-53080000D03*
X308540000Y-53080000D03*
%TD*%
%TO.C,SW27*%
X327540000Y-53080000D03*
X317380000Y-53080000D03*
D16*
X322460000Y-53080000D03*
D17*
X318650000Y-50540000D03*
X325000000Y-48000000D03*
%TD*%
%TO.C,SW28*%
X344000000Y-48000000D03*
X337650000Y-50540000D03*
D16*
X341460000Y-53080000D03*
D15*
X336380000Y-53080000D03*
X346540000Y-53080000D03*
%TD*%
D17*
%TO.C,SW29*%
X36000000Y-67000000D03*
X29650000Y-69540000D03*
D16*
X33460000Y-72080000D03*
D15*
X28380000Y-72080000D03*
X38540000Y-72080000D03*
%TD*%
%TO.C,SW30*%
X57540000Y-72080000D03*
X47380000Y-72080000D03*
D16*
X52460000Y-72080000D03*
D17*
X48650000Y-69540000D03*
X55000000Y-67000000D03*
%TD*%
%TO.C,SW31*%
X74000000Y-67000000D03*
X67650000Y-69540000D03*
D16*
X71460000Y-72080000D03*
D15*
X66380000Y-72080000D03*
X76540000Y-72080000D03*
%TD*%
D17*
%TO.C,SW32*%
X93000000Y-67000000D03*
X86650000Y-69540000D03*
D16*
X90460000Y-72080000D03*
D15*
X85380000Y-72080000D03*
X95540000Y-72080000D03*
%TD*%
%TO.C,SW33*%
X114540000Y-72080000D03*
X104380000Y-72080000D03*
D16*
X109460000Y-72080000D03*
D17*
X105650000Y-69540000D03*
X112000000Y-67000000D03*
%TD*%
D15*
%TO.C,SW34*%
X133540000Y-72080000D03*
X123380000Y-72080000D03*
D16*
X128460000Y-72080000D03*
D17*
X124650000Y-69540000D03*
X131000000Y-67000000D03*
%TD*%
%TO.C,SW35*%
X150000000Y-67000000D03*
X143650000Y-69540000D03*
D16*
X147460000Y-72080000D03*
D15*
X142380000Y-72080000D03*
X152540000Y-72080000D03*
%TD*%
%TO.C,SW36*%
X232540000Y-72080000D03*
X222380000Y-72080000D03*
D16*
X227460000Y-72080000D03*
D17*
X223650000Y-69540000D03*
X230000000Y-67000000D03*
%TD*%
%TO.C,SW37*%
X249000000Y-67000000D03*
X242650000Y-69540000D03*
D16*
X246460000Y-72080000D03*
D15*
X241380000Y-72080000D03*
X251540000Y-72080000D03*
%TD*%
%TO.C,SW38*%
X270540000Y-72080000D03*
X260380000Y-72080000D03*
D16*
X265460000Y-72080000D03*
D17*
X261650000Y-69540000D03*
X268000000Y-67000000D03*
%TD*%
%TO.C,SW39*%
X287000000Y-67000000D03*
X280650000Y-69540000D03*
D16*
X284460000Y-72080000D03*
D15*
X279380000Y-72080000D03*
X289540000Y-72080000D03*
%TD*%
D17*
%TO.C,SW40*%
X306000000Y-67000000D03*
X299650000Y-69540000D03*
D16*
X303460000Y-72080000D03*
D15*
X298380000Y-72080000D03*
X308540000Y-72080000D03*
%TD*%
%TO.C,SW41*%
X327540000Y-72080000D03*
X317380000Y-72080000D03*
D16*
X322460000Y-72080000D03*
D17*
X318650000Y-69540000D03*
X325000000Y-67000000D03*
%TD*%
D15*
%TO.C,SW42*%
X346540000Y-72080000D03*
X336380000Y-72080000D03*
D16*
X341460000Y-72080000D03*
D17*
X337650000Y-69540000D03*
X344000000Y-67000000D03*
%TD*%
%TO.C,SW43*%
X36000000Y-86000000D03*
X29650000Y-88540000D03*
D16*
X33460000Y-91080000D03*
D15*
X28380000Y-91080000D03*
X38540000Y-91080000D03*
%TD*%
D17*
%TO.C,SW44*%
X55000000Y-86000000D03*
X48650000Y-88540000D03*
D16*
X52460000Y-91080000D03*
D15*
X47380000Y-91080000D03*
X57540000Y-91080000D03*
%TD*%
%TO.C,SW45*%
X76540000Y-91080000D03*
X66380000Y-91080000D03*
D16*
X71460000Y-91080000D03*
D17*
X67650000Y-88540000D03*
X74000000Y-86000000D03*
%TD*%
D15*
%TO.C,SW46*%
X95540000Y-91080000D03*
X85380000Y-91080000D03*
D16*
X90460000Y-91080000D03*
D17*
X86650000Y-88540000D03*
X93000000Y-86000000D03*
%TD*%
D15*
%TO.C,SW47*%
X114540000Y-91080000D03*
X104380000Y-91080000D03*
D16*
X109460000Y-91080000D03*
D17*
X105650000Y-88540000D03*
X112000000Y-86000000D03*
%TD*%
%TO.C,SW48*%
X131000000Y-86000000D03*
X124650000Y-88540000D03*
D16*
X128460000Y-91080000D03*
D15*
X123380000Y-91080000D03*
X133540000Y-91080000D03*
%TD*%
D17*
%TO.C,SW49*%
X150000000Y-86000000D03*
X143650000Y-88540000D03*
D16*
X147460000Y-91080000D03*
D15*
X142380000Y-91080000D03*
X152540000Y-91080000D03*
%TD*%
%TO.C,SW50*%
X232540000Y-91080000D03*
X222380000Y-91080000D03*
D16*
X227460000Y-91080000D03*
D17*
X223650000Y-88540000D03*
X230000000Y-86000000D03*
%TD*%
%TO.C,SW51*%
X249000000Y-86000000D03*
X242650000Y-88540000D03*
D16*
X246460000Y-91080000D03*
D15*
X241380000Y-91080000D03*
X251540000Y-91080000D03*
%TD*%
D17*
%TO.C,SW52*%
X268000000Y-86000000D03*
X261650000Y-88540000D03*
D16*
X265460000Y-91080000D03*
D15*
X260380000Y-91080000D03*
X270540000Y-91080000D03*
%TD*%
D17*
%TO.C,SW53*%
X287000000Y-86000000D03*
X280650000Y-88540000D03*
D16*
X284460000Y-91080000D03*
D15*
X279380000Y-91080000D03*
X289540000Y-91080000D03*
%TD*%
D17*
%TO.C,SW54*%
X306000000Y-86000000D03*
X299650000Y-88540000D03*
D16*
X303460000Y-91080000D03*
D15*
X298380000Y-91080000D03*
X308540000Y-91080000D03*
%TD*%
D18*
%TO.C,SW55*%
X343860000Y-84080000D03*
X320060000Y-84080000D03*
D16*
X320060000Y-99320000D03*
X343860000Y-99320000D03*
D15*
X337040000Y-91080000D03*
X326880000Y-91080000D03*
D16*
X331960000Y-91080000D03*
D17*
X328150000Y-88540000D03*
X334500000Y-86000000D03*
%TD*%
D15*
%TO.C,SW56*%
X38540000Y-110080000D03*
X28380000Y-110080000D03*
D16*
X33460000Y-110080000D03*
D17*
X29650000Y-107540000D03*
X36000000Y-105000000D03*
%TD*%
D15*
%TO.C,SW57*%
X57540000Y-110080000D03*
X47380000Y-110080000D03*
D16*
X52460000Y-110080000D03*
D17*
X48650000Y-107540000D03*
X55000000Y-105000000D03*
%TD*%
%TO.C,SW58*%
X74000000Y-105000000D03*
X67650000Y-107540000D03*
D16*
X71460000Y-110080000D03*
D15*
X66380000Y-110080000D03*
X76540000Y-110080000D03*
%TD*%
D17*
%TO.C,SW59*%
X93000000Y-105000000D03*
X86650000Y-107540000D03*
D16*
X90460000Y-110080000D03*
D15*
X85380000Y-110080000D03*
X95540000Y-110080000D03*
%TD*%
D17*
%TO.C,SW60*%
X112000000Y-105000000D03*
X105650000Y-107540000D03*
D16*
X109460000Y-110080000D03*
D15*
X104380000Y-110080000D03*
X114540000Y-110080000D03*
%TD*%
D17*
%TO.C,SW61*%
X131000000Y-105000000D03*
X124650000Y-107540000D03*
D16*
X128460000Y-110080000D03*
D15*
X123380000Y-110080000D03*
X133540000Y-110080000D03*
%TD*%
%TO.C,SW62*%
X152540000Y-110080000D03*
X142380000Y-110080000D03*
D16*
X147460000Y-110080000D03*
D17*
X143650000Y-107540000D03*
X150000000Y-105000000D03*
%TD*%
D15*
%TO.C,SW63*%
X232540000Y-110080000D03*
X222380000Y-110080000D03*
D16*
X227460000Y-110080000D03*
D17*
X223650000Y-107540000D03*
X230000000Y-105000000D03*
%TD*%
D15*
%TO.C,SW64*%
X251540000Y-110080000D03*
X241380000Y-110080000D03*
D16*
X246460000Y-110080000D03*
D17*
X242650000Y-107540000D03*
X249000000Y-105000000D03*
%TD*%
D15*
%TO.C,SW65*%
X270540000Y-110080000D03*
X260380000Y-110080000D03*
D16*
X265460000Y-110080000D03*
D17*
X261650000Y-107540000D03*
X268000000Y-105000000D03*
%TD*%
%TO.C,SW66*%
X287000000Y-105000000D03*
X280650000Y-107540000D03*
D16*
X284460000Y-110080000D03*
D15*
X279380000Y-110080000D03*
X289540000Y-110080000D03*
%TD*%
D17*
%TO.C,SW67*%
X306000000Y-105000000D03*
X299650000Y-107540000D03*
D16*
X303460000Y-110080000D03*
D15*
X298380000Y-110080000D03*
X308540000Y-110080000D03*
%TD*%
%TO.C,SW68*%
X327540000Y-110080000D03*
X317380000Y-110080000D03*
D16*
X322460000Y-110080000D03*
D17*
X318650000Y-107540000D03*
X325000000Y-105000000D03*
%TD*%
%TO.C,SW69*%
X344000000Y-105000000D03*
X337650000Y-107540000D03*
D16*
X341460000Y-110080000D03*
D15*
X336380000Y-110080000D03*
X346540000Y-110080000D03*
%TD*%
%TO.C,SW70*%
X38540000Y-129080000D03*
X28380000Y-129080000D03*
D16*
X33460000Y-129080000D03*
D17*
X29650000Y-126540000D03*
X36000000Y-124000000D03*
%TD*%
D15*
%TO.C,SW71*%
X57540000Y-129080000D03*
X47380000Y-129080000D03*
D16*
X52460000Y-129080000D03*
D17*
X48650000Y-126540000D03*
X55000000Y-124000000D03*
%TD*%
D15*
%TO.C,SW72*%
X76540000Y-129080000D03*
X66380000Y-129080000D03*
D16*
X71460000Y-129080000D03*
D17*
X67650000Y-126540000D03*
X74000000Y-124000000D03*
%TD*%
D15*
%TO.C,SW73*%
X95540000Y-129080000D03*
X85380000Y-129080000D03*
D16*
X90460000Y-129080000D03*
D17*
X86650000Y-126540000D03*
X93000000Y-124000000D03*
%TD*%
%TO.C,SW74*%
X121500000Y-124000000D03*
X115150000Y-126540000D03*
D16*
X118960000Y-129080000D03*
D15*
X113880000Y-129080000D03*
X124040000Y-129080000D03*
D16*
X130860000Y-137320000D03*
X107060000Y-137320000D03*
D18*
X107060000Y-122080000D03*
X130860000Y-122080000D03*
%TD*%
D15*
%TO.C,SW75*%
X251540000Y-129080000D03*
X241380000Y-129080000D03*
D16*
X246460000Y-129080000D03*
D17*
X242650000Y-126540000D03*
X249000000Y-124000000D03*
%TD*%
%TO.C,SW76*%
X268000000Y-124000000D03*
X261650000Y-126540000D03*
D16*
X265460000Y-129080000D03*
D15*
X260380000Y-129080000D03*
X270540000Y-129080000D03*
%TD*%
D17*
%TO.C,SW77*%
X287000000Y-124000000D03*
X280650000Y-126540000D03*
D16*
X284460000Y-129080000D03*
D15*
X279380000Y-129080000D03*
X289540000Y-129080000D03*
%TD*%
D17*
%TO.C,SW78*%
X306000000Y-124000000D03*
X299650000Y-126540000D03*
D16*
X303460000Y-129080000D03*
D15*
X298380000Y-129080000D03*
X308540000Y-129080000D03*
%TD*%
D17*
%TO.C,SW79*%
X325000000Y-124000000D03*
X318650000Y-126540000D03*
D16*
X322460000Y-129080000D03*
D15*
X317380000Y-129080000D03*
X327540000Y-129080000D03*
%TD*%
%TO.C,SW80*%
X346540000Y-129080000D03*
X336380000Y-129080000D03*
D16*
X341460000Y-129080000D03*
D17*
X337650000Y-126540000D03*
X344000000Y-124000000D03*
%TD*%
M02*
