M48
; DRILL file {KiCad 5.1.10-1.fc34} date Tue Aug  3 16:02:28 2021
; FORMAT={-:-/ absolute / metric / decimal}
; #@! TF.CreationDate,2021-08-03T16:02:28+03:00
; #@! TF.GenerationSoftware,Kicad,Pcbnew,5.1.10-1.fc34
; #@! TF.FileFunction,NonPlated,1,2,NPTH
FMAT,2
METRIC
T1C0.650
T2C1.700
T3C3.050
T4C4.000
%
G90
G05
T1
X32.554Y-21.38
X147.786Y-14.18
X227.118Y-21.38
X342.35Y-14.18
T2
X28.38Y-34.08
X28.38Y-53.08
X28.38Y-72.08
X28.38Y-91.08
X28.38Y-110.08
X28.38Y-129.08
X38.54Y-34.08
X38.54Y-53.08
X38.54Y-72.08
X38.54Y-91.08
X38.54Y-110.08
X38.54Y-129.08
X47.38Y-34.08
X47.38Y-53.08
X47.38Y-72.08
X47.38Y-91.08
X47.38Y-110.08
X47.38Y-129.08
X57.54Y-34.08
X57.54Y-53.08
X57.54Y-72.08
X57.54Y-91.08
X57.54Y-110.08
X57.54Y-129.08
X66.38Y-34.08
X66.38Y-53.08
X66.38Y-72.08
X66.38Y-91.08
X66.38Y-110.08
X66.38Y-129.08
X76.54Y-34.08
X76.54Y-53.08
X76.54Y-72.08
X76.54Y-91.08
X76.54Y-110.08
X76.54Y-129.08
X85.38Y-34.08
X85.38Y-53.08
X85.38Y-72.08
X85.38Y-91.08
X85.38Y-110.08
X85.38Y-129.08
X95.54Y-34.08
X95.54Y-53.08
X95.54Y-72.08
X95.54Y-91.08
X95.54Y-110.08
X95.54Y-129.08
X104.38Y-34.08
X104.38Y-53.08
X104.38Y-72.08
X104.38Y-91.08
X104.38Y-110.08
X113.88Y-129.08
X114.54Y-34.08
X114.54Y-53.08
X114.54Y-72.08
X114.54Y-91.08
X114.54Y-110.08
X123.38Y-34.08
X123.38Y-53.08
X123.38Y-72.08
X123.38Y-91.08
X123.38Y-110.08
X124.04Y-129.08
X133.54Y-34.08
X133.54Y-53.08
X133.54Y-72.08
X133.54Y-91.08
X133.54Y-110.08
X142.38Y-34.08
X142.38Y-53.08
X142.38Y-72.08
X142.38Y-91.08
X142.38Y-110.08
X152.54Y-34.08
X152.54Y-53.08
X152.54Y-72.08
X152.54Y-91.08
X152.54Y-110.08
X222.38Y-34.08
X222.38Y-53.08
X222.38Y-72.08
X222.38Y-91.08
X222.38Y-110.08
X232.54Y-34.08
X232.54Y-53.08
X232.54Y-72.08
X232.54Y-91.08
X232.54Y-110.08
X241.38Y-34.08
X241.38Y-53.08
X241.38Y-72.08
X241.38Y-91.08
X241.38Y-110.08
X241.38Y-129.08
X251.54Y-34.08
X251.54Y-53.08
X251.54Y-72.08
X251.54Y-91.08
X251.54Y-110.08
X251.54Y-129.08
X260.38Y-34.08
X260.38Y-53.08
X260.38Y-72.08
X260.38Y-91.08
X260.38Y-110.08
X260.38Y-129.08
X270.54Y-34.08
X270.54Y-53.08
X270.54Y-72.08
X270.54Y-91.08
X270.54Y-110.08
X270.54Y-129.08
X279.38Y-34.08
X279.38Y-53.08
X279.38Y-72.08
X279.38Y-91.08
X279.38Y-110.08
X279.38Y-129.08
X289.54Y-34.08
X289.54Y-53.08
X289.54Y-72.08
X289.54Y-91.08
X289.54Y-110.08
X289.54Y-129.08
X298.38Y-34.08
X298.38Y-53.08
X298.38Y-72.08
X298.38Y-91.08
X298.38Y-110.08
X298.38Y-129.08
X308.54Y-34.08
X308.54Y-53.08
X308.54Y-72.08
X308.54Y-91.08
X308.54Y-110.08
X308.54Y-129.08
X317.38Y-34.08
X317.38Y-53.08
X317.38Y-72.08
X317.38Y-110.08
X317.38Y-129.08
X326.88Y-91.08
X327.54Y-34.08
X327.54Y-53.08
X327.54Y-72.08
X327.54Y-110.08
X327.54Y-129.08
X336.38Y-34.08
X336.38Y-53.08
X336.38Y-72.08
X336.38Y-110.08
X336.38Y-129.08
X337.04Y-91.08
X346.54Y-34.08
X346.54Y-53.08
X346.54Y-72.08
X346.54Y-110.08
X346.54Y-129.08
T3
X107.06Y-122.08
X130.86Y-122.08
X320.06Y-84.08
X343.86Y-84.08
T4
X33.46Y-34.08
X33.46Y-53.08
X33.46Y-72.08
X33.46Y-91.08
X33.46Y-110.08
X33.46Y-129.08
X52.46Y-34.08
X52.46Y-53.08
X52.46Y-72.08
X52.46Y-91.08
X52.46Y-110.08
X52.46Y-129.08
X71.46Y-34.08
X71.46Y-53.08
X71.46Y-72.08
X71.46Y-91.08
X71.46Y-110.08
X71.46Y-129.08
X90.46Y-34.08
X90.46Y-53.08
X90.46Y-72.08
X90.46Y-91.08
X90.46Y-110.08
X90.46Y-129.08
X107.06Y-137.32
X109.46Y-34.08
X109.46Y-53.08
X109.46Y-72.08
X109.46Y-91.08
X109.46Y-110.08
X118.96Y-129.08
X128.46Y-34.08
X128.46Y-53.08
X128.46Y-72.08
X128.46Y-91.08
X128.46Y-110.08
X130.86Y-137.32
X147.46Y-34.08
X147.46Y-53.08
X147.46Y-72.08
X147.46Y-91.08
X147.46Y-110.08
X227.46Y-34.08
X227.46Y-53.08
X227.46Y-72.08
X227.46Y-91.08
X227.46Y-110.08
X246.46Y-34.08
X246.46Y-53.08
X246.46Y-72.08
X246.46Y-91.08
X246.46Y-110.08
X246.46Y-129.08
X265.46Y-34.08
X265.46Y-53.08
X265.46Y-72.08
X265.46Y-91.08
X265.46Y-110.08
X265.46Y-129.08
X284.46Y-34.08
X284.46Y-53.08
X284.46Y-72.08
X284.46Y-91.08
X284.46Y-110.08
X284.46Y-129.08
X303.46Y-34.08
X303.46Y-53.08
X303.46Y-72.08
X303.46Y-91.08
X303.46Y-110.08
X303.46Y-129.08
X320.06Y-99.32
X322.46Y-34.08
X322.46Y-53.08
X322.46Y-72.08
X322.46Y-110.08
X322.46Y-129.08
X331.96Y-91.08
X341.46Y-34.08
X341.46Y-53.08
X341.46Y-72.08
X341.46Y-110.08
X341.46Y-129.08
X343.86Y-99.32
T1
G00X32.554Y-14.33
M15
G01X32.554Y-14.03
M16
G05
G00X147.786Y-21.23
M15
G01X147.786Y-21.53
M16
G05
G00X227.118Y-14.33
M15
G01X227.118Y-14.03
M16
G05
G00X342.35Y-21.23
M15
G01X342.35Y-21.53
M16
G05
T0
M30
