%TF.GenerationSoftware,KiCad,Pcbnew,5.1.10-1.fc34*%
%TF.CreationDate,2021-08-03T16:02:25+03:00*%
%TF.ProjectId,keyboard,6b657962-6f61-4726-942e-6b696361645f,rev?*%
%TF.SameCoordinates,Original*%
%TF.FileFunction,Legend,Top*%
%TF.FilePolarity,Positive*%
%FSLAX46Y46*%
G04 Gerber Fmt 4.6, Leading zero omitted, Abs format (unit mm)*
G04 Created by KiCad (PCBNEW 5.1.10-1.fc34) date 2021-08-03 16:02:25*
%MOMM*%
%LPD*%
G01*
G04 APERTURE LIST*
%ADD10C,0.120000*%
G04 APERTURE END LIST*
D10*
%TO.C,SW1*%
X26475000Y-27095000D02*
X40445000Y-27095000D01*
X40445000Y-27095000D02*
X40445000Y-41065000D01*
X40445000Y-41065000D02*
X26475000Y-41065000D01*
X26475000Y-41065000D02*
X26475000Y-27095000D01*
%TO.C,SW2*%
X45475000Y-27095000D02*
X59445000Y-27095000D01*
X59445000Y-27095000D02*
X59445000Y-41065000D01*
X59445000Y-41065000D02*
X45475000Y-41065000D01*
X45475000Y-41065000D02*
X45475000Y-27095000D01*
%TO.C,SW3*%
X64475000Y-41065000D02*
X64475000Y-27095000D01*
X78445000Y-41065000D02*
X64475000Y-41065000D01*
X78445000Y-27095000D02*
X78445000Y-41065000D01*
X64475000Y-27095000D02*
X78445000Y-27095000D01*
%TO.C,SW4*%
X83475000Y-27095000D02*
X97445000Y-27095000D01*
X97445000Y-27095000D02*
X97445000Y-41065000D01*
X97445000Y-41065000D02*
X83475000Y-41065000D01*
X83475000Y-41065000D02*
X83475000Y-27095000D01*
%TO.C,SW5*%
X102475000Y-41065000D02*
X102475000Y-27095000D01*
X116445000Y-41065000D02*
X102475000Y-41065000D01*
X116445000Y-27095000D02*
X116445000Y-41065000D01*
X102475000Y-27095000D02*
X116445000Y-27095000D01*
%TO.C,SW6*%
X121475000Y-41065000D02*
X121475000Y-27095000D01*
X135445000Y-41065000D02*
X121475000Y-41065000D01*
X135445000Y-27095000D02*
X135445000Y-41065000D01*
X121475000Y-27095000D02*
X135445000Y-27095000D01*
%TO.C,SW7*%
X140475000Y-41065000D02*
X140475000Y-27095000D01*
X154445000Y-41065000D02*
X140475000Y-41065000D01*
X154445000Y-27095000D02*
X154445000Y-41065000D01*
X140475000Y-27095000D02*
X154445000Y-27095000D01*
%TO.C,SW8*%
X220475000Y-41065000D02*
X220475000Y-27095000D01*
X234445000Y-41065000D02*
X220475000Y-41065000D01*
X234445000Y-27095000D02*
X234445000Y-41065000D01*
X220475000Y-27095000D02*
X234445000Y-27095000D01*
%TO.C,SW9*%
X239475000Y-27095000D02*
X253445000Y-27095000D01*
X253445000Y-27095000D02*
X253445000Y-41065000D01*
X253445000Y-41065000D02*
X239475000Y-41065000D01*
X239475000Y-41065000D02*
X239475000Y-27095000D01*
%TO.C,SW10*%
X258475000Y-27095000D02*
X272445000Y-27095000D01*
X272445000Y-27095000D02*
X272445000Y-41065000D01*
X272445000Y-41065000D02*
X258475000Y-41065000D01*
X258475000Y-41065000D02*
X258475000Y-27095000D01*
%TO.C,SW11*%
X277475000Y-27095000D02*
X291445000Y-27095000D01*
X291445000Y-27095000D02*
X291445000Y-41065000D01*
X291445000Y-41065000D02*
X277475000Y-41065000D01*
X277475000Y-41065000D02*
X277475000Y-27095000D01*
%TO.C,SW12*%
X296475000Y-41065000D02*
X296475000Y-27095000D01*
X310445000Y-41065000D02*
X296475000Y-41065000D01*
X310445000Y-27095000D02*
X310445000Y-41065000D01*
X296475000Y-27095000D02*
X310445000Y-27095000D01*
%TO.C,SW13*%
X315475000Y-41065000D02*
X315475000Y-27095000D01*
X329445000Y-41065000D02*
X315475000Y-41065000D01*
X329445000Y-27095000D02*
X329445000Y-41065000D01*
X315475000Y-27095000D02*
X329445000Y-27095000D01*
%TO.C,SW14*%
X334475000Y-41065000D02*
X334475000Y-27095000D01*
X348445000Y-41065000D02*
X334475000Y-41065000D01*
X348445000Y-27095000D02*
X348445000Y-41065000D01*
X334475000Y-27095000D02*
X348445000Y-27095000D01*
%TO.C,SW15*%
X26475000Y-46095000D02*
X40445000Y-46095000D01*
X40445000Y-46095000D02*
X40445000Y-60065000D01*
X40445000Y-60065000D02*
X26475000Y-60065000D01*
X26475000Y-60065000D02*
X26475000Y-46095000D01*
%TO.C,SW16*%
X45475000Y-60065000D02*
X45475000Y-46095000D01*
X59445000Y-60065000D02*
X45475000Y-60065000D01*
X59445000Y-46095000D02*
X59445000Y-60065000D01*
X45475000Y-46095000D02*
X59445000Y-46095000D01*
%TO.C,SW17*%
X64475000Y-46095000D02*
X78445000Y-46095000D01*
X78445000Y-46095000D02*
X78445000Y-60065000D01*
X78445000Y-60065000D02*
X64475000Y-60065000D01*
X64475000Y-60065000D02*
X64475000Y-46095000D01*
%TO.C,SW18*%
X83475000Y-46095000D02*
X97445000Y-46095000D01*
X97445000Y-46095000D02*
X97445000Y-60065000D01*
X97445000Y-60065000D02*
X83475000Y-60065000D01*
X83475000Y-60065000D02*
X83475000Y-46095000D01*
%TO.C,SW19*%
X102475000Y-60065000D02*
X102475000Y-46095000D01*
X116445000Y-60065000D02*
X102475000Y-60065000D01*
X116445000Y-46095000D02*
X116445000Y-60065000D01*
X102475000Y-46095000D02*
X116445000Y-46095000D01*
%TO.C,SW20*%
X121475000Y-60065000D02*
X121475000Y-46095000D01*
X135445000Y-60065000D02*
X121475000Y-60065000D01*
X135445000Y-46095000D02*
X135445000Y-60065000D01*
X121475000Y-46095000D02*
X135445000Y-46095000D01*
%TO.C,SW21*%
X140475000Y-46095000D02*
X154445000Y-46095000D01*
X154445000Y-46095000D02*
X154445000Y-60065000D01*
X154445000Y-60065000D02*
X140475000Y-60065000D01*
X140475000Y-60065000D02*
X140475000Y-46095000D01*
%TO.C,SW22*%
X220475000Y-60065000D02*
X220475000Y-46095000D01*
X234445000Y-60065000D02*
X220475000Y-60065000D01*
X234445000Y-46095000D02*
X234445000Y-60065000D01*
X220475000Y-46095000D02*
X234445000Y-46095000D01*
%TO.C,SW23*%
X239475000Y-46095000D02*
X253445000Y-46095000D01*
X253445000Y-46095000D02*
X253445000Y-60065000D01*
X253445000Y-60065000D02*
X239475000Y-60065000D01*
X239475000Y-60065000D02*
X239475000Y-46095000D01*
%TO.C,SW24*%
X258475000Y-60065000D02*
X258475000Y-46095000D01*
X272445000Y-60065000D02*
X258475000Y-60065000D01*
X272445000Y-46095000D02*
X272445000Y-60065000D01*
X258475000Y-46095000D02*
X272445000Y-46095000D01*
%TO.C,SW25*%
X277475000Y-46095000D02*
X291445000Y-46095000D01*
X291445000Y-46095000D02*
X291445000Y-60065000D01*
X291445000Y-60065000D02*
X277475000Y-60065000D01*
X277475000Y-60065000D02*
X277475000Y-46095000D01*
%TO.C,SW26*%
X296475000Y-60065000D02*
X296475000Y-46095000D01*
X310445000Y-60065000D02*
X296475000Y-60065000D01*
X310445000Y-46095000D02*
X310445000Y-60065000D01*
X296475000Y-46095000D02*
X310445000Y-46095000D01*
%TO.C,SW27*%
X315475000Y-46095000D02*
X329445000Y-46095000D01*
X329445000Y-46095000D02*
X329445000Y-60065000D01*
X329445000Y-60065000D02*
X315475000Y-60065000D01*
X315475000Y-60065000D02*
X315475000Y-46095000D01*
%TO.C,SW28*%
X334475000Y-60065000D02*
X334475000Y-46095000D01*
X348445000Y-60065000D02*
X334475000Y-60065000D01*
X348445000Y-46095000D02*
X348445000Y-60065000D01*
X334475000Y-46095000D02*
X348445000Y-46095000D01*
%TO.C,SW29*%
X26475000Y-79065000D02*
X26475000Y-65095000D01*
X40445000Y-79065000D02*
X26475000Y-79065000D01*
X40445000Y-65095000D02*
X40445000Y-79065000D01*
X26475000Y-65095000D02*
X40445000Y-65095000D01*
%TO.C,SW30*%
X45475000Y-65095000D02*
X59445000Y-65095000D01*
X59445000Y-65095000D02*
X59445000Y-79065000D01*
X59445000Y-79065000D02*
X45475000Y-79065000D01*
X45475000Y-79065000D02*
X45475000Y-65095000D01*
%TO.C,SW31*%
X64475000Y-79065000D02*
X64475000Y-65095000D01*
X78445000Y-79065000D02*
X64475000Y-79065000D01*
X78445000Y-65095000D02*
X78445000Y-79065000D01*
X64475000Y-65095000D02*
X78445000Y-65095000D01*
%TO.C,SW32*%
X83475000Y-79065000D02*
X83475000Y-65095000D01*
X97445000Y-79065000D02*
X83475000Y-79065000D01*
X97445000Y-65095000D02*
X97445000Y-79065000D01*
X83475000Y-65095000D02*
X97445000Y-65095000D01*
%TO.C,SW33*%
X102475000Y-65095000D02*
X116445000Y-65095000D01*
X116445000Y-65095000D02*
X116445000Y-79065000D01*
X116445000Y-79065000D02*
X102475000Y-79065000D01*
X102475000Y-79065000D02*
X102475000Y-65095000D01*
%TO.C,SW34*%
X121475000Y-65095000D02*
X135445000Y-65095000D01*
X135445000Y-65095000D02*
X135445000Y-79065000D01*
X135445000Y-79065000D02*
X121475000Y-79065000D01*
X121475000Y-79065000D02*
X121475000Y-65095000D01*
%TO.C,SW35*%
X140475000Y-79065000D02*
X140475000Y-65095000D01*
X154445000Y-79065000D02*
X140475000Y-79065000D01*
X154445000Y-65095000D02*
X154445000Y-79065000D01*
X140475000Y-65095000D02*
X154445000Y-65095000D01*
%TO.C,SW36*%
X220475000Y-65095000D02*
X234445000Y-65095000D01*
X234445000Y-65095000D02*
X234445000Y-79065000D01*
X234445000Y-79065000D02*
X220475000Y-79065000D01*
X220475000Y-79065000D02*
X220475000Y-65095000D01*
%TO.C,SW37*%
X239475000Y-79065000D02*
X239475000Y-65095000D01*
X253445000Y-79065000D02*
X239475000Y-79065000D01*
X253445000Y-65095000D02*
X253445000Y-79065000D01*
X239475000Y-65095000D02*
X253445000Y-65095000D01*
%TO.C,SW38*%
X258475000Y-65095000D02*
X272445000Y-65095000D01*
X272445000Y-65095000D02*
X272445000Y-79065000D01*
X272445000Y-79065000D02*
X258475000Y-79065000D01*
X258475000Y-79065000D02*
X258475000Y-65095000D01*
%TO.C,SW39*%
X277475000Y-79065000D02*
X277475000Y-65095000D01*
X291445000Y-79065000D02*
X277475000Y-79065000D01*
X291445000Y-65095000D02*
X291445000Y-79065000D01*
X277475000Y-65095000D02*
X291445000Y-65095000D01*
%TO.C,SW40*%
X296475000Y-79065000D02*
X296475000Y-65095000D01*
X310445000Y-79065000D02*
X296475000Y-79065000D01*
X310445000Y-65095000D02*
X310445000Y-79065000D01*
X296475000Y-65095000D02*
X310445000Y-65095000D01*
%TO.C,SW41*%
X315475000Y-65095000D02*
X329445000Y-65095000D01*
X329445000Y-65095000D02*
X329445000Y-79065000D01*
X329445000Y-79065000D02*
X315475000Y-79065000D01*
X315475000Y-79065000D02*
X315475000Y-65095000D01*
%TO.C,SW42*%
X334475000Y-65095000D02*
X348445000Y-65095000D01*
X348445000Y-65095000D02*
X348445000Y-79065000D01*
X348445000Y-79065000D02*
X334475000Y-79065000D01*
X334475000Y-79065000D02*
X334475000Y-65095000D01*
%TO.C,SW43*%
X26475000Y-98065000D02*
X26475000Y-84095000D01*
X40445000Y-98065000D02*
X26475000Y-98065000D01*
X40445000Y-84095000D02*
X40445000Y-98065000D01*
X26475000Y-84095000D02*
X40445000Y-84095000D01*
%TO.C,SW44*%
X45475000Y-98065000D02*
X45475000Y-84095000D01*
X59445000Y-98065000D02*
X45475000Y-98065000D01*
X59445000Y-84095000D02*
X59445000Y-98065000D01*
X45475000Y-84095000D02*
X59445000Y-84095000D01*
%TO.C,SW45*%
X64475000Y-84095000D02*
X78445000Y-84095000D01*
X78445000Y-84095000D02*
X78445000Y-98065000D01*
X78445000Y-98065000D02*
X64475000Y-98065000D01*
X64475000Y-98065000D02*
X64475000Y-84095000D01*
%TO.C,SW46*%
X83475000Y-84095000D02*
X97445000Y-84095000D01*
X97445000Y-84095000D02*
X97445000Y-98065000D01*
X97445000Y-98065000D02*
X83475000Y-98065000D01*
X83475000Y-98065000D02*
X83475000Y-84095000D01*
%TO.C,SW47*%
X102475000Y-84095000D02*
X116445000Y-84095000D01*
X116445000Y-84095000D02*
X116445000Y-98065000D01*
X116445000Y-98065000D02*
X102475000Y-98065000D01*
X102475000Y-98065000D02*
X102475000Y-84095000D01*
%TO.C,SW48*%
X121475000Y-98065000D02*
X121475000Y-84095000D01*
X135445000Y-98065000D02*
X121475000Y-98065000D01*
X135445000Y-84095000D02*
X135445000Y-98065000D01*
X121475000Y-84095000D02*
X135445000Y-84095000D01*
%TO.C,SW49*%
X140475000Y-98065000D02*
X140475000Y-84095000D01*
X154445000Y-98065000D02*
X140475000Y-98065000D01*
X154445000Y-84095000D02*
X154445000Y-98065000D01*
X140475000Y-84095000D02*
X154445000Y-84095000D01*
%TO.C,SW50*%
X220475000Y-84095000D02*
X234445000Y-84095000D01*
X234445000Y-84095000D02*
X234445000Y-98065000D01*
X234445000Y-98065000D02*
X220475000Y-98065000D01*
X220475000Y-98065000D02*
X220475000Y-84095000D01*
%TO.C,SW51*%
X239475000Y-98065000D02*
X239475000Y-84095000D01*
X253445000Y-98065000D02*
X239475000Y-98065000D01*
X253445000Y-84095000D02*
X253445000Y-98065000D01*
X239475000Y-84095000D02*
X253445000Y-84095000D01*
%TO.C,SW52*%
X258475000Y-98065000D02*
X258475000Y-84095000D01*
X272445000Y-98065000D02*
X258475000Y-98065000D01*
X272445000Y-84095000D02*
X272445000Y-98065000D01*
X258475000Y-84095000D02*
X272445000Y-84095000D01*
%TO.C,SW53*%
X277475000Y-98065000D02*
X277475000Y-84095000D01*
X291445000Y-98065000D02*
X277475000Y-98065000D01*
X291445000Y-84095000D02*
X291445000Y-98065000D01*
X277475000Y-84095000D02*
X291445000Y-84095000D01*
%TO.C,SW54*%
X296475000Y-98065000D02*
X296475000Y-84095000D01*
X310445000Y-98065000D02*
X296475000Y-98065000D01*
X310445000Y-84095000D02*
X310445000Y-98065000D01*
X296475000Y-84095000D02*
X310445000Y-84095000D01*
%TO.C,SW55*%
X324975000Y-84095000D02*
X338945000Y-84095000D01*
X338945000Y-84095000D02*
X338945000Y-98065000D01*
X338945000Y-98065000D02*
X324975000Y-98065000D01*
X324975000Y-98065000D02*
X324975000Y-84095000D01*
%TO.C,SW56*%
X26475000Y-103095000D02*
X40445000Y-103095000D01*
X40445000Y-103095000D02*
X40445000Y-117065000D01*
X40445000Y-117065000D02*
X26475000Y-117065000D01*
X26475000Y-117065000D02*
X26475000Y-103095000D01*
%TO.C,SW57*%
X45475000Y-103095000D02*
X59445000Y-103095000D01*
X59445000Y-103095000D02*
X59445000Y-117065000D01*
X59445000Y-117065000D02*
X45475000Y-117065000D01*
X45475000Y-117065000D02*
X45475000Y-103095000D01*
%TO.C,SW58*%
X64475000Y-117065000D02*
X64475000Y-103095000D01*
X78445000Y-117065000D02*
X64475000Y-117065000D01*
X78445000Y-103095000D02*
X78445000Y-117065000D01*
X64475000Y-103095000D02*
X78445000Y-103095000D01*
%TO.C,SW59*%
X83475000Y-117065000D02*
X83475000Y-103095000D01*
X97445000Y-117065000D02*
X83475000Y-117065000D01*
X97445000Y-103095000D02*
X97445000Y-117065000D01*
X83475000Y-103095000D02*
X97445000Y-103095000D01*
%TO.C,SW60*%
X102475000Y-117065000D02*
X102475000Y-103095000D01*
X116445000Y-117065000D02*
X102475000Y-117065000D01*
X116445000Y-103095000D02*
X116445000Y-117065000D01*
X102475000Y-103095000D02*
X116445000Y-103095000D01*
%TO.C,SW61*%
X121475000Y-117065000D02*
X121475000Y-103095000D01*
X135445000Y-117065000D02*
X121475000Y-117065000D01*
X135445000Y-103095000D02*
X135445000Y-117065000D01*
X121475000Y-103095000D02*
X135445000Y-103095000D01*
%TO.C,SW62*%
X140475000Y-103095000D02*
X154445000Y-103095000D01*
X154445000Y-103095000D02*
X154445000Y-117065000D01*
X154445000Y-117065000D02*
X140475000Y-117065000D01*
X140475000Y-117065000D02*
X140475000Y-103095000D01*
%TO.C,SW63*%
X220475000Y-103095000D02*
X234445000Y-103095000D01*
X234445000Y-103095000D02*
X234445000Y-117065000D01*
X234445000Y-117065000D02*
X220475000Y-117065000D01*
X220475000Y-117065000D02*
X220475000Y-103095000D01*
%TO.C,SW64*%
X239475000Y-103095000D02*
X253445000Y-103095000D01*
X253445000Y-103095000D02*
X253445000Y-117065000D01*
X253445000Y-117065000D02*
X239475000Y-117065000D01*
X239475000Y-117065000D02*
X239475000Y-103095000D01*
%TO.C,SW65*%
X258475000Y-103095000D02*
X272445000Y-103095000D01*
X272445000Y-103095000D02*
X272445000Y-117065000D01*
X272445000Y-117065000D02*
X258475000Y-117065000D01*
X258475000Y-117065000D02*
X258475000Y-103095000D01*
%TO.C,SW66*%
X277475000Y-117065000D02*
X277475000Y-103095000D01*
X291445000Y-117065000D02*
X277475000Y-117065000D01*
X291445000Y-103095000D02*
X291445000Y-117065000D01*
X277475000Y-103095000D02*
X291445000Y-103095000D01*
%TO.C,SW67*%
X296475000Y-117065000D02*
X296475000Y-103095000D01*
X310445000Y-117065000D02*
X296475000Y-117065000D01*
X310445000Y-103095000D02*
X310445000Y-117065000D01*
X296475000Y-103095000D02*
X310445000Y-103095000D01*
%TO.C,SW68*%
X315475000Y-103095000D02*
X329445000Y-103095000D01*
X329445000Y-103095000D02*
X329445000Y-117065000D01*
X329445000Y-117065000D02*
X315475000Y-117065000D01*
X315475000Y-117065000D02*
X315475000Y-103095000D01*
%TO.C,SW69*%
X334475000Y-117065000D02*
X334475000Y-103095000D01*
X348445000Y-117065000D02*
X334475000Y-117065000D01*
X348445000Y-103095000D02*
X348445000Y-117065000D01*
X334475000Y-103095000D02*
X348445000Y-103095000D01*
%TO.C,SW70*%
X26475000Y-122095000D02*
X40445000Y-122095000D01*
X40445000Y-122095000D02*
X40445000Y-136065000D01*
X40445000Y-136065000D02*
X26475000Y-136065000D01*
X26475000Y-136065000D02*
X26475000Y-122095000D01*
%TO.C,SW71*%
X45475000Y-122095000D02*
X59445000Y-122095000D01*
X59445000Y-122095000D02*
X59445000Y-136065000D01*
X59445000Y-136065000D02*
X45475000Y-136065000D01*
X45475000Y-136065000D02*
X45475000Y-122095000D01*
%TO.C,SW72*%
X64475000Y-122095000D02*
X78445000Y-122095000D01*
X78445000Y-122095000D02*
X78445000Y-136065000D01*
X78445000Y-136065000D02*
X64475000Y-136065000D01*
X64475000Y-136065000D02*
X64475000Y-122095000D01*
%TO.C,SW73*%
X83475000Y-122095000D02*
X97445000Y-122095000D01*
X97445000Y-122095000D02*
X97445000Y-136065000D01*
X97445000Y-136065000D02*
X83475000Y-136065000D01*
X83475000Y-136065000D02*
X83475000Y-122095000D01*
%TO.C,SW74*%
X111975000Y-136065000D02*
X111975000Y-122095000D01*
X125945000Y-136065000D02*
X111975000Y-136065000D01*
X125945000Y-122095000D02*
X125945000Y-136065000D01*
X111975000Y-122095000D02*
X125945000Y-122095000D01*
%TO.C,SW75*%
X239475000Y-122095000D02*
X253445000Y-122095000D01*
X253445000Y-122095000D02*
X253445000Y-136065000D01*
X253445000Y-136065000D02*
X239475000Y-136065000D01*
X239475000Y-136065000D02*
X239475000Y-122095000D01*
%TO.C,SW76*%
X258475000Y-136065000D02*
X258475000Y-122095000D01*
X272445000Y-136065000D02*
X258475000Y-136065000D01*
X272445000Y-122095000D02*
X272445000Y-136065000D01*
X258475000Y-122095000D02*
X272445000Y-122095000D01*
%TO.C,SW77*%
X277475000Y-136065000D02*
X277475000Y-122095000D01*
X291445000Y-136065000D02*
X277475000Y-136065000D01*
X291445000Y-122095000D02*
X291445000Y-136065000D01*
X277475000Y-122095000D02*
X291445000Y-122095000D01*
%TO.C,SW78*%
X296475000Y-136065000D02*
X296475000Y-122095000D01*
X310445000Y-136065000D02*
X296475000Y-136065000D01*
X310445000Y-122095000D02*
X310445000Y-136065000D01*
X296475000Y-122095000D02*
X310445000Y-122095000D01*
%TO.C,SW79*%
X315475000Y-136065000D02*
X315475000Y-122095000D01*
X329445000Y-136065000D02*
X315475000Y-136065000D01*
X329445000Y-122095000D02*
X329445000Y-136065000D01*
X315475000Y-122095000D02*
X329445000Y-122095000D01*
%TO.C,SW80*%
X334475000Y-122095000D02*
X348445000Y-122095000D01*
X348445000Y-122095000D02*
X348445000Y-136065000D01*
X348445000Y-136065000D02*
X334475000Y-136065000D01*
X334475000Y-136065000D02*
X334475000Y-122095000D01*
%TD*%
M02*
