%TF.GenerationSoftware,KiCad,Pcbnew,5.1.10-1.fc34*%
%TF.CreationDate,2021-08-03T16:02:25+03:00*%
%TF.ProjectId,keyboard,6b657962-6f61-4726-942e-6b696361645f,rev?*%
%TF.SameCoordinates,Original*%
%TF.FileFunction,Paste,Bot*%
%TF.FilePolarity,Positive*%
%FSLAX46Y46*%
G04 Gerber Fmt 4.6, Leading zero omitted, Abs format (unit mm)*
G04 Created by KiCad (PCBNEW 5.1.10-1.fc34) date 2021-08-03 16:02:25*
%MOMM*%
%LPD*%
G01*
G04 APERTURE LIST*
%ADD10R,2.400000X2.000000*%
%ADD11R,1.500000X0.550000*%
%ADD12R,0.550000X1.500000*%
%ADD13R,0.700000X0.300000*%
G04 APERTURE END LIST*
%TO.C,C5*%
G36*
G01*
X50138500Y-21150000D02*
X49937500Y-21150000D01*
G75*
G02*
X49858000Y-21070500I0J79500D01*
G01*
X49858000Y-20911500D01*
G75*
G02*
X49937500Y-20832000I79500J0D01*
G01*
X50138500Y-20832000D01*
G75*
G02*
X50218000Y-20911500I0J-79500D01*
G01*
X50218000Y-21070500D01*
G75*
G02*
X50138500Y-21150000I-79500J0D01*
G01*
G37*
G36*
G01*
X50138500Y-21840000D02*
X49937500Y-21840000D01*
G75*
G02*
X49858000Y-21760500I0J79500D01*
G01*
X49858000Y-21601500D01*
G75*
G02*
X49937500Y-21522000I79500J0D01*
G01*
X50138500Y-21522000D01*
G75*
G02*
X50218000Y-21601500I0J-79500D01*
G01*
X50218000Y-21760500D01*
G75*
G02*
X50138500Y-21840000I-79500J0D01*
G01*
G37*
%TD*%
D10*
%TO.C,Y1*%
X68072000Y-19486000D03*
X68072000Y-23186000D03*
%TD*%
%TO.C,C6*%
G36*
G01*
X332893500Y-22284000D02*
X333094500Y-22284000D01*
G75*
G02*
X333174000Y-22363500I0J-79500D01*
G01*
X333174000Y-22522500D01*
G75*
G02*
X333094500Y-22602000I-79500J0D01*
G01*
X332893500Y-22602000D01*
G75*
G02*
X332814000Y-22522500I0J79500D01*
G01*
X332814000Y-22363500D01*
G75*
G02*
X332893500Y-22284000I79500J0D01*
G01*
G37*
G36*
G01*
X332893500Y-21594000D02*
X333094500Y-21594000D01*
G75*
G02*
X333174000Y-21673500I0J-79500D01*
G01*
X333174000Y-21832500D01*
G75*
G02*
X333094500Y-21912000I-79500J0D01*
G01*
X332893500Y-21912000D01*
G75*
G02*
X332814000Y-21832500I0J79500D01*
G01*
X332814000Y-21673500D01*
G75*
G02*
X332893500Y-21594000I79500J0D01*
G01*
G37*
%TD*%
%TO.C,Y2*%
X318516000Y-19740000D03*
X318516000Y-23440000D03*
%TD*%
D11*
%TO.C,U2*%
X299862000Y-13780000D03*
X299862000Y-14580000D03*
X299862000Y-15380000D03*
X299862000Y-16180000D03*
X299862000Y-16980000D03*
X299862000Y-17780000D03*
X299862000Y-18580000D03*
X299862000Y-19380000D03*
X299862000Y-20180000D03*
X299862000Y-20980000D03*
X299862000Y-21780000D03*
D12*
X301562000Y-23480000D03*
X302362000Y-23480000D03*
X303162000Y-23480000D03*
X303962000Y-23480000D03*
X304762000Y-23480000D03*
X305562000Y-23480000D03*
X306362000Y-23480000D03*
X307162000Y-23480000D03*
X307962000Y-23480000D03*
X308762000Y-23480000D03*
X309562000Y-23480000D03*
D11*
X311262000Y-21780000D03*
X311262000Y-20980000D03*
X311262000Y-20180000D03*
X311262000Y-19380000D03*
X311262000Y-18580000D03*
X311262000Y-17780000D03*
X311262000Y-16980000D03*
X311262000Y-16180000D03*
X311262000Y-15380000D03*
X311262000Y-14580000D03*
X311262000Y-13780000D03*
D12*
X309562000Y-12080000D03*
X308762000Y-12080000D03*
X307962000Y-12080000D03*
X307162000Y-12080000D03*
X306362000Y-12080000D03*
X305562000Y-12080000D03*
X304762000Y-12080000D03*
X303962000Y-12080000D03*
X303162000Y-12080000D03*
X302362000Y-12080000D03*
X301562000Y-12080000D03*
%TD*%
D11*
%TO.C,U1*%
X51704000Y-13780000D03*
X51704000Y-14580000D03*
X51704000Y-15380000D03*
X51704000Y-16180000D03*
X51704000Y-16980000D03*
X51704000Y-17780000D03*
X51704000Y-18580000D03*
X51704000Y-19380000D03*
X51704000Y-20180000D03*
X51704000Y-20980000D03*
X51704000Y-21780000D03*
D12*
X53404000Y-23480000D03*
X54204000Y-23480000D03*
X55004000Y-23480000D03*
X55804000Y-23480000D03*
X56604000Y-23480000D03*
X57404000Y-23480000D03*
X58204000Y-23480000D03*
X59004000Y-23480000D03*
X59804000Y-23480000D03*
X60604000Y-23480000D03*
X61404000Y-23480000D03*
D11*
X63104000Y-21780000D03*
X63104000Y-20980000D03*
X63104000Y-20180000D03*
X63104000Y-19380000D03*
X63104000Y-18580000D03*
X63104000Y-17780000D03*
X63104000Y-16980000D03*
X63104000Y-16180000D03*
X63104000Y-15380000D03*
X63104000Y-14580000D03*
X63104000Y-13780000D03*
D12*
X61404000Y-12080000D03*
X60604000Y-12080000D03*
X59804000Y-12080000D03*
X59004000Y-12080000D03*
X58204000Y-12080000D03*
X57404000Y-12080000D03*
X56604000Y-12080000D03*
X55804000Y-12080000D03*
X55004000Y-12080000D03*
X54204000Y-12080000D03*
X53404000Y-12080000D03*
%TD*%
%TO.C,R16*%
G36*
G01*
X230207000Y-22077000D02*
X230207000Y-22627000D01*
G75*
G02*
X230007000Y-22827000I-200000J0D01*
G01*
X229607000Y-22827000D01*
G75*
G02*
X229407000Y-22627000I0J200000D01*
G01*
X229407000Y-22077000D01*
G75*
G02*
X229607000Y-21877000I200000J0D01*
G01*
X230007000Y-21877000D01*
G75*
G02*
X230207000Y-22077000I0J-200000D01*
G01*
G37*
G36*
G01*
X231857000Y-22077000D02*
X231857000Y-22627000D01*
G75*
G02*
X231657000Y-22827000I-200000J0D01*
G01*
X231257000Y-22827000D01*
G75*
G02*
X231057000Y-22627000I0J200000D01*
G01*
X231057000Y-22077000D01*
G75*
G02*
X231257000Y-21877000I200000J0D01*
G01*
X231657000Y-21877000D01*
G75*
G02*
X231857000Y-22077000I0J-200000D01*
G01*
G37*
%TD*%
%TO.C,R15*%
G36*
G01*
X144697000Y-13483000D02*
X144697000Y-12933000D01*
G75*
G02*
X144897000Y-12733000I200000J0D01*
G01*
X145297000Y-12733000D01*
G75*
G02*
X145497000Y-12933000I0J-200000D01*
G01*
X145497000Y-13483000D01*
G75*
G02*
X145297000Y-13683000I-200000J0D01*
G01*
X144897000Y-13683000D01*
G75*
G02*
X144697000Y-13483000I0J200000D01*
G01*
G37*
G36*
G01*
X143047000Y-13483000D02*
X143047000Y-12933000D01*
G75*
G02*
X143247000Y-12733000I200000J0D01*
G01*
X143647000Y-12733000D01*
G75*
G02*
X143847000Y-12933000I0J-200000D01*
G01*
X143847000Y-13483000D01*
G75*
G02*
X143647000Y-13683000I-200000J0D01*
G01*
X143247000Y-13683000D01*
G75*
G02*
X143047000Y-13483000I0J200000D01*
G01*
G37*
%TD*%
%TO.C,R14*%
G36*
G01*
X230207000Y-17251000D02*
X230207000Y-17801000D01*
G75*
G02*
X230007000Y-18001000I-200000J0D01*
G01*
X229607000Y-18001000D01*
G75*
G02*
X229407000Y-17801000I0J200000D01*
G01*
X229407000Y-17251000D01*
G75*
G02*
X229607000Y-17051000I200000J0D01*
G01*
X230007000Y-17051000D01*
G75*
G02*
X230207000Y-17251000I0J-200000D01*
G01*
G37*
G36*
G01*
X231857000Y-17251000D02*
X231857000Y-17801000D01*
G75*
G02*
X231657000Y-18001000I-200000J0D01*
G01*
X231257000Y-18001000D01*
G75*
G02*
X231057000Y-17801000I0J200000D01*
G01*
X231057000Y-17251000D01*
G75*
G02*
X231257000Y-17051000I200000J0D01*
G01*
X231657000Y-17051000D01*
G75*
G02*
X231857000Y-17251000I0J-200000D01*
G01*
G37*
%TD*%
%TO.C,R13*%
G36*
G01*
X144697000Y-18309000D02*
X144697000Y-17759000D01*
G75*
G02*
X144897000Y-17559000I200000J0D01*
G01*
X145297000Y-17559000D01*
G75*
G02*
X145497000Y-17759000I0J-200000D01*
G01*
X145497000Y-18309000D01*
G75*
G02*
X145297000Y-18509000I-200000J0D01*
G01*
X144897000Y-18509000D01*
G75*
G02*
X144697000Y-18309000I0J200000D01*
G01*
G37*
G36*
G01*
X143047000Y-18309000D02*
X143047000Y-17759000D01*
G75*
G02*
X143247000Y-17559000I200000J0D01*
G01*
X143647000Y-17559000D01*
G75*
G02*
X143847000Y-17759000I0J-200000D01*
G01*
X143847000Y-18309000D01*
G75*
G02*
X143647000Y-18509000I-200000J0D01*
G01*
X143247000Y-18509000D01*
G75*
G02*
X143047000Y-18309000I0J200000D01*
G01*
G37*
%TD*%
%TO.C,R12*%
G36*
G01*
X322601000Y-19578000D02*
X322051000Y-19578000D01*
G75*
G02*
X321851000Y-19378000I0J200000D01*
G01*
X321851000Y-18978000D01*
G75*
G02*
X322051000Y-18778000I200000J0D01*
G01*
X322601000Y-18778000D01*
G75*
G02*
X322801000Y-18978000I0J-200000D01*
G01*
X322801000Y-19378000D01*
G75*
G02*
X322601000Y-19578000I-200000J0D01*
G01*
G37*
G36*
G01*
X322601000Y-21228000D02*
X322051000Y-21228000D01*
G75*
G02*
X321851000Y-21028000I0J200000D01*
G01*
X321851000Y-20628000D01*
G75*
G02*
X322051000Y-20428000I200000J0D01*
G01*
X322601000Y-20428000D01*
G75*
G02*
X322801000Y-20628000I0J-200000D01*
G01*
X322801000Y-21028000D01*
G75*
G02*
X322601000Y-21228000I-200000J0D01*
G01*
G37*
%TD*%
%TO.C,R11*%
G36*
G01*
X71903000Y-22689000D02*
X71353000Y-22689000D01*
G75*
G02*
X71153000Y-22489000I0J200000D01*
G01*
X71153000Y-22089000D01*
G75*
G02*
X71353000Y-21889000I200000J0D01*
G01*
X71903000Y-21889000D01*
G75*
G02*
X72103000Y-22089000I0J-200000D01*
G01*
X72103000Y-22489000D01*
G75*
G02*
X71903000Y-22689000I-200000J0D01*
G01*
G37*
G36*
G01*
X71903000Y-24339000D02*
X71353000Y-24339000D01*
G75*
G02*
X71153000Y-24139000I0J200000D01*
G01*
X71153000Y-23739000D01*
G75*
G02*
X71353000Y-23539000I200000J0D01*
G01*
X71903000Y-23539000D01*
G75*
G02*
X72103000Y-23739000I0J-200000D01*
G01*
X72103000Y-24139000D01*
G75*
G02*
X71903000Y-24339000I-200000J0D01*
G01*
G37*
%TD*%
%TO.C,R10*%
G36*
G01*
X297667000Y-22269000D02*
X298217000Y-22269000D01*
G75*
G02*
X298417000Y-22469000I0J-200000D01*
G01*
X298417000Y-22869000D01*
G75*
G02*
X298217000Y-23069000I-200000J0D01*
G01*
X297667000Y-23069000D01*
G75*
G02*
X297467000Y-22869000I0J200000D01*
G01*
X297467000Y-22469000D01*
G75*
G02*
X297667000Y-22269000I200000J0D01*
G01*
G37*
G36*
G01*
X297667000Y-20619000D02*
X298217000Y-20619000D01*
G75*
G02*
X298417000Y-20819000I0J-200000D01*
G01*
X298417000Y-21219000D01*
G75*
G02*
X298217000Y-21419000I-200000J0D01*
G01*
X297667000Y-21419000D01*
G75*
G02*
X297467000Y-21219000I0J200000D01*
G01*
X297467000Y-20819000D01*
G75*
G02*
X297667000Y-20619000I200000J0D01*
G01*
G37*
%TD*%
%TO.C,R9*%
G36*
G01*
X51479000Y-25675000D02*
X51479000Y-25125000D01*
G75*
G02*
X51679000Y-24925000I200000J0D01*
G01*
X52079000Y-24925000D01*
G75*
G02*
X52279000Y-25125000I0J-200000D01*
G01*
X52279000Y-25675000D01*
G75*
G02*
X52079000Y-25875000I-200000J0D01*
G01*
X51679000Y-25875000D01*
G75*
G02*
X51479000Y-25675000I0J200000D01*
G01*
G37*
G36*
G01*
X49829000Y-25675000D02*
X49829000Y-25125000D01*
G75*
G02*
X50029000Y-24925000I200000J0D01*
G01*
X50429000Y-24925000D01*
G75*
G02*
X50629000Y-25125000I0J-200000D01*
G01*
X50629000Y-25675000D01*
G75*
G02*
X50429000Y-25875000I-200000J0D01*
G01*
X50029000Y-25875000D01*
G75*
G02*
X49829000Y-25675000I0J200000D01*
G01*
G37*
%TD*%
%TO.C,R8*%
G36*
G01*
X337991000Y-15261000D02*
X337991000Y-14711000D01*
G75*
G02*
X338191000Y-14511000I200000J0D01*
G01*
X338591000Y-14511000D01*
G75*
G02*
X338791000Y-14711000I0J-200000D01*
G01*
X338791000Y-15261000D01*
G75*
G02*
X338591000Y-15461000I-200000J0D01*
G01*
X338191000Y-15461000D01*
G75*
G02*
X337991000Y-15261000I0J200000D01*
G01*
G37*
G36*
G01*
X336341000Y-15261000D02*
X336341000Y-14711000D01*
G75*
G02*
X336541000Y-14511000I200000J0D01*
G01*
X336941000Y-14511000D01*
G75*
G02*
X337141000Y-14711000I0J-200000D01*
G01*
X337141000Y-15261000D01*
G75*
G02*
X336941000Y-15461000I-200000J0D01*
G01*
X336541000Y-15461000D01*
G75*
G02*
X336341000Y-15261000I0J200000D01*
G01*
G37*
%TD*%
%TO.C,R7*%
G36*
G01*
X36913000Y-20299000D02*
X36913000Y-20849000D01*
G75*
G02*
X36713000Y-21049000I-200000J0D01*
G01*
X36313000Y-21049000D01*
G75*
G02*
X36113000Y-20849000I0J200000D01*
G01*
X36113000Y-20299000D01*
G75*
G02*
X36313000Y-20099000I200000J0D01*
G01*
X36713000Y-20099000D01*
G75*
G02*
X36913000Y-20299000I0J-200000D01*
G01*
G37*
G36*
G01*
X38563000Y-20299000D02*
X38563000Y-20849000D01*
G75*
G02*
X38363000Y-21049000I-200000J0D01*
G01*
X37963000Y-21049000D01*
G75*
G02*
X37763000Y-20849000I0J200000D01*
G01*
X37763000Y-20299000D01*
G75*
G02*
X37963000Y-20099000I200000J0D01*
G01*
X38363000Y-20099000D01*
G75*
G02*
X38563000Y-20299000I0J-200000D01*
G01*
G37*
%TD*%
%TO.C,R6*%
G36*
G01*
X337991000Y-18309000D02*
X337991000Y-17759000D01*
G75*
G02*
X338191000Y-17559000I200000J0D01*
G01*
X338591000Y-17559000D01*
G75*
G02*
X338791000Y-17759000I0J-200000D01*
G01*
X338791000Y-18309000D01*
G75*
G02*
X338591000Y-18509000I-200000J0D01*
G01*
X338191000Y-18509000D01*
G75*
G02*
X337991000Y-18309000I0J200000D01*
G01*
G37*
G36*
G01*
X336341000Y-18309000D02*
X336341000Y-17759000D01*
G75*
G02*
X336541000Y-17559000I200000J0D01*
G01*
X336941000Y-17559000D01*
G75*
G02*
X337141000Y-17759000I0J-200000D01*
G01*
X337141000Y-18309000D01*
G75*
G02*
X336941000Y-18509000I-200000J0D01*
G01*
X336541000Y-18509000D01*
G75*
G02*
X336341000Y-18309000I0J200000D01*
G01*
G37*
%TD*%
%TO.C,R5*%
G36*
G01*
X35389000Y-15981000D02*
X35389000Y-16531000D01*
G75*
G02*
X35189000Y-16731000I-200000J0D01*
G01*
X34789000Y-16731000D01*
G75*
G02*
X34589000Y-16531000I0J200000D01*
G01*
X34589000Y-15981000D01*
G75*
G02*
X34789000Y-15781000I200000J0D01*
G01*
X35189000Y-15781000D01*
G75*
G02*
X35389000Y-15981000I0J-200000D01*
G01*
G37*
G36*
G01*
X37039000Y-15981000D02*
X37039000Y-16531000D01*
G75*
G02*
X36839000Y-16731000I-200000J0D01*
G01*
X36439000Y-16731000D01*
G75*
G02*
X36239000Y-16531000I0J200000D01*
G01*
X36239000Y-15981000D01*
G75*
G02*
X36439000Y-15781000I200000J0D01*
G01*
X36839000Y-15781000D01*
G75*
G02*
X37039000Y-15981000I0J-200000D01*
G01*
G37*
%TD*%
%TO.C,R4*%
G36*
G01*
X339769000Y-22627000D02*
X339769000Y-22077000D01*
G75*
G02*
X339969000Y-21877000I200000J0D01*
G01*
X340369000Y-21877000D01*
G75*
G02*
X340569000Y-22077000I0J-200000D01*
G01*
X340569000Y-22627000D01*
G75*
G02*
X340369000Y-22827000I-200000J0D01*
G01*
X339969000Y-22827000D01*
G75*
G02*
X339769000Y-22627000I0J200000D01*
G01*
G37*
G36*
G01*
X338119000Y-22627000D02*
X338119000Y-22077000D01*
G75*
G02*
X338319000Y-21877000I200000J0D01*
G01*
X338719000Y-21877000D01*
G75*
G02*
X338919000Y-22077000I0J-200000D01*
G01*
X338919000Y-22627000D01*
G75*
G02*
X338719000Y-22827000I-200000J0D01*
G01*
X338319000Y-22827000D01*
G75*
G02*
X338119000Y-22627000I0J200000D01*
G01*
G37*
%TD*%
%TO.C,R3*%
G36*
G01*
X36239000Y-13483000D02*
X36239000Y-12933000D01*
G75*
G02*
X36439000Y-12733000I200000J0D01*
G01*
X36839000Y-12733000D01*
G75*
G02*
X37039000Y-12933000I0J-200000D01*
G01*
X37039000Y-13483000D01*
G75*
G02*
X36839000Y-13683000I-200000J0D01*
G01*
X36439000Y-13683000D01*
G75*
G02*
X36239000Y-13483000I0J200000D01*
G01*
G37*
G36*
G01*
X34589000Y-13483000D02*
X34589000Y-12933000D01*
G75*
G02*
X34789000Y-12733000I200000J0D01*
G01*
X35189000Y-12733000D01*
G75*
G02*
X35389000Y-12933000I0J-200000D01*
G01*
X35389000Y-13483000D01*
G75*
G02*
X35189000Y-13683000I-200000J0D01*
G01*
X34789000Y-13683000D01*
G75*
G02*
X34589000Y-13483000I0J200000D01*
G01*
G37*
%TD*%
%TO.C,R2*%
G36*
G01*
X339577000Y-16173000D02*
X340127000Y-16173000D01*
G75*
G02*
X340327000Y-16373000I0J-200000D01*
G01*
X340327000Y-16773000D01*
G75*
G02*
X340127000Y-16973000I-200000J0D01*
G01*
X339577000Y-16973000D01*
G75*
G02*
X339377000Y-16773000I0J200000D01*
G01*
X339377000Y-16373000D01*
G75*
G02*
X339577000Y-16173000I200000J0D01*
G01*
G37*
G36*
G01*
X339577000Y-14523000D02*
X340127000Y-14523000D01*
G75*
G02*
X340327000Y-14723000I0J-200000D01*
G01*
X340327000Y-15123000D01*
G75*
G02*
X340127000Y-15323000I-200000J0D01*
G01*
X339577000Y-15323000D01*
G75*
G02*
X339377000Y-15123000I0J200000D01*
G01*
X339377000Y-14723000D01*
G75*
G02*
X339577000Y-14523000I200000J0D01*
G01*
G37*
%TD*%
%TO.C,R1*%
G36*
G01*
X35327000Y-19387000D02*
X34777000Y-19387000D01*
G75*
G02*
X34577000Y-19187000I0J200000D01*
G01*
X34577000Y-18787000D01*
G75*
G02*
X34777000Y-18587000I200000J0D01*
G01*
X35327000Y-18587000D01*
G75*
G02*
X35527000Y-18787000I0J-200000D01*
G01*
X35527000Y-19187000D01*
G75*
G02*
X35327000Y-19387000I-200000J0D01*
G01*
G37*
G36*
G01*
X35327000Y-21037000D02*
X34777000Y-21037000D01*
G75*
G02*
X34577000Y-20837000I0J200000D01*
G01*
X34577000Y-20437000D01*
G75*
G02*
X34777000Y-20237000I200000J0D01*
G01*
X35327000Y-20237000D01*
G75*
G02*
X35527000Y-20437000I0J-200000D01*
G01*
X35527000Y-20837000D01*
G75*
G02*
X35327000Y-21037000I-200000J0D01*
G01*
G37*
%TD*%
D13*
%TO.C,J6*%
X227778000Y-15530000D03*
X227778000Y-17030000D03*
X227778000Y-16530000D03*
X227778000Y-16030000D03*
X227778000Y-15030000D03*
X227778000Y-17530000D03*
X227778000Y-18030000D03*
X227778000Y-18530000D03*
X227778000Y-19030000D03*
X227778000Y-19530000D03*
X227778000Y-20030000D03*
X227778000Y-20530000D03*
%TD*%
%TO.C,J5*%
X147126000Y-20030000D03*
X147126000Y-18530000D03*
X147126000Y-19030000D03*
X147126000Y-19530000D03*
X147126000Y-20530000D03*
X147126000Y-18030000D03*
X147126000Y-17530000D03*
X147126000Y-17030000D03*
X147126000Y-16530000D03*
X147126000Y-16030000D03*
X147126000Y-15530000D03*
X147126000Y-15030000D03*
%TD*%
%TO.C,J2*%
X341690000Y-20030000D03*
X341690000Y-18530000D03*
X341690000Y-19030000D03*
X341690000Y-19530000D03*
X341690000Y-20530000D03*
X341690000Y-18030000D03*
X341690000Y-17530000D03*
X341690000Y-17030000D03*
X341690000Y-16530000D03*
X341690000Y-16030000D03*
X341690000Y-15530000D03*
X341690000Y-15030000D03*
%TD*%
%TO.C,J1*%
X33214000Y-15530000D03*
X33214000Y-17030000D03*
X33214000Y-16530000D03*
X33214000Y-16030000D03*
X33214000Y-15030000D03*
X33214000Y-17530000D03*
X33214000Y-18030000D03*
X33214000Y-18530000D03*
X33214000Y-19030000D03*
X33214000Y-19530000D03*
X33214000Y-20030000D03*
X33214000Y-20530000D03*
%TD*%
%TO.C,C16*%
G36*
G01*
X305240000Y-10514500D02*
X305240000Y-10313500D01*
G75*
G02*
X305319500Y-10234000I79500J0D01*
G01*
X305478500Y-10234000D01*
G75*
G02*
X305558000Y-10313500I0J-79500D01*
G01*
X305558000Y-10514500D01*
G75*
G02*
X305478500Y-10594000I-79500J0D01*
G01*
X305319500Y-10594000D01*
G75*
G02*
X305240000Y-10514500I0J79500D01*
G01*
G37*
G36*
G01*
X304550000Y-10514500D02*
X304550000Y-10313500D01*
G75*
G02*
X304629500Y-10234000I79500J0D01*
G01*
X304788500Y-10234000D01*
G75*
G02*
X304868000Y-10313500I0J-79500D01*
G01*
X304868000Y-10514500D01*
G75*
G02*
X304788500Y-10594000I-79500J0D01*
G01*
X304629500Y-10594000D01*
G75*
G02*
X304550000Y-10514500I0J79500D01*
G01*
G37*
%TD*%
%TO.C,C15*%
G36*
G01*
X57148000Y-10514500D02*
X57148000Y-10313500D01*
G75*
G02*
X57227500Y-10234000I79500J0D01*
G01*
X57386500Y-10234000D01*
G75*
G02*
X57466000Y-10313500I0J-79500D01*
G01*
X57466000Y-10514500D01*
G75*
G02*
X57386500Y-10594000I-79500J0D01*
G01*
X57227500Y-10594000D01*
G75*
G02*
X57148000Y-10514500I0J79500D01*
G01*
G37*
G36*
G01*
X56458000Y-10514500D02*
X56458000Y-10313500D01*
G75*
G02*
X56537500Y-10234000I79500J0D01*
G01*
X56696500Y-10234000D01*
G75*
G02*
X56776000Y-10313500I0J-79500D01*
G01*
X56776000Y-10514500D01*
G75*
G02*
X56696500Y-10594000I-79500J0D01*
G01*
X56537500Y-10594000D01*
G75*
G02*
X56458000Y-10514500I0J79500D01*
G01*
G37*
%TD*%
%TO.C,C14*%
G36*
G01*
X316330500Y-23690000D02*
X316129500Y-23690000D01*
G75*
G02*
X316050000Y-23610500I0J79500D01*
G01*
X316050000Y-23451500D01*
G75*
G02*
X316129500Y-23372000I79500J0D01*
G01*
X316330500Y-23372000D01*
G75*
G02*
X316410000Y-23451500I0J-79500D01*
G01*
X316410000Y-23610500D01*
G75*
G02*
X316330500Y-23690000I-79500J0D01*
G01*
G37*
G36*
G01*
X316330500Y-24380000D02*
X316129500Y-24380000D01*
G75*
G02*
X316050000Y-24300500I0J79500D01*
G01*
X316050000Y-24141500D01*
G75*
G02*
X316129500Y-24062000I79500J0D01*
G01*
X316330500Y-24062000D01*
G75*
G02*
X316410000Y-24141500I0J-79500D01*
G01*
X316410000Y-24300500D01*
G75*
G02*
X316330500Y-24380000I-79500J0D01*
G01*
G37*
%TD*%
%TO.C,C13*%
G36*
G01*
X65886500Y-23436000D02*
X65685500Y-23436000D01*
G75*
G02*
X65606000Y-23356500I0J79500D01*
G01*
X65606000Y-23197500D01*
G75*
G02*
X65685500Y-23118000I79500J0D01*
G01*
X65886500Y-23118000D01*
G75*
G02*
X65966000Y-23197500I0J-79500D01*
G01*
X65966000Y-23356500D01*
G75*
G02*
X65886500Y-23436000I-79500J0D01*
G01*
G37*
G36*
G01*
X65886500Y-24126000D02*
X65685500Y-24126000D01*
G75*
G02*
X65606000Y-24046500I0J79500D01*
G01*
X65606000Y-23887500D01*
G75*
G02*
X65685500Y-23808000I79500J0D01*
G01*
X65886500Y-23808000D01*
G75*
G02*
X65966000Y-23887500I0J-79500D01*
G01*
X65966000Y-24046500D01*
G75*
G02*
X65886500Y-24126000I-79500J0D01*
G01*
G37*
%TD*%
%TO.C,C12*%
G36*
G01*
X315367500Y-24062000D02*
X315568500Y-24062000D01*
G75*
G02*
X315648000Y-24141500I0J-79500D01*
G01*
X315648000Y-24300500D01*
G75*
G02*
X315568500Y-24380000I-79500J0D01*
G01*
X315367500Y-24380000D01*
G75*
G02*
X315288000Y-24300500I0J79500D01*
G01*
X315288000Y-24141500D01*
G75*
G02*
X315367500Y-24062000I79500J0D01*
G01*
G37*
G36*
G01*
X315367500Y-23372000D02*
X315568500Y-23372000D01*
G75*
G02*
X315648000Y-23451500I0J-79500D01*
G01*
X315648000Y-23610500D01*
G75*
G02*
X315568500Y-23690000I-79500J0D01*
G01*
X315367500Y-23690000D01*
G75*
G02*
X315288000Y-23610500I0J79500D01*
G01*
X315288000Y-23451500D01*
G75*
G02*
X315367500Y-23372000I79500J0D01*
G01*
G37*
%TD*%
%TO.C,C11*%
G36*
G01*
X64923500Y-23808000D02*
X65124500Y-23808000D01*
G75*
G02*
X65204000Y-23887500I0J-79500D01*
G01*
X65204000Y-24046500D01*
G75*
G02*
X65124500Y-24126000I-79500J0D01*
G01*
X64923500Y-24126000D01*
G75*
G02*
X64844000Y-24046500I0J79500D01*
G01*
X64844000Y-23887500D01*
G75*
G02*
X64923500Y-23808000I79500J0D01*
G01*
G37*
G36*
G01*
X64923500Y-23118000D02*
X65124500Y-23118000D01*
G75*
G02*
X65204000Y-23197500I0J-79500D01*
G01*
X65204000Y-23356500D01*
G75*
G02*
X65124500Y-23436000I-79500J0D01*
G01*
X64923500Y-23436000D01*
G75*
G02*
X64844000Y-23356500I0J79500D01*
G01*
X64844000Y-23197500D01*
G75*
G02*
X64923500Y-23118000I79500J0D01*
G01*
G37*
%TD*%
%TO.C,C10*%
G36*
G01*
X336957500Y-22284000D02*
X337158500Y-22284000D01*
G75*
G02*
X337238000Y-22363500I0J-79500D01*
G01*
X337238000Y-22522500D01*
G75*
G02*
X337158500Y-22602000I-79500J0D01*
G01*
X336957500Y-22602000D01*
G75*
G02*
X336878000Y-22522500I0J79500D01*
G01*
X336878000Y-22363500D01*
G75*
G02*
X336957500Y-22284000I79500J0D01*
G01*
G37*
G36*
G01*
X336957500Y-21594000D02*
X337158500Y-21594000D01*
G75*
G02*
X337238000Y-21673500I0J-79500D01*
G01*
X337238000Y-21832500D01*
G75*
G02*
X337158500Y-21912000I-79500J0D01*
G01*
X336957500Y-21912000D01*
G75*
G02*
X336878000Y-21832500I0J79500D01*
G01*
X336878000Y-21673500D01*
G75*
G02*
X336957500Y-21594000I79500J0D01*
G01*
G37*
%TD*%
%TO.C,C9*%
G36*
G01*
X335941500Y-22284000D02*
X336142500Y-22284000D01*
G75*
G02*
X336222000Y-22363500I0J-79500D01*
G01*
X336222000Y-22522500D01*
G75*
G02*
X336142500Y-22602000I-79500J0D01*
G01*
X335941500Y-22602000D01*
G75*
G02*
X335862000Y-22522500I0J79500D01*
G01*
X335862000Y-22363500D01*
G75*
G02*
X335941500Y-22284000I79500J0D01*
G01*
G37*
G36*
G01*
X335941500Y-21594000D02*
X336142500Y-21594000D01*
G75*
G02*
X336222000Y-21673500I0J-79500D01*
G01*
X336222000Y-21832500D01*
G75*
G02*
X336142500Y-21912000I-79500J0D01*
G01*
X335941500Y-21912000D01*
G75*
G02*
X335862000Y-21832500I0J79500D01*
G01*
X335862000Y-21673500D01*
G75*
G02*
X335941500Y-21594000I79500J0D01*
G01*
G37*
%TD*%
%TO.C,C8*%
G36*
G01*
X334925500Y-22284000D02*
X335126500Y-22284000D01*
G75*
G02*
X335206000Y-22363500I0J-79500D01*
G01*
X335206000Y-22522500D01*
G75*
G02*
X335126500Y-22602000I-79500J0D01*
G01*
X334925500Y-22602000D01*
G75*
G02*
X334846000Y-22522500I0J79500D01*
G01*
X334846000Y-22363500D01*
G75*
G02*
X334925500Y-22284000I79500J0D01*
G01*
G37*
G36*
G01*
X334925500Y-21594000D02*
X335126500Y-21594000D01*
G75*
G02*
X335206000Y-21673500I0J-79500D01*
G01*
X335206000Y-21832500D01*
G75*
G02*
X335126500Y-21912000I-79500J0D01*
G01*
X334925500Y-21912000D01*
G75*
G02*
X334846000Y-21832500I0J79500D01*
G01*
X334846000Y-21673500D01*
G75*
G02*
X334925500Y-21594000I79500J0D01*
G01*
G37*
%TD*%
%TO.C,C7*%
G36*
G01*
X333909500Y-22284000D02*
X334110500Y-22284000D01*
G75*
G02*
X334190000Y-22363500I0J-79500D01*
G01*
X334190000Y-22522500D01*
G75*
G02*
X334110500Y-22602000I-79500J0D01*
G01*
X333909500Y-22602000D01*
G75*
G02*
X333830000Y-22522500I0J79500D01*
G01*
X333830000Y-22363500D01*
G75*
G02*
X333909500Y-22284000I79500J0D01*
G01*
G37*
G36*
G01*
X333909500Y-21594000D02*
X334110500Y-21594000D01*
G75*
G02*
X334190000Y-21673500I0J-79500D01*
G01*
X334190000Y-21832500D01*
G75*
G02*
X334110500Y-21912000I-79500J0D01*
G01*
X333909500Y-21912000D01*
G75*
G02*
X333830000Y-21832500I0J79500D01*
G01*
X333830000Y-21673500D01*
G75*
G02*
X333909500Y-21594000I79500J0D01*
G01*
G37*
%TD*%
%TO.C,C4*%
G36*
G01*
X41502500Y-14546000D02*
X41301500Y-14546000D01*
G75*
G02*
X41222000Y-14466500I0J79500D01*
G01*
X41222000Y-14307500D01*
G75*
G02*
X41301500Y-14228000I79500J0D01*
G01*
X41502500Y-14228000D01*
G75*
G02*
X41582000Y-14307500I0J-79500D01*
G01*
X41582000Y-14466500D01*
G75*
G02*
X41502500Y-14546000I-79500J0D01*
G01*
G37*
G36*
G01*
X41502500Y-15236000D02*
X41301500Y-15236000D01*
G75*
G02*
X41222000Y-15156500I0J79500D01*
G01*
X41222000Y-14997500D01*
G75*
G02*
X41301500Y-14918000I79500J0D01*
G01*
X41502500Y-14918000D01*
G75*
G02*
X41582000Y-14997500I0J-79500D01*
G01*
X41582000Y-15156500D01*
G75*
G02*
X41502500Y-15236000I-79500J0D01*
G01*
G37*
%TD*%
%TO.C,C3*%
G36*
G01*
X40486500Y-14546000D02*
X40285500Y-14546000D01*
G75*
G02*
X40206000Y-14466500I0J79500D01*
G01*
X40206000Y-14307500D01*
G75*
G02*
X40285500Y-14228000I79500J0D01*
G01*
X40486500Y-14228000D01*
G75*
G02*
X40566000Y-14307500I0J-79500D01*
G01*
X40566000Y-14466500D01*
G75*
G02*
X40486500Y-14546000I-79500J0D01*
G01*
G37*
G36*
G01*
X40486500Y-15236000D02*
X40285500Y-15236000D01*
G75*
G02*
X40206000Y-15156500I0J79500D01*
G01*
X40206000Y-14997500D01*
G75*
G02*
X40285500Y-14918000I79500J0D01*
G01*
X40486500Y-14918000D01*
G75*
G02*
X40566000Y-14997500I0J-79500D01*
G01*
X40566000Y-15156500D01*
G75*
G02*
X40486500Y-15236000I-79500J0D01*
G01*
G37*
%TD*%
%TO.C,C2*%
G36*
G01*
X39470500Y-14546000D02*
X39269500Y-14546000D01*
G75*
G02*
X39190000Y-14466500I0J79500D01*
G01*
X39190000Y-14307500D01*
G75*
G02*
X39269500Y-14228000I79500J0D01*
G01*
X39470500Y-14228000D01*
G75*
G02*
X39550000Y-14307500I0J-79500D01*
G01*
X39550000Y-14466500D01*
G75*
G02*
X39470500Y-14546000I-79500J0D01*
G01*
G37*
G36*
G01*
X39470500Y-15236000D02*
X39269500Y-15236000D01*
G75*
G02*
X39190000Y-15156500I0J79500D01*
G01*
X39190000Y-14997500D01*
G75*
G02*
X39269500Y-14918000I79500J0D01*
G01*
X39470500Y-14918000D01*
G75*
G02*
X39550000Y-14997500I0J-79500D01*
G01*
X39550000Y-15156500D01*
G75*
G02*
X39470500Y-15236000I-79500J0D01*
G01*
G37*
%TD*%
%TO.C,C1*%
G36*
G01*
X38454500Y-14546000D02*
X38253500Y-14546000D01*
G75*
G02*
X38174000Y-14466500I0J79500D01*
G01*
X38174000Y-14307500D01*
G75*
G02*
X38253500Y-14228000I79500J0D01*
G01*
X38454500Y-14228000D01*
G75*
G02*
X38534000Y-14307500I0J-79500D01*
G01*
X38534000Y-14466500D01*
G75*
G02*
X38454500Y-14546000I-79500J0D01*
G01*
G37*
G36*
G01*
X38454500Y-15236000D02*
X38253500Y-15236000D01*
G75*
G02*
X38174000Y-15156500I0J79500D01*
G01*
X38174000Y-14997500D01*
G75*
G02*
X38253500Y-14918000I79500J0D01*
G01*
X38454500Y-14918000D01*
G75*
G02*
X38534000Y-14997500I0J-79500D01*
G01*
X38534000Y-15156500D01*
G75*
G02*
X38454500Y-15236000I-79500J0D01*
G01*
G37*
%TD*%
%TO.C,D1*%
G36*
G01*
X29393750Y-28350000D02*
X29906250Y-28350000D01*
G75*
G02*
X30125000Y-28568750I0J-218750D01*
G01*
X30125000Y-29006250D01*
G75*
G02*
X29906250Y-29225000I-218750J0D01*
G01*
X29393750Y-29225000D01*
G75*
G02*
X29175000Y-29006250I0J218750D01*
G01*
X29175000Y-28568750D01*
G75*
G02*
X29393750Y-28350000I218750J0D01*
G01*
G37*
G36*
G01*
X29393750Y-26775000D02*
X29906250Y-26775000D01*
G75*
G02*
X30125000Y-26993750I0J-218750D01*
G01*
X30125000Y-27431250D01*
G75*
G02*
X29906250Y-27650000I-218750J0D01*
G01*
X29393750Y-27650000D01*
G75*
G02*
X29175000Y-27431250I0J218750D01*
G01*
X29175000Y-26993750D01*
G75*
G02*
X29393750Y-26775000I218750J0D01*
G01*
G37*
%TD*%
%TO.C,D2*%
G36*
G01*
X48393750Y-28350000D02*
X48906250Y-28350000D01*
G75*
G02*
X49125000Y-28568750I0J-218750D01*
G01*
X49125000Y-29006250D01*
G75*
G02*
X48906250Y-29225000I-218750J0D01*
G01*
X48393750Y-29225000D01*
G75*
G02*
X48175000Y-29006250I0J218750D01*
G01*
X48175000Y-28568750D01*
G75*
G02*
X48393750Y-28350000I218750J0D01*
G01*
G37*
G36*
G01*
X48393750Y-26775000D02*
X48906250Y-26775000D01*
G75*
G02*
X49125000Y-26993750I0J-218750D01*
G01*
X49125000Y-27431250D01*
G75*
G02*
X48906250Y-27650000I-218750J0D01*
G01*
X48393750Y-27650000D01*
G75*
G02*
X48175000Y-27431250I0J218750D01*
G01*
X48175000Y-26993750D01*
G75*
G02*
X48393750Y-26775000I218750J0D01*
G01*
G37*
%TD*%
%TO.C,D3*%
G36*
G01*
X67393750Y-28350000D02*
X67906250Y-28350000D01*
G75*
G02*
X68125000Y-28568750I0J-218750D01*
G01*
X68125000Y-29006250D01*
G75*
G02*
X67906250Y-29225000I-218750J0D01*
G01*
X67393750Y-29225000D01*
G75*
G02*
X67175000Y-29006250I0J218750D01*
G01*
X67175000Y-28568750D01*
G75*
G02*
X67393750Y-28350000I218750J0D01*
G01*
G37*
G36*
G01*
X67393750Y-26775000D02*
X67906250Y-26775000D01*
G75*
G02*
X68125000Y-26993750I0J-218750D01*
G01*
X68125000Y-27431250D01*
G75*
G02*
X67906250Y-27650000I-218750J0D01*
G01*
X67393750Y-27650000D01*
G75*
G02*
X67175000Y-27431250I0J218750D01*
G01*
X67175000Y-26993750D01*
G75*
G02*
X67393750Y-26775000I218750J0D01*
G01*
G37*
%TD*%
%TO.C,D4*%
G36*
G01*
X86393750Y-26775000D02*
X86906250Y-26775000D01*
G75*
G02*
X87125000Y-26993750I0J-218750D01*
G01*
X87125000Y-27431250D01*
G75*
G02*
X86906250Y-27650000I-218750J0D01*
G01*
X86393750Y-27650000D01*
G75*
G02*
X86175000Y-27431250I0J218750D01*
G01*
X86175000Y-26993750D01*
G75*
G02*
X86393750Y-26775000I218750J0D01*
G01*
G37*
G36*
G01*
X86393750Y-28350000D02*
X86906250Y-28350000D01*
G75*
G02*
X87125000Y-28568750I0J-218750D01*
G01*
X87125000Y-29006250D01*
G75*
G02*
X86906250Y-29225000I-218750J0D01*
G01*
X86393750Y-29225000D01*
G75*
G02*
X86175000Y-29006250I0J218750D01*
G01*
X86175000Y-28568750D01*
G75*
G02*
X86393750Y-28350000I218750J0D01*
G01*
G37*
%TD*%
%TO.C,D5*%
G36*
G01*
X105393750Y-26775000D02*
X105906250Y-26775000D01*
G75*
G02*
X106125000Y-26993750I0J-218750D01*
G01*
X106125000Y-27431250D01*
G75*
G02*
X105906250Y-27650000I-218750J0D01*
G01*
X105393750Y-27650000D01*
G75*
G02*
X105175000Y-27431250I0J218750D01*
G01*
X105175000Y-26993750D01*
G75*
G02*
X105393750Y-26775000I218750J0D01*
G01*
G37*
G36*
G01*
X105393750Y-28350000D02*
X105906250Y-28350000D01*
G75*
G02*
X106125000Y-28568750I0J-218750D01*
G01*
X106125000Y-29006250D01*
G75*
G02*
X105906250Y-29225000I-218750J0D01*
G01*
X105393750Y-29225000D01*
G75*
G02*
X105175000Y-29006250I0J218750D01*
G01*
X105175000Y-28568750D01*
G75*
G02*
X105393750Y-28350000I218750J0D01*
G01*
G37*
%TD*%
%TO.C,D6*%
G36*
G01*
X124393750Y-28350000D02*
X124906250Y-28350000D01*
G75*
G02*
X125125000Y-28568750I0J-218750D01*
G01*
X125125000Y-29006250D01*
G75*
G02*
X124906250Y-29225000I-218750J0D01*
G01*
X124393750Y-29225000D01*
G75*
G02*
X124175000Y-29006250I0J218750D01*
G01*
X124175000Y-28568750D01*
G75*
G02*
X124393750Y-28350000I218750J0D01*
G01*
G37*
G36*
G01*
X124393750Y-26775000D02*
X124906250Y-26775000D01*
G75*
G02*
X125125000Y-26993750I0J-218750D01*
G01*
X125125000Y-27431250D01*
G75*
G02*
X124906250Y-27650000I-218750J0D01*
G01*
X124393750Y-27650000D01*
G75*
G02*
X124175000Y-27431250I0J218750D01*
G01*
X124175000Y-26993750D01*
G75*
G02*
X124393750Y-26775000I218750J0D01*
G01*
G37*
%TD*%
%TO.C,D7*%
G36*
G01*
X143393750Y-28350000D02*
X143906250Y-28350000D01*
G75*
G02*
X144125000Y-28568750I0J-218750D01*
G01*
X144125000Y-29006250D01*
G75*
G02*
X143906250Y-29225000I-218750J0D01*
G01*
X143393750Y-29225000D01*
G75*
G02*
X143175000Y-29006250I0J218750D01*
G01*
X143175000Y-28568750D01*
G75*
G02*
X143393750Y-28350000I218750J0D01*
G01*
G37*
G36*
G01*
X143393750Y-26775000D02*
X143906250Y-26775000D01*
G75*
G02*
X144125000Y-26993750I0J-218750D01*
G01*
X144125000Y-27431250D01*
G75*
G02*
X143906250Y-27650000I-218750J0D01*
G01*
X143393750Y-27650000D01*
G75*
G02*
X143175000Y-27431250I0J218750D01*
G01*
X143175000Y-26993750D01*
G75*
G02*
X143393750Y-26775000I218750J0D01*
G01*
G37*
%TD*%
%TO.C,D8*%
G36*
G01*
X223393750Y-28350000D02*
X223906250Y-28350000D01*
G75*
G02*
X224125000Y-28568750I0J-218750D01*
G01*
X224125000Y-29006250D01*
G75*
G02*
X223906250Y-29225000I-218750J0D01*
G01*
X223393750Y-29225000D01*
G75*
G02*
X223175000Y-29006250I0J218750D01*
G01*
X223175000Y-28568750D01*
G75*
G02*
X223393750Y-28350000I218750J0D01*
G01*
G37*
G36*
G01*
X223393750Y-26775000D02*
X223906250Y-26775000D01*
G75*
G02*
X224125000Y-26993750I0J-218750D01*
G01*
X224125000Y-27431250D01*
G75*
G02*
X223906250Y-27650000I-218750J0D01*
G01*
X223393750Y-27650000D01*
G75*
G02*
X223175000Y-27431250I0J218750D01*
G01*
X223175000Y-26993750D01*
G75*
G02*
X223393750Y-26775000I218750J0D01*
G01*
G37*
%TD*%
%TO.C,D9*%
G36*
G01*
X242393750Y-28350000D02*
X242906250Y-28350000D01*
G75*
G02*
X243125000Y-28568750I0J-218750D01*
G01*
X243125000Y-29006250D01*
G75*
G02*
X242906250Y-29225000I-218750J0D01*
G01*
X242393750Y-29225000D01*
G75*
G02*
X242175000Y-29006250I0J218750D01*
G01*
X242175000Y-28568750D01*
G75*
G02*
X242393750Y-28350000I218750J0D01*
G01*
G37*
G36*
G01*
X242393750Y-26775000D02*
X242906250Y-26775000D01*
G75*
G02*
X243125000Y-26993750I0J-218750D01*
G01*
X243125000Y-27431250D01*
G75*
G02*
X242906250Y-27650000I-218750J0D01*
G01*
X242393750Y-27650000D01*
G75*
G02*
X242175000Y-27431250I0J218750D01*
G01*
X242175000Y-26993750D01*
G75*
G02*
X242393750Y-26775000I218750J0D01*
G01*
G37*
%TD*%
%TO.C,D10*%
G36*
G01*
X261393750Y-28350000D02*
X261906250Y-28350000D01*
G75*
G02*
X262125000Y-28568750I0J-218750D01*
G01*
X262125000Y-29006250D01*
G75*
G02*
X261906250Y-29225000I-218750J0D01*
G01*
X261393750Y-29225000D01*
G75*
G02*
X261175000Y-29006250I0J218750D01*
G01*
X261175000Y-28568750D01*
G75*
G02*
X261393750Y-28350000I218750J0D01*
G01*
G37*
G36*
G01*
X261393750Y-26775000D02*
X261906250Y-26775000D01*
G75*
G02*
X262125000Y-26993750I0J-218750D01*
G01*
X262125000Y-27431250D01*
G75*
G02*
X261906250Y-27650000I-218750J0D01*
G01*
X261393750Y-27650000D01*
G75*
G02*
X261175000Y-27431250I0J218750D01*
G01*
X261175000Y-26993750D01*
G75*
G02*
X261393750Y-26775000I218750J0D01*
G01*
G37*
%TD*%
%TO.C,D11*%
G36*
G01*
X280393750Y-26775000D02*
X280906250Y-26775000D01*
G75*
G02*
X281125000Y-26993750I0J-218750D01*
G01*
X281125000Y-27431250D01*
G75*
G02*
X280906250Y-27650000I-218750J0D01*
G01*
X280393750Y-27650000D01*
G75*
G02*
X280175000Y-27431250I0J218750D01*
G01*
X280175000Y-26993750D01*
G75*
G02*
X280393750Y-26775000I218750J0D01*
G01*
G37*
G36*
G01*
X280393750Y-28350000D02*
X280906250Y-28350000D01*
G75*
G02*
X281125000Y-28568750I0J-218750D01*
G01*
X281125000Y-29006250D01*
G75*
G02*
X280906250Y-29225000I-218750J0D01*
G01*
X280393750Y-29225000D01*
G75*
G02*
X280175000Y-29006250I0J218750D01*
G01*
X280175000Y-28568750D01*
G75*
G02*
X280393750Y-28350000I218750J0D01*
G01*
G37*
%TD*%
%TO.C,D12*%
G36*
G01*
X299393750Y-26775000D02*
X299906250Y-26775000D01*
G75*
G02*
X300125000Y-26993750I0J-218750D01*
G01*
X300125000Y-27431250D01*
G75*
G02*
X299906250Y-27650000I-218750J0D01*
G01*
X299393750Y-27650000D01*
G75*
G02*
X299175000Y-27431250I0J218750D01*
G01*
X299175000Y-26993750D01*
G75*
G02*
X299393750Y-26775000I218750J0D01*
G01*
G37*
G36*
G01*
X299393750Y-28350000D02*
X299906250Y-28350000D01*
G75*
G02*
X300125000Y-28568750I0J-218750D01*
G01*
X300125000Y-29006250D01*
G75*
G02*
X299906250Y-29225000I-218750J0D01*
G01*
X299393750Y-29225000D01*
G75*
G02*
X299175000Y-29006250I0J218750D01*
G01*
X299175000Y-28568750D01*
G75*
G02*
X299393750Y-28350000I218750J0D01*
G01*
G37*
%TD*%
%TO.C,D13*%
G36*
G01*
X318393750Y-26775000D02*
X318906250Y-26775000D01*
G75*
G02*
X319125000Y-26993750I0J-218750D01*
G01*
X319125000Y-27431250D01*
G75*
G02*
X318906250Y-27650000I-218750J0D01*
G01*
X318393750Y-27650000D01*
G75*
G02*
X318175000Y-27431250I0J218750D01*
G01*
X318175000Y-26993750D01*
G75*
G02*
X318393750Y-26775000I218750J0D01*
G01*
G37*
G36*
G01*
X318393750Y-28350000D02*
X318906250Y-28350000D01*
G75*
G02*
X319125000Y-28568750I0J-218750D01*
G01*
X319125000Y-29006250D01*
G75*
G02*
X318906250Y-29225000I-218750J0D01*
G01*
X318393750Y-29225000D01*
G75*
G02*
X318175000Y-29006250I0J218750D01*
G01*
X318175000Y-28568750D01*
G75*
G02*
X318393750Y-28350000I218750J0D01*
G01*
G37*
%TD*%
%TO.C,D14*%
G36*
G01*
X337393750Y-26775000D02*
X337906250Y-26775000D01*
G75*
G02*
X338125000Y-26993750I0J-218750D01*
G01*
X338125000Y-27431250D01*
G75*
G02*
X337906250Y-27650000I-218750J0D01*
G01*
X337393750Y-27650000D01*
G75*
G02*
X337175000Y-27431250I0J218750D01*
G01*
X337175000Y-26993750D01*
G75*
G02*
X337393750Y-26775000I218750J0D01*
G01*
G37*
G36*
G01*
X337393750Y-28350000D02*
X337906250Y-28350000D01*
G75*
G02*
X338125000Y-28568750I0J-218750D01*
G01*
X338125000Y-29006250D01*
G75*
G02*
X337906250Y-29225000I-218750J0D01*
G01*
X337393750Y-29225000D01*
G75*
G02*
X337175000Y-29006250I0J218750D01*
G01*
X337175000Y-28568750D01*
G75*
G02*
X337393750Y-28350000I218750J0D01*
G01*
G37*
%TD*%
%TO.C,D15*%
G36*
G01*
X29393750Y-47350000D02*
X29906250Y-47350000D01*
G75*
G02*
X30125000Y-47568750I0J-218750D01*
G01*
X30125000Y-48006250D01*
G75*
G02*
X29906250Y-48225000I-218750J0D01*
G01*
X29393750Y-48225000D01*
G75*
G02*
X29175000Y-48006250I0J218750D01*
G01*
X29175000Y-47568750D01*
G75*
G02*
X29393750Y-47350000I218750J0D01*
G01*
G37*
G36*
G01*
X29393750Y-45775000D02*
X29906250Y-45775000D01*
G75*
G02*
X30125000Y-45993750I0J-218750D01*
G01*
X30125000Y-46431250D01*
G75*
G02*
X29906250Y-46650000I-218750J0D01*
G01*
X29393750Y-46650000D01*
G75*
G02*
X29175000Y-46431250I0J218750D01*
G01*
X29175000Y-45993750D01*
G75*
G02*
X29393750Y-45775000I218750J0D01*
G01*
G37*
%TD*%
%TO.C,D16*%
G36*
G01*
X48393750Y-45775000D02*
X48906250Y-45775000D01*
G75*
G02*
X49125000Y-45993750I0J-218750D01*
G01*
X49125000Y-46431250D01*
G75*
G02*
X48906250Y-46650000I-218750J0D01*
G01*
X48393750Y-46650000D01*
G75*
G02*
X48175000Y-46431250I0J218750D01*
G01*
X48175000Y-45993750D01*
G75*
G02*
X48393750Y-45775000I218750J0D01*
G01*
G37*
G36*
G01*
X48393750Y-47350000D02*
X48906250Y-47350000D01*
G75*
G02*
X49125000Y-47568750I0J-218750D01*
G01*
X49125000Y-48006250D01*
G75*
G02*
X48906250Y-48225000I-218750J0D01*
G01*
X48393750Y-48225000D01*
G75*
G02*
X48175000Y-48006250I0J218750D01*
G01*
X48175000Y-47568750D01*
G75*
G02*
X48393750Y-47350000I218750J0D01*
G01*
G37*
%TD*%
%TO.C,D17*%
G36*
G01*
X67393750Y-45775000D02*
X67906250Y-45775000D01*
G75*
G02*
X68125000Y-45993750I0J-218750D01*
G01*
X68125000Y-46431250D01*
G75*
G02*
X67906250Y-46650000I-218750J0D01*
G01*
X67393750Y-46650000D01*
G75*
G02*
X67175000Y-46431250I0J218750D01*
G01*
X67175000Y-45993750D01*
G75*
G02*
X67393750Y-45775000I218750J0D01*
G01*
G37*
G36*
G01*
X67393750Y-47350000D02*
X67906250Y-47350000D01*
G75*
G02*
X68125000Y-47568750I0J-218750D01*
G01*
X68125000Y-48006250D01*
G75*
G02*
X67906250Y-48225000I-218750J0D01*
G01*
X67393750Y-48225000D01*
G75*
G02*
X67175000Y-48006250I0J218750D01*
G01*
X67175000Y-47568750D01*
G75*
G02*
X67393750Y-47350000I218750J0D01*
G01*
G37*
%TD*%
%TO.C,D18*%
G36*
G01*
X86393750Y-45775000D02*
X86906250Y-45775000D01*
G75*
G02*
X87125000Y-45993750I0J-218750D01*
G01*
X87125000Y-46431250D01*
G75*
G02*
X86906250Y-46650000I-218750J0D01*
G01*
X86393750Y-46650000D01*
G75*
G02*
X86175000Y-46431250I0J218750D01*
G01*
X86175000Y-45993750D01*
G75*
G02*
X86393750Y-45775000I218750J0D01*
G01*
G37*
G36*
G01*
X86393750Y-47350000D02*
X86906250Y-47350000D01*
G75*
G02*
X87125000Y-47568750I0J-218750D01*
G01*
X87125000Y-48006250D01*
G75*
G02*
X86906250Y-48225000I-218750J0D01*
G01*
X86393750Y-48225000D01*
G75*
G02*
X86175000Y-48006250I0J218750D01*
G01*
X86175000Y-47568750D01*
G75*
G02*
X86393750Y-47350000I218750J0D01*
G01*
G37*
%TD*%
%TO.C,D19*%
G36*
G01*
X105393750Y-47350000D02*
X105906250Y-47350000D01*
G75*
G02*
X106125000Y-47568750I0J-218750D01*
G01*
X106125000Y-48006250D01*
G75*
G02*
X105906250Y-48225000I-218750J0D01*
G01*
X105393750Y-48225000D01*
G75*
G02*
X105175000Y-48006250I0J218750D01*
G01*
X105175000Y-47568750D01*
G75*
G02*
X105393750Y-47350000I218750J0D01*
G01*
G37*
G36*
G01*
X105393750Y-45775000D02*
X105906250Y-45775000D01*
G75*
G02*
X106125000Y-45993750I0J-218750D01*
G01*
X106125000Y-46431250D01*
G75*
G02*
X105906250Y-46650000I-218750J0D01*
G01*
X105393750Y-46650000D01*
G75*
G02*
X105175000Y-46431250I0J218750D01*
G01*
X105175000Y-45993750D01*
G75*
G02*
X105393750Y-45775000I218750J0D01*
G01*
G37*
%TD*%
%TO.C,D20*%
G36*
G01*
X124393750Y-47350000D02*
X124906250Y-47350000D01*
G75*
G02*
X125125000Y-47568750I0J-218750D01*
G01*
X125125000Y-48006250D01*
G75*
G02*
X124906250Y-48225000I-218750J0D01*
G01*
X124393750Y-48225000D01*
G75*
G02*
X124175000Y-48006250I0J218750D01*
G01*
X124175000Y-47568750D01*
G75*
G02*
X124393750Y-47350000I218750J0D01*
G01*
G37*
G36*
G01*
X124393750Y-45775000D02*
X124906250Y-45775000D01*
G75*
G02*
X125125000Y-45993750I0J-218750D01*
G01*
X125125000Y-46431250D01*
G75*
G02*
X124906250Y-46650000I-218750J0D01*
G01*
X124393750Y-46650000D01*
G75*
G02*
X124175000Y-46431250I0J218750D01*
G01*
X124175000Y-45993750D01*
G75*
G02*
X124393750Y-45775000I218750J0D01*
G01*
G37*
%TD*%
%TO.C,D21*%
G36*
G01*
X143393750Y-45775000D02*
X143906250Y-45775000D01*
G75*
G02*
X144125000Y-45993750I0J-218750D01*
G01*
X144125000Y-46431250D01*
G75*
G02*
X143906250Y-46650000I-218750J0D01*
G01*
X143393750Y-46650000D01*
G75*
G02*
X143175000Y-46431250I0J218750D01*
G01*
X143175000Y-45993750D01*
G75*
G02*
X143393750Y-45775000I218750J0D01*
G01*
G37*
G36*
G01*
X143393750Y-47350000D02*
X143906250Y-47350000D01*
G75*
G02*
X144125000Y-47568750I0J-218750D01*
G01*
X144125000Y-48006250D01*
G75*
G02*
X143906250Y-48225000I-218750J0D01*
G01*
X143393750Y-48225000D01*
G75*
G02*
X143175000Y-48006250I0J218750D01*
G01*
X143175000Y-47568750D01*
G75*
G02*
X143393750Y-47350000I218750J0D01*
G01*
G37*
%TD*%
%TO.C,D22*%
G36*
G01*
X223393750Y-45775000D02*
X223906250Y-45775000D01*
G75*
G02*
X224125000Y-45993750I0J-218750D01*
G01*
X224125000Y-46431250D01*
G75*
G02*
X223906250Y-46650000I-218750J0D01*
G01*
X223393750Y-46650000D01*
G75*
G02*
X223175000Y-46431250I0J218750D01*
G01*
X223175000Y-45993750D01*
G75*
G02*
X223393750Y-45775000I218750J0D01*
G01*
G37*
G36*
G01*
X223393750Y-47350000D02*
X223906250Y-47350000D01*
G75*
G02*
X224125000Y-47568750I0J-218750D01*
G01*
X224125000Y-48006250D01*
G75*
G02*
X223906250Y-48225000I-218750J0D01*
G01*
X223393750Y-48225000D01*
G75*
G02*
X223175000Y-48006250I0J218750D01*
G01*
X223175000Y-47568750D01*
G75*
G02*
X223393750Y-47350000I218750J0D01*
G01*
G37*
%TD*%
%TO.C,D23*%
G36*
G01*
X242393750Y-45775000D02*
X242906250Y-45775000D01*
G75*
G02*
X243125000Y-45993750I0J-218750D01*
G01*
X243125000Y-46431250D01*
G75*
G02*
X242906250Y-46650000I-218750J0D01*
G01*
X242393750Y-46650000D01*
G75*
G02*
X242175000Y-46431250I0J218750D01*
G01*
X242175000Y-45993750D01*
G75*
G02*
X242393750Y-45775000I218750J0D01*
G01*
G37*
G36*
G01*
X242393750Y-47350000D02*
X242906250Y-47350000D01*
G75*
G02*
X243125000Y-47568750I0J-218750D01*
G01*
X243125000Y-48006250D01*
G75*
G02*
X242906250Y-48225000I-218750J0D01*
G01*
X242393750Y-48225000D01*
G75*
G02*
X242175000Y-48006250I0J218750D01*
G01*
X242175000Y-47568750D01*
G75*
G02*
X242393750Y-47350000I218750J0D01*
G01*
G37*
%TD*%
%TO.C,D24*%
G36*
G01*
X261393750Y-47350000D02*
X261906250Y-47350000D01*
G75*
G02*
X262125000Y-47568750I0J-218750D01*
G01*
X262125000Y-48006250D01*
G75*
G02*
X261906250Y-48225000I-218750J0D01*
G01*
X261393750Y-48225000D01*
G75*
G02*
X261175000Y-48006250I0J218750D01*
G01*
X261175000Y-47568750D01*
G75*
G02*
X261393750Y-47350000I218750J0D01*
G01*
G37*
G36*
G01*
X261393750Y-45775000D02*
X261906250Y-45775000D01*
G75*
G02*
X262125000Y-45993750I0J-218750D01*
G01*
X262125000Y-46431250D01*
G75*
G02*
X261906250Y-46650000I-218750J0D01*
G01*
X261393750Y-46650000D01*
G75*
G02*
X261175000Y-46431250I0J218750D01*
G01*
X261175000Y-45993750D01*
G75*
G02*
X261393750Y-45775000I218750J0D01*
G01*
G37*
%TD*%
%TO.C,D25*%
G36*
G01*
X280393750Y-45775000D02*
X280906250Y-45775000D01*
G75*
G02*
X281125000Y-45993750I0J-218750D01*
G01*
X281125000Y-46431250D01*
G75*
G02*
X280906250Y-46650000I-218750J0D01*
G01*
X280393750Y-46650000D01*
G75*
G02*
X280175000Y-46431250I0J218750D01*
G01*
X280175000Y-45993750D01*
G75*
G02*
X280393750Y-45775000I218750J0D01*
G01*
G37*
G36*
G01*
X280393750Y-47350000D02*
X280906250Y-47350000D01*
G75*
G02*
X281125000Y-47568750I0J-218750D01*
G01*
X281125000Y-48006250D01*
G75*
G02*
X280906250Y-48225000I-218750J0D01*
G01*
X280393750Y-48225000D01*
G75*
G02*
X280175000Y-48006250I0J218750D01*
G01*
X280175000Y-47568750D01*
G75*
G02*
X280393750Y-47350000I218750J0D01*
G01*
G37*
%TD*%
%TO.C,D26*%
G36*
G01*
X299393750Y-47350000D02*
X299906250Y-47350000D01*
G75*
G02*
X300125000Y-47568750I0J-218750D01*
G01*
X300125000Y-48006250D01*
G75*
G02*
X299906250Y-48225000I-218750J0D01*
G01*
X299393750Y-48225000D01*
G75*
G02*
X299175000Y-48006250I0J218750D01*
G01*
X299175000Y-47568750D01*
G75*
G02*
X299393750Y-47350000I218750J0D01*
G01*
G37*
G36*
G01*
X299393750Y-45775000D02*
X299906250Y-45775000D01*
G75*
G02*
X300125000Y-45993750I0J-218750D01*
G01*
X300125000Y-46431250D01*
G75*
G02*
X299906250Y-46650000I-218750J0D01*
G01*
X299393750Y-46650000D01*
G75*
G02*
X299175000Y-46431250I0J218750D01*
G01*
X299175000Y-45993750D01*
G75*
G02*
X299393750Y-45775000I218750J0D01*
G01*
G37*
%TD*%
%TO.C,D27*%
G36*
G01*
X318393750Y-45775000D02*
X318906250Y-45775000D01*
G75*
G02*
X319125000Y-45993750I0J-218750D01*
G01*
X319125000Y-46431250D01*
G75*
G02*
X318906250Y-46650000I-218750J0D01*
G01*
X318393750Y-46650000D01*
G75*
G02*
X318175000Y-46431250I0J218750D01*
G01*
X318175000Y-45993750D01*
G75*
G02*
X318393750Y-45775000I218750J0D01*
G01*
G37*
G36*
G01*
X318393750Y-47350000D02*
X318906250Y-47350000D01*
G75*
G02*
X319125000Y-47568750I0J-218750D01*
G01*
X319125000Y-48006250D01*
G75*
G02*
X318906250Y-48225000I-218750J0D01*
G01*
X318393750Y-48225000D01*
G75*
G02*
X318175000Y-48006250I0J218750D01*
G01*
X318175000Y-47568750D01*
G75*
G02*
X318393750Y-47350000I218750J0D01*
G01*
G37*
%TD*%
%TO.C,D28*%
G36*
G01*
X337393750Y-47350000D02*
X337906250Y-47350000D01*
G75*
G02*
X338125000Y-47568750I0J-218750D01*
G01*
X338125000Y-48006250D01*
G75*
G02*
X337906250Y-48225000I-218750J0D01*
G01*
X337393750Y-48225000D01*
G75*
G02*
X337175000Y-48006250I0J218750D01*
G01*
X337175000Y-47568750D01*
G75*
G02*
X337393750Y-47350000I218750J0D01*
G01*
G37*
G36*
G01*
X337393750Y-45775000D02*
X337906250Y-45775000D01*
G75*
G02*
X338125000Y-45993750I0J-218750D01*
G01*
X338125000Y-46431250D01*
G75*
G02*
X337906250Y-46650000I-218750J0D01*
G01*
X337393750Y-46650000D01*
G75*
G02*
X337175000Y-46431250I0J218750D01*
G01*
X337175000Y-45993750D01*
G75*
G02*
X337393750Y-45775000I218750J0D01*
G01*
G37*
%TD*%
%TO.C,D29*%
G36*
G01*
X29393750Y-64775000D02*
X29906250Y-64775000D01*
G75*
G02*
X30125000Y-64993750I0J-218750D01*
G01*
X30125000Y-65431250D01*
G75*
G02*
X29906250Y-65650000I-218750J0D01*
G01*
X29393750Y-65650000D01*
G75*
G02*
X29175000Y-65431250I0J218750D01*
G01*
X29175000Y-64993750D01*
G75*
G02*
X29393750Y-64775000I218750J0D01*
G01*
G37*
G36*
G01*
X29393750Y-66350000D02*
X29906250Y-66350000D01*
G75*
G02*
X30125000Y-66568750I0J-218750D01*
G01*
X30125000Y-67006250D01*
G75*
G02*
X29906250Y-67225000I-218750J0D01*
G01*
X29393750Y-67225000D01*
G75*
G02*
X29175000Y-67006250I0J218750D01*
G01*
X29175000Y-66568750D01*
G75*
G02*
X29393750Y-66350000I218750J0D01*
G01*
G37*
%TD*%
%TO.C,D30*%
G36*
G01*
X48393750Y-66350000D02*
X48906250Y-66350000D01*
G75*
G02*
X49125000Y-66568750I0J-218750D01*
G01*
X49125000Y-67006250D01*
G75*
G02*
X48906250Y-67225000I-218750J0D01*
G01*
X48393750Y-67225000D01*
G75*
G02*
X48175000Y-67006250I0J218750D01*
G01*
X48175000Y-66568750D01*
G75*
G02*
X48393750Y-66350000I218750J0D01*
G01*
G37*
G36*
G01*
X48393750Y-64775000D02*
X48906250Y-64775000D01*
G75*
G02*
X49125000Y-64993750I0J-218750D01*
G01*
X49125000Y-65431250D01*
G75*
G02*
X48906250Y-65650000I-218750J0D01*
G01*
X48393750Y-65650000D01*
G75*
G02*
X48175000Y-65431250I0J218750D01*
G01*
X48175000Y-64993750D01*
G75*
G02*
X48393750Y-64775000I218750J0D01*
G01*
G37*
%TD*%
%TO.C,D31*%
G36*
G01*
X67393750Y-64775000D02*
X67906250Y-64775000D01*
G75*
G02*
X68125000Y-64993750I0J-218750D01*
G01*
X68125000Y-65431250D01*
G75*
G02*
X67906250Y-65650000I-218750J0D01*
G01*
X67393750Y-65650000D01*
G75*
G02*
X67175000Y-65431250I0J218750D01*
G01*
X67175000Y-64993750D01*
G75*
G02*
X67393750Y-64775000I218750J0D01*
G01*
G37*
G36*
G01*
X67393750Y-66350000D02*
X67906250Y-66350000D01*
G75*
G02*
X68125000Y-66568750I0J-218750D01*
G01*
X68125000Y-67006250D01*
G75*
G02*
X67906250Y-67225000I-218750J0D01*
G01*
X67393750Y-67225000D01*
G75*
G02*
X67175000Y-67006250I0J218750D01*
G01*
X67175000Y-66568750D01*
G75*
G02*
X67393750Y-66350000I218750J0D01*
G01*
G37*
%TD*%
%TO.C,D32*%
G36*
G01*
X86393750Y-64775000D02*
X86906250Y-64775000D01*
G75*
G02*
X87125000Y-64993750I0J-218750D01*
G01*
X87125000Y-65431250D01*
G75*
G02*
X86906250Y-65650000I-218750J0D01*
G01*
X86393750Y-65650000D01*
G75*
G02*
X86175000Y-65431250I0J218750D01*
G01*
X86175000Y-64993750D01*
G75*
G02*
X86393750Y-64775000I218750J0D01*
G01*
G37*
G36*
G01*
X86393750Y-66350000D02*
X86906250Y-66350000D01*
G75*
G02*
X87125000Y-66568750I0J-218750D01*
G01*
X87125000Y-67006250D01*
G75*
G02*
X86906250Y-67225000I-218750J0D01*
G01*
X86393750Y-67225000D01*
G75*
G02*
X86175000Y-67006250I0J218750D01*
G01*
X86175000Y-66568750D01*
G75*
G02*
X86393750Y-66350000I218750J0D01*
G01*
G37*
%TD*%
%TO.C,D33*%
G36*
G01*
X105393750Y-64775000D02*
X105906250Y-64775000D01*
G75*
G02*
X106125000Y-64993750I0J-218750D01*
G01*
X106125000Y-65431250D01*
G75*
G02*
X105906250Y-65650000I-218750J0D01*
G01*
X105393750Y-65650000D01*
G75*
G02*
X105175000Y-65431250I0J218750D01*
G01*
X105175000Y-64993750D01*
G75*
G02*
X105393750Y-64775000I218750J0D01*
G01*
G37*
G36*
G01*
X105393750Y-66350000D02*
X105906250Y-66350000D01*
G75*
G02*
X106125000Y-66568750I0J-218750D01*
G01*
X106125000Y-67006250D01*
G75*
G02*
X105906250Y-67225000I-218750J0D01*
G01*
X105393750Y-67225000D01*
G75*
G02*
X105175000Y-67006250I0J218750D01*
G01*
X105175000Y-66568750D01*
G75*
G02*
X105393750Y-66350000I218750J0D01*
G01*
G37*
%TD*%
%TO.C,D34*%
G36*
G01*
X124393750Y-66350000D02*
X124906250Y-66350000D01*
G75*
G02*
X125125000Y-66568750I0J-218750D01*
G01*
X125125000Y-67006250D01*
G75*
G02*
X124906250Y-67225000I-218750J0D01*
G01*
X124393750Y-67225000D01*
G75*
G02*
X124175000Y-67006250I0J218750D01*
G01*
X124175000Y-66568750D01*
G75*
G02*
X124393750Y-66350000I218750J0D01*
G01*
G37*
G36*
G01*
X124393750Y-64775000D02*
X124906250Y-64775000D01*
G75*
G02*
X125125000Y-64993750I0J-218750D01*
G01*
X125125000Y-65431250D01*
G75*
G02*
X124906250Y-65650000I-218750J0D01*
G01*
X124393750Y-65650000D01*
G75*
G02*
X124175000Y-65431250I0J218750D01*
G01*
X124175000Y-64993750D01*
G75*
G02*
X124393750Y-64775000I218750J0D01*
G01*
G37*
%TD*%
%TO.C,D35*%
G36*
G01*
X143393750Y-64775000D02*
X143906250Y-64775000D01*
G75*
G02*
X144125000Y-64993750I0J-218750D01*
G01*
X144125000Y-65431250D01*
G75*
G02*
X143906250Y-65650000I-218750J0D01*
G01*
X143393750Y-65650000D01*
G75*
G02*
X143175000Y-65431250I0J218750D01*
G01*
X143175000Y-64993750D01*
G75*
G02*
X143393750Y-64775000I218750J0D01*
G01*
G37*
G36*
G01*
X143393750Y-66350000D02*
X143906250Y-66350000D01*
G75*
G02*
X144125000Y-66568750I0J-218750D01*
G01*
X144125000Y-67006250D01*
G75*
G02*
X143906250Y-67225000I-218750J0D01*
G01*
X143393750Y-67225000D01*
G75*
G02*
X143175000Y-67006250I0J218750D01*
G01*
X143175000Y-66568750D01*
G75*
G02*
X143393750Y-66350000I218750J0D01*
G01*
G37*
%TD*%
%TO.C,D36*%
G36*
G01*
X223393750Y-66350000D02*
X223906250Y-66350000D01*
G75*
G02*
X224125000Y-66568750I0J-218750D01*
G01*
X224125000Y-67006250D01*
G75*
G02*
X223906250Y-67225000I-218750J0D01*
G01*
X223393750Y-67225000D01*
G75*
G02*
X223175000Y-67006250I0J218750D01*
G01*
X223175000Y-66568750D01*
G75*
G02*
X223393750Y-66350000I218750J0D01*
G01*
G37*
G36*
G01*
X223393750Y-64775000D02*
X223906250Y-64775000D01*
G75*
G02*
X224125000Y-64993750I0J-218750D01*
G01*
X224125000Y-65431250D01*
G75*
G02*
X223906250Y-65650000I-218750J0D01*
G01*
X223393750Y-65650000D01*
G75*
G02*
X223175000Y-65431250I0J218750D01*
G01*
X223175000Y-64993750D01*
G75*
G02*
X223393750Y-64775000I218750J0D01*
G01*
G37*
%TD*%
%TO.C,D37*%
G36*
G01*
X242393750Y-64775000D02*
X242906250Y-64775000D01*
G75*
G02*
X243125000Y-64993750I0J-218750D01*
G01*
X243125000Y-65431250D01*
G75*
G02*
X242906250Y-65650000I-218750J0D01*
G01*
X242393750Y-65650000D01*
G75*
G02*
X242175000Y-65431250I0J218750D01*
G01*
X242175000Y-64993750D01*
G75*
G02*
X242393750Y-64775000I218750J0D01*
G01*
G37*
G36*
G01*
X242393750Y-66350000D02*
X242906250Y-66350000D01*
G75*
G02*
X243125000Y-66568750I0J-218750D01*
G01*
X243125000Y-67006250D01*
G75*
G02*
X242906250Y-67225000I-218750J0D01*
G01*
X242393750Y-67225000D01*
G75*
G02*
X242175000Y-67006250I0J218750D01*
G01*
X242175000Y-66568750D01*
G75*
G02*
X242393750Y-66350000I218750J0D01*
G01*
G37*
%TD*%
%TO.C,D38*%
G36*
G01*
X261393750Y-66350000D02*
X261906250Y-66350000D01*
G75*
G02*
X262125000Y-66568750I0J-218750D01*
G01*
X262125000Y-67006250D01*
G75*
G02*
X261906250Y-67225000I-218750J0D01*
G01*
X261393750Y-67225000D01*
G75*
G02*
X261175000Y-67006250I0J218750D01*
G01*
X261175000Y-66568750D01*
G75*
G02*
X261393750Y-66350000I218750J0D01*
G01*
G37*
G36*
G01*
X261393750Y-64775000D02*
X261906250Y-64775000D01*
G75*
G02*
X262125000Y-64993750I0J-218750D01*
G01*
X262125000Y-65431250D01*
G75*
G02*
X261906250Y-65650000I-218750J0D01*
G01*
X261393750Y-65650000D01*
G75*
G02*
X261175000Y-65431250I0J218750D01*
G01*
X261175000Y-64993750D01*
G75*
G02*
X261393750Y-64775000I218750J0D01*
G01*
G37*
%TD*%
%TO.C,D39*%
G36*
G01*
X280393750Y-64775000D02*
X280906250Y-64775000D01*
G75*
G02*
X281125000Y-64993750I0J-218750D01*
G01*
X281125000Y-65431250D01*
G75*
G02*
X280906250Y-65650000I-218750J0D01*
G01*
X280393750Y-65650000D01*
G75*
G02*
X280175000Y-65431250I0J218750D01*
G01*
X280175000Y-64993750D01*
G75*
G02*
X280393750Y-64775000I218750J0D01*
G01*
G37*
G36*
G01*
X280393750Y-66350000D02*
X280906250Y-66350000D01*
G75*
G02*
X281125000Y-66568750I0J-218750D01*
G01*
X281125000Y-67006250D01*
G75*
G02*
X280906250Y-67225000I-218750J0D01*
G01*
X280393750Y-67225000D01*
G75*
G02*
X280175000Y-67006250I0J218750D01*
G01*
X280175000Y-66568750D01*
G75*
G02*
X280393750Y-66350000I218750J0D01*
G01*
G37*
%TD*%
%TO.C,D40*%
G36*
G01*
X299393750Y-66350000D02*
X299906250Y-66350000D01*
G75*
G02*
X300125000Y-66568750I0J-218750D01*
G01*
X300125000Y-67006250D01*
G75*
G02*
X299906250Y-67225000I-218750J0D01*
G01*
X299393750Y-67225000D01*
G75*
G02*
X299175000Y-67006250I0J218750D01*
G01*
X299175000Y-66568750D01*
G75*
G02*
X299393750Y-66350000I218750J0D01*
G01*
G37*
G36*
G01*
X299393750Y-64775000D02*
X299906250Y-64775000D01*
G75*
G02*
X300125000Y-64993750I0J-218750D01*
G01*
X300125000Y-65431250D01*
G75*
G02*
X299906250Y-65650000I-218750J0D01*
G01*
X299393750Y-65650000D01*
G75*
G02*
X299175000Y-65431250I0J218750D01*
G01*
X299175000Y-64993750D01*
G75*
G02*
X299393750Y-64775000I218750J0D01*
G01*
G37*
%TD*%
%TO.C,D41*%
G36*
G01*
X318393750Y-66350000D02*
X318906250Y-66350000D01*
G75*
G02*
X319125000Y-66568750I0J-218750D01*
G01*
X319125000Y-67006250D01*
G75*
G02*
X318906250Y-67225000I-218750J0D01*
G01*
X318393750Y-67225000D01*
G75*
G02*
X318175000Y-67006250I0J218750D01*
G01*
X318175000Y-66568750D01*
G75*
G02*
X318393750Y-66350000I218750J0D01*
G01*
G37*
G36*
G01*
X318393750Y-64775000D02*
X318906250Y-64775000D01*
G75*
G02*
X319125000Y-64993750I0J-218750D01*
G01*
X319125000Y-65431250D01*
G75*
G02*
X318906250Y-65650000I-218750J0D01*
G01*
X318393750Y-65650000D01*
G75*
G02*
X318175000Y-65431250I0J218750D01*
G01*
X318175000Y-64993750D01*
G75*
G02*
X318393750Y-64775000I218750J0D01*
G01*
G37*
%TD*%
%TO.C,D42*%
G36*
G01*
X337393750Y-66350000D02*
X337906250Y-66350000D01*
G75*
G02*
X338125000Y-66568750I0J-218750D01*
G01*
X338125000Y-67006250D01*
G75*
G02*
X337906250Y-67225000I-218750J0D01*
G01*
X337393750Y-67225000D01*
G75*
G02*
X337175000Y-67006250I0J218750D01*
G01*
X337175000Y-66568750D01*
G75*
G02*
X337393750Y-66350000I218750J0D01*
G01*
G37*
G36*
G01*
X337393750Y-64775000D02*
X337906250Y-64775000D01*
G75*
G02*
X338125000Y-64993750I0J-218750D01*
G01*
X338125000Y-65431250D01*
G75*
G02*
X337906250Y-65650000I-218750J0D01*
G01*
X337393750Y-65650000D01*
G75*
G02*
X337175000Y-65431250I0J218750D01*
G01*
X337175000Y-64993750D01*
G75*
G02*
X337393750Y-64775000I218750J0D01*
G01*
G37*
%TD*%
%TO.C,D43*%
G36*
G01*
X29393750Y-83775000D02*
X29906250Y-83775000D01*
G75*
G02*
X30125000Y-83993750I0J-218750D01*
G01*
X30125000Y-84431250D01*
G75*
G02*
X29906250Y-84650000I-218750J0D01*
G01*
X29393750Y-84650000D01*
G75*
G02*
X29175000Y-84431250I0J218750D01*
G01*
X29175000Y-83993750D01*
G75*
G02*
X29393750Y-83775000I218750J0D01*
G01*
G37*
G36*
G01*
X29393750Y-85350000D02*
X29906250Y-85350000D01*
G75*
G02*
X30125000Y-85568750I0J-218750D01*
G01*
X30125000Y-86006250D01*
G75*
G02*
X29906250Y-86225000I-218750J0D01*
G01*
X29393750Y-86225000D01*
G75*
G02*
X29175000Y-86006250I0J218750D01*
G01*
X29175000Y-85568750D01*
G75*
G02*
X29393750Y-85350000I218750J0D01*
G01*
G37*
%TD*%
%TO.C,D44*%
G36*
G01*
X48393750Y-85350000D02*
X48906250Y-85350000D01*
G75*
G02*
X49125000Y-85568750I0J-218750D01*
G01*
X49125000Y-86006250D01*
G75*
G02*
X48906250Y-86225000I-218750J0D01*
G01*
X48393750Y-86225000D01*
G75*
G02*
X48175000Y-86006250I0J218750D01*
G01*
X48175000Y-85568750D01*
G75*
G02*
X48393750Y-85350000I218750J0D01*
G01*
G37*
G36*
G01*
X48393750Y-83775000D02*
X48906250Y-83775000D01*
G75*
G02*
X49125000Y-83993750I0J-218750D01*
G01*
X49125000Y-84431250D01*
G75*
G02*
X48906250Y-84650000I-218750J0D01*
G01*
X48393750Y-84650000D01*
G75*
G02*
X48175000Y-84431250I0J218750D01*
G01*
X48175000Y-83993750D01*
G75*
G02*
X48393750Y-83775000I218750J0D01*
G01*
G37*
%TD*%
%TO.C,D45*%
G36*
G01*
X67393750Y-85350000D02*
X67906250Y-85350000D01*
G75*
G02*
X68125000Y-85568750I0J-218750D01*
G01*
X68125000Y-86006250D01*
G75*
G02*
X67906250Y-86225000I-218750J0D01*
G01*
X67393750Y-86225000D01*
G75*
G02*
X67175000Y-86006250I0J218750D01*
G01*
X67175000Y-85568750D01*
G75*
G02*
X67393750Y-85350000I218750J0D01*
G01*
G37*
G36*
G01*
X67393750Y-83775000D02*
X67906250Y-83775000D01*
G75*
G02*
X68125000Y-83993750I0J-218750D01*
G01*
X68125000Y-84431250D01*
G75*
G02*
X67906250Y-84650000I-218750J0D01*
G01*
X67393750Y-84650000D01*
G75*
G02*
X67175000Y-84431250I0J218750D01*
G01*
X67175000Y-83993750D01*
G75*
G02*
X67393750Y-83775000I218750J0D01*
G01*
G37*
%TD*%
%TO.C,D46*%
G36*
G01*
X86393750Y-83775000D02*
X86906250Y-83775000D01*
G75*
G02*
X87125000Y-83993750I0J-218750D01*
G01*
X87125000Y-84431250D01*
G75*
G02*
X86906250Y-84650000I-218750J0D01*
G01*
X86393750Y-84650000D01*
G75*
G02*
X86175000Y-84431250I0J218750D01*
G01*
X86175000Y-83993750D01*
G75*
G02*
X86393750Y-83775000I218750J0D01*
G01*
G37*
G36*
G01*
X86393750Y-85350000D02*
X86906250Y-85350000D01*
G75*
G02*
X87125000Y-85568750I0J-218750D01*
G01*
X87125000Y-86006250D01*
G75*
G02*
X86906250Y-86225000I-218750J0D01*
G01*
X86393750Y-86225000D01*
G75*
G02*
X86175000Y-86006250I0J218750D01*
G01*
X86175000Y-85568750D01*
G75*
G02*
X86393750Y-85350000I218750J0D01*
G01*
G37*
%TD*%
%TO.C,D47*%
G36*
G01*
X105393750Y-85350000D02*
X105906250Y-85350000D01*
G75*
G02*
X106125000Y-85568750I0J-218750D01*
G01*
X106125000Y-86006250D01*
G75*
G02*
X105906250Y-86225000I-218750J0D01*
G01*
X105393750Y-86225000D01*
G75*
G02*
X105175000Y-86006250I0J218750D01*
G01*
X105175000Y-85568750D01*
G75*
G02*
X105393750Y-85350000I218750J0D01*
G01*
G37*
G36*
G01*
X105393750Y-83775000D02*
X105906250Y-83775000D01*
G75*
G02*
X106125000Y-83993750I0J-218750D01*
G01*
X106125000Y-84431250D01*
G75*
G02*
X105906250Y-84650000I-218750J0D01*
G01*
X105393750Y-84650000D01*
G75*
G02*
X105175000Y-84431250I0J218750D01*
G01*
X105175000Y-83993750D01*
G75*
G02*
X105393750Y-83775000I218750J0D01*
G01*
G37*
%TD*%
%TO.C,D48*%
G36*
G01*
X124393750Y-83775000D02*
X124906250Y-83775000D01*
G75*
G02*
X125125000Y-83993750I0J-218750D01*
G01*
X125125000Y-84431250D01*
G75*
G02*
X124906250Y-84650000I-218750J0D01*
G01*
X124393750Y-84650000D01*
G75*
G02*
X124175000Y-84431250I0J218750D01*
G01*
X124175000Y-83993750D01*
G75*
G02*
X124393750Y-83775000I218750J0D01*
G01*
G37*
G36*
G01*
X124393750Y-85350000D02*
X124906250Y-85350000D01*
G75*
G02*
X125125000Y-85568750I0J-218750D01*
G01*
X125125000Y-86006250D01*
G75*
G02*
X124906250Y-86225000I-218750J0D01*
G01*
X124393750Y-86225000D01*
G75*
G02*
X124175000Y-86006250I0J218750D01*
G01*
X124175000Y-85568750D01*
G75*
G02*
X124393750Y-85350000I218750J0D01*
G01*
G37*
%TD*%
%TO.C,D49*%
G36*
G01*
X143393750Y-85350000D02*
X143906250Y-85350000D01*
G75*
G02*
X144125000Y-85568750I0J-218750D01*
G01*
X144125000Y-86006250D01*
G75*
G02*
X143906250Y-86225000I-218750J0D01*
G01*
X143393750Y-86225000D01*
G75*
G02*
X143175000Y-86006250I0J218750D01*
G01*
X143175000Y-85568750D01*
G75*
G02*
X143393750Y-85350000I218750J0D01*
G01*
G37*
G36*
G01*
X143393750Y-83775000D02*
X143906250Y-83775000D01*
G75*
G02*
X144125000Y-83993750I0J-218750D01*
G01*
X144125000Y-84431250D01*
G75*
G02*
X143906250Y-84650000I-218750J0D01*
G01*
X143393750Y-84650000D01*
G75*
G02*
X143175000Y-84431250I0J218750D01*
G01*
X143175000Y-83993750D01*
G75*
G02*
X143393750Y-83775000I218750J0D01*
G01*
G37*
%TD*%
%TO.C,D50*%
G36*
G01*
X223393750Y-83775000D02*
X223906250Y-83775000D01*
G75*
G02*
X224125000Y-83993750I0J-218750D01*
G01*
X224125000Y-84431250D01*
G75*
G02*
X223906250Y-84650000I-218750J0D01*
G01*
X223393750Y-84650000D01*
G75*
G02*
X223175000Y-84431250I0J218750D01*
G01*
X223175000Y-83993750D01*
G75*
G02*
X223393750Y-83775000I218750J0D01*
G01*
G37*
G36*
G01*
X223393750Y-85350000D02*
X223906250Y-85350000D01*
G75*
G02*
X224125000Y-85568750I0J-218750D01*
G01*
X224125000Y-86006250D01*
G75*
G02*
X223906250Y-86225000I-218750J0D01*
G01*
X223393750Y-86225000D01*
G75*
G02*
X223175000Y-86006250I0J218750D01*
G01*
X223175000Y-85568750D01*
G75*
G02*
X223393750Y-85350000I218750J0D01*
G01*
G37*
%TD*%
%TO.C,D51*%
G36*
G01*
X242393750Y-85350000D02*
X242906250Y-85350000D01*
G75*
G02*
X243125000Y-85568750I0J-218750D01*
G01*
X243125000Y-86006250D01*
G75*
G02*
X242906250Y-86225000I-218750J0D01*
G01*
X242393750Y-86225000D01*
G75*
G02*
X242175000Y-86006250I0J218750D01*
G01*
X242175000Y-85568750D01*
G75*
G02*
X242393750Y-85350000I218750J0D01*
G01*
G37*
G36*
G01*
X242393750Y-83775000D02*
X242906250Y-83775000D01*
G75*
G02*
X243125000Y-83993750I0J-218750D01*
G01*
X243125000Y-84431250D01*
G75*
G02*
X242906250Y-84650000I-218750J0D01*
G01*
X242393750Y-84650000D01*
G75*
G02*
X242175000Y-84431250I0J218750D01*
G01*
X242175000Y-83993750D01*
G75*
G02*
X242393750Y-83775000I218750J0D01*
G01*
G37*
%TD*%
%TO.C,D52*%
G36*
G01*
X261393750Y-83775000D02*
X261906250Y-83775000D01*
G75*
G02*
X262125000Y-83993750I0J-218750D01*
G01*
X262125000Y-84431250D01*
G75*
G02*
X261906250Y-84650000I-218750J0D01*
G01*
X261393750Y-84650000D01*
G75*
G02*
X261175000Y-84431250I0J218750D01*
G01*
X261175000Y-83993750D01*
G75*
G02*
X261393750Y-83775000I218750J0D01*
G01*
G37*
G36*
G01*
X261393750Y-85350000D02*
X261906250Y-85350000D01*
G75*
G02*
X262125000Y-85568750I0J-218750D01*
G01*
X262125000Y-86006250D01*
G75*
G02*
X261906250Y-86225000I-218750J0D01*
G01*
X261393750Y-86225000D01*
G75*
G02*
X261175000Y-86006250I0J218750D01*
G01*
X261175000Y-85568750D01*
G75*
G02*
X261393750Y-85350000I218750J0D01*
G01*
G37*
%TD*%
%TO.C,D53*%
G36*
G01*
X280393750Y-85350000D02*
X280906250Y-85350000D01*
G75*
G02*
X281125000Y-85568750I0J-218750D01*
G01*
X281125000Y-86006250D01*
G75*
G02*
X280906250Y-86225000I-218750J0D01*
G01*
X280393750Y-86225000D01*
G75*
G02*
X280175000Y-86006250I0J218750D01*
G01*
X280175000Y-85568750D01*
G75*
G02*
X280393750Y-85350000I218750J0D01*
G01*
G37*
G36*
G01*
X280393750Y-83775000D02*
X280906250Y-83775000D01*
G75*
G02*
X281125000Y-83993750I0J-218750D01*
G01*
X281125000Y-84431250D01*
G75*
G02*
X280906250Y-84650000I-218750J0D01*
G01*
X280393750Y-84650000D01*
G75*
G02*
X280175000Y-84431250I0J218750D01*
G01*
X280175000Y-83993750D01*
G75*
G02*
X280393750Y-83775000I218750J0D01*
G01*
G37*
%TD*%
%TO.C,D54*%
G36*
G01*
X299393750Y-85350000D02*
X299906250Y-85350000D01*
G75*
G02*
X300125000Y-85568750I0J-218750D01*
G01*
X300125000Y-86006250D01*
G75*
G02*
X299906250Y-86225000I-218750J0D01*
G01*
X299393750Y-86225000D01*
G75*
G02*
X299175000Y-86006250I0J218750D01*
G01*
X299175000Y-85568750D01*
G75*
G02*
X299393750Y-85350000I218750J0D01*
G01*
G37*
G36*
G01*
X299393750Y-83775000D02*
X299906250Y-83775000D01*
G75*
G02*
X300125000Y-83993750I0J-218750D01*
G01*
X300125000Y-84431250D01*
G75*
G02*
X299906250Y-84650000I-218750J0D01*
G01*
X299393750Y-84650000D01*
G75*
G02*
X299175000Y-84431250I0J218750D01*
G01*
X299175000Y-83993750D01*
G75*
G02*
X299393750Y-83775000I218750J0D01*
G01*
G37*
%TD*%
%TO.C,D55*%
G36*
G01*
X327893750Y-83775000D02*
X328406250Y-83775000D01*
G75*
G02*
X328625000Y-83993750I0J-218750D01*
G01*
X328625000Y-84431250D01*
G75*
G02*
X328406250Y-84650000I-218750J0D01*
G01*
X327893750Y-84650000D01*
G75*
G02*
X327675000Y-84431250I0J218750D01*
G01*
X327675000Y-83993750D01*
G75*
G02*
X327893750Y-83775000I218750J0D01*
G01*
G37*
G36*
G01*
X327893750Y-85350000D02*
X328406250Y-85350000D01*
G75*
G02*
X328625000Y-85568750I0J-218750D01*
G01*
X328625000Y-86006250D01*
G75*
G02*
X328406250Y-86225000I-218750J0D01*
G01*
X327893750Y-86225000D01*
G75*
G02*
X327675000Y-86006250I0J218750D01*
G01*
X327675000Y-85568750D01*
G75*
G02*
X327893750Y-85350000I218750J0D01*
G01*
G37*
%TD*%
%TO.C,D56*%
G36*
G01*
X29393750Y-102775000D02*
X29906250Y-102775000D01*
G75*
G02*
X30125000Y-102993750I0J-218750D01*
G01*
X30125000Y-103431250D01*
G75*
G02*
X29906250Y-103650000I-218750J0D01*
G01*
X29393750Y-103650000D01*
G75*
G02*
X29175000Y-103431250I0J218750D01*
G01*
X29175000Y-102993750D01*
G75*
G02*
X29393750Y-102775000I218750J0D01*
G01*
G37*
G36*
G01*
X29393750Y-104350000D02*
X29906250Y-104350000D01*
G75*
G02*
X30125000Y-104568750I0J-218750D01*
G01*
X30125000Y-105006250D01*
G75*
G02*
X29906250Y-105225000I-218750J0D01*
G01*
X29393750Y-105225000D01*
G75*
G02*
X29175000Y-105006250I0J218750D01*
G01*
X29175000Y-104568750D01*
G75*
G02*
X29393750Y-104350000I218750J0D01*
G01*
G37*
%TD*%
%TO.C,D57*%
G36*
G01*
X48393750Y-104350000D02*
X48906250Y-104350000D01*
G75*
G02*
X49125000Y-104568750I0J-218750D01*
G01*
X49125000Y-105006250D01*
G75*
G02*
X48906250Y-105225000I-218750J0D01*
G01*
X48393750Y-105225000D01*
G75*
G02*
X48175000Y-105006250I0J218750D01*
G01*
X48175000Y-104568750D01*
G75*
G02*
X48393750Y-104350000I218750J0D01*
G01*
G37*
G36*
G01*
X48393750Y-102775000D02*
X48906250Y-102775000D01*
G75*
G02*
X49125000Y-102993750I0J-218750D01*
G01*
X49125000Y-103431250D01*
G75*
G02*
X48906250Y-103650000I-218750J0D01*
G01*
X48393750Y-103650000D01*
G75*
G02*
X48175000Y-103431250I0J218750D01*
G01*
X48175000Y-102993750D01*
G75*
G02*
X48393750Y-102775000I218750J0D01*
G01*
G37*
%TD*%
%TO.C,D58*%
G36*
G01*
X67393750Y-102775000D02*
X67906250Y-102775000D01*
G75*
G02*
X68125000Y-102993750I0J-218750D01*
G01*
X68125000Y-103431250D01*
G75*
G02*
X67906250Y-103650000I-218750J0D01*
G01*
X67393750Y-103650000D01*
G75*
G02*
X67175000Y-103431250I0J218750D01*
G01*
X67175000Y-102993750D01*
G75*
G02*
X67393750Y-102775000I218750J0D01*
G01*
G37*
G36*
G01*
X67393750Y-104350000D02*
X67906250Y-104350000D01*
G75*
G02*
X68125000Y-104568750I0J-218750D01*
G01*
X68125000Y-105006250D01*
G75*
G02*
X67906250Y-105225000I-218750J0D01*
G01*
X67393750Y-105225000D01*
G75*
G02*
X67175000Y-105006250I0J218750D01*
G01*
X67175000Y-104568750D01*
G75*
G02*
X67393750Y-104350000I218750J0D01*
G01*
G37*
%TD*%
%TO.C,D59*%
G36*
G01*
X86393750Y-104350000D02*
X86906250Y-104350000D01*
G75*
G02*
X87125000Y-104568750I0J-218750D01*
G01*
X87125000Y-105006250D01*
G75*
G02*
X86906250Y-105225000I-218750J0D01*
G01*
X86393750Y-105225000D01*
G75*
G02*
X86175000Y-105006250I0J218750D01*
G01*
X86175000Y-104568750D01*
G75*
G02*
X86393750Y-104350000I218750J0D01*
G01*
G37*
G36*
G01*
X86393750Y-102775000D02*
X86906250Y-102775000D01*
G75*
G02*
X87125000Y-102993750I0J-218750D01*
G01*
X87125000Y-103431250D01*
G75*
G02*
X86906250Y-103650000I-218750J0D01*
G01*
X86393750Y-103650000D01*
G75*
G02*
X86175000Y-103431250I0J218750D01*
G01*
X86175000Y-102993750D01*
G75*
G02*
X86393750Y-102775000I218750J0D01*
G01*
G37*
%TD*%
%TO.C,D60*%
G36*
G01*
X105393750Y-102775000D02*
X105906250Y-102775000D01*
G75*
G02*
X106125000Y-102993750I0J-218750D01*
G01*
X106125000Y-103431250D01*
G75*
G02*
X105906250Y-103650000I-218750J0D01*
G01*
X105393750Y-103650000D01*
G75*
G02*
X105175000Y-103431250I0J218750D01*
G01*
X105175000Y-102993750D01*
G75*
G02*
X105393750Y-102775000I218750J0D01*
G01*
G37*
G36*
G01*
X105393750Y-104350000D02*
X105906250Y-104350000D01*
G75*
G02*
X106125000Y-104568750I0J-218750D01*
G01*
X106125000Y-105006250D01*
G75*
G02*
X105906250Y-105225000I-218750J0D01*
G01*
X105393750Y-105225000D01*
G75*
G02*
X105175000Y-105006250I0J218750D01*
G01*
X105175000Y-104568750D01*
G75*
G02*
X105393750Y-104350000I218750J0D01*
G01*
G37*
%TD*%
%TO.C,D61*%
G36*
G01*
X124393750Y-104350000D02*
X124906250Y-104350000D01*
G75*
G02*
X125125000Y-104568750I0J-218750D01*
G01*
X125125000Y-105006250D01*
G75*
G02*
X124906250Y-105225000I-218750J0D01*
G01*
X124393750Y-105225000D01*
G75*
G02*
X124175000Y-105006250I0J218750D01*
G01*
X124175000Y-104568750D01*
G75*
G02*
X124393750Y-104350000I218750J0D01*
G01*
G37*
G36*
G01*
X124393750Y-102775000D02*
X124906250Y-102775000D01*
G75*
G02*
X125125000Y-102993750I0J-218750D01*
G01*
X125125000Y-103431250D01*
G75*
G02*
X124906250Y-103650000I-218750J0D01*
G01*
X124393750Y-103650000D01*
G75*
G02*
X124175000Y-103431250I0J218750D01*
G01*
X124175000Y-102993750D01*
G75*
G02*
X124393750Y-102775000I218750J0D01*
G01*
G37*
%TD*%
%TO.C,D62*%
G36*
G01*
X143393750Y-102775000D02*
X143906250Y-102775000D01*
G75*
G02*
X144125000Y-102993750I0J-218750D01*
G01*
X144125000Y-103431250D01*
G75*
G02*
X143906250Y-103650000I-218750J0D01*
G01*
X143393750Y-103650000D01*
G75*
G02*
X143175000Y-103431250I0J218750D01*
G01*
X143175000Y-102993750D01*
G75*
G02*
X143393750Y-102775000I218750J0D01*
G01*
G37*
G36*
G01*
X143393750Y-104350000D02*
X143906250Y-104350000D01*
G75*
G02*
X144125000Y-104568750I0J-218750D01*
G01*
X144125000Y-105006250D01*
G75*
G02*
X143906250Y-105225000I-218750J0D01*
G01*
X143393750Y-105225000D01*
G75*
G02*
X143175000Y-105006250I0J218750D01*
G01*
X143175000Y-104568750D01*
G75*
G02*
X143393750Y-104350000I218750J0D01*
G01*
G37*
%TD*%
%TO.C,D63*%
G36*
G01*
X223393750Y-104350000D02*
X223906250Y-104350000D01*
G75*
G02*
X224125000Y-104568750I0J-218750D01*
G01*
X224125000Y-105006250D01*
G75*
G02*
X223906250Y-105225000I-218750J0D01*
G01*
X223393750Y-105225000D01*
G75*
G02*
X223175000Y-105006250I0J218750D01*
G01*
X223175000Y-104568750D01*
G75*
G02*
X223393750Y-104350000I218750J0D01*
G01*
G37*
G36*
G01*
X223393750Y-102775000D02*
X223906250Y-102775000D01*
G75*
G02*
X224125000Y-102993750I0J-218750D01*
G01*
X224125000Y-103431250D01*
G75*
G02*
X223906250Y-103650000I-218750J0D01*
G01*
X223393750Y-103650000D01*
G75*
G02*
X223175000Y-103431250I0J218750D01*
G01*
X223175000Y-102993750D01*
G75*
G02*
X223393750Y-102775000I218750J0D01*
G01*
G37*
%TD*%
%TO.C,D64*%
G36*
G01*
X242393750Y-102775000D02*
X242906250Y-102775000D01*
G75*
G02*
X243125000Y-102993750I0J-218750D01*
G01*
X243125000Y-103431250D01*
G75*
G02*
X242906250Y-103650000I-218750J0D01*
G01*
X242393750Y-103650000D01*
G75*
G02*
X242175000Y-103431250I0J218750D01*
G01*
X242175000Y-102993750D01*
G75*
G02*
X242393750Y-102775000I218750J0D01*
G01*
G37*
G36*
G01*
X242393750Y-104350000D02*
X242906250Y-104350000D01*
G75*
G02*
X243125000Y-104568750I0J-218750D01*
G01*
X243125000Y-105006250D01*
G75*
G02*
X242906250Y-105225000I-218750J0D01*
G01*
X242393750Y-105225000D01*
G75*
G02*
X242175000Y-105006250I0J218750D01*
G01*
X242175000Y-104568750D01*
G75*
G02*
X242393750Y-104350000I218750J0D01*
G01*
G37*
%TD*%
%TO.C,D65*%
G36*
G01*
X261393750Y-104350000D02*
X261906250Y-104350000D01*
G75*
G02*
X262125000Y-104568750I0J-218750D01*
G01*
X262125000Y-105006250D01*
G75*
G02*
X261906250Y-105225000I-218750J0D01*
G01*
X261393750Y-105225000D01*
G75*
G02*
X261175000Y-105006250I0J218750D01*
G01*
X261175000Y-104568750D01*
G75*
G02*
X261393750Y-104350000I218750J0D01*
G01*
G37*
G36*
G01*
X261393750Y-102775000D02*
X261906250Y-102775000D01*
G75*
G02*
X262125000Y-102993750I0J-218750D01*
G01*
X262125000Y-103431250D01*
G75*
G02*
X261906250Y-103650000I-218750J0D01*
G01*
X261393750Y-103650000D01*
G75*
G02*
X261175000Y-103431250I0J218750D01*
G01*
X261175000Y-102993750D01*
G75*
G02*
X261393750Y-102775000I218750J0D01*
G01*
G37*
%TD*%
%TO.C,D66*%
G36*
G01*
X280393750Y-102775000D02*
X280906250Y-102775000D01*
G75*
G02*
X281125000Y-102993750I0J-218750D01*
G01*
X281125000Y-103431250D01*
G75*
G02*
X280906250Y-103650000I-218750J0D01*
G01*
X280393750Y-103650000D01*
G75*
G02*
X280175000Y-103431250I0J218750D01*
G01*
X280175000Y-102993750D01*
G75*
G02*
X280393750Y-102775000I218750J0D01*
G01*
G37*
G36*
G01*
X280393750Y-104350000D02*
X280906250Y-104350000D01*
G75*
G02*
X281125000Y-104568750I0J-218750D01*
G01*
X281125000Y-105006250D01*
G75*
G02*
X280906250Y-105225000I-218750J0D01*
G01*
X280393750Y-105225000D01*
G75*
G02*
X280175000Y-105006250I0J218750D01*
G01*
X280175000Y-104568750D01*
G75*
G02*
X280393750Y-104350000I218750J0D01*
G01*
G37*
%TD*%
%TO.C,D67*%
G36*
G01*
X299393750Y-104350000D02*
X299906250Y-104350000D01*
G75*
G02*
X300125000Y-104568750I0J-218750D01*
G01*
X300125000Y-105006250D01*
G75*
G02*
X299906250Y-105225000I-218750J0D01*
G01*
X299393750Y-105225000D01*
G75*
G02*
X299175000Y-105006250I0J218750D01*
G01*
X299175000Y-104568750D01*
G75*
G02*
X299393750Y-104350000I218750J0D01*
G01*
G37*
G36*
G01*
X299393750Y-102775000D02*
X299906250Y-102775000D01*
G75*
G02*
X300125000Y-102993750I0J-218750D01*
G01*
X300125000Y-103431250D01*
G75*
G02*
X299906250Y-103650000I-218750J0D01*
G01*
X299393750Y-103650000D01*
G75*
G02*
X299175000Y-103431250I0J218750D01*
G01*
X299175000Y-102993750D01*
G75*
G02*
X299393750Y-102775000I218750J0D01*
G01*
G37*
%TD*%
%TO.C,D68*%
G36*
G01*
X318393750Y-104350000D02*
X318906250Y-104350000D01*
G75*
G02*
X319125000Y-104568750I0J-218750D01*
G01*
X319125000Y-105006250D01*
G75*
G02*
X318906250Y-105225000I-218750J0D01*
G01*
X318393750Y-105225000D01*
G75*
G02*
X318175000Y-105006250I0J218750D01*
G01*
X318175000Y-104568750D01*
G75*
G02*
X318393750Y-104350000I218750J0D01*
G01*
G37*
G36*
G01*
X318393750Y-102775000D02*
X318906250Y-102775000D01*
G75*
G02*
X319125000Y-102993750I0J-218750D01*
G01*
X319125000Y-103431250D01*
G75*
G02*
X318906250Y-103650000I-218750J0D01*
G01*
X318393750Y-103650000D01*
G75*
G02*
X318175000Y-103431250I0J218750D01*
G01*
X318175000Y-102993750D01*
G75*
G02*
X318393750Y-102775000I218750J0D01*
G01*
G37*
%TD*%
%TO.C,D69*%
G36*
G01*
X337393750Y-104350000D02*
X337906250Y-104350000D01*
G75*
G02*
X338125000Y-104568750I0J-218750D01*
G01*
X338125000Y-105006250D01*
G75*
G02*
X337906250Y-105225000I-218750J0D01*
G01*
X337393750Y-105225000D01*
G75*
G02*
X337175000Y-105006250I0J218750D01*
G01*
X337175000Y-104568750D01*
G75*
G02*
X337393750Y-104350000I218750J0D01*
G01*
G37*
G36*
G01*
X337393750Y-102775000D02*
X337906250Y-102775000D01*
G75*
G02*
X338125000Y-102993750I0J-218750D01*
G01*
X338125000Y-103431250D01*
G75*
G02*
X337906250Y-103650000I-218750J0D01*
G01*
X337393750Y-103650000D01*
G75*
G02*
X337175000Y-103431250I0J218750D01*
G01*
X337175000Y-102993750D01*
G75*
G02*
X337393750Y-102775000I218750J0D01*
G01*
G37*
%TD*%
%TO.C,D70*%
G36*
G01*
X29393750Y-121775000D02*
X29906250Y-121775000D01*
G75*
G02*
X30125000Y-121993750I0J-218750D01*
G01*
X30125000Y-122431250D01*
G75*
G02*
X29906250Y-122650000I-218750J0D01*
G01*
X29393750Y-122650000D01*
G75*
G02*
X29175000Y-122431250I0J218750D01*
G01*
X29175000Y-121993750D01*
G75*
G02*
X29393750Y-121775000I218750J0D01*
G01*
G37*
G36*
G01*
X29393750Y-123350000D02*
X29906250Y-123350000D01*
G75*
G02*
X30125000Y-123568750I0J-218750D01*
G01*
X30125000Y-124006250D01*
G75*
G02*
X29906250Y-124225000I-218750J0D01*
G01*
X29393750Y-124225000D01*
G75*
G02*
X29175000Y-124006250I0J218750D01*
G01*
X29175000Y-123568750D01*
G75*
G02*
X29393750Y-123350000I218750J0D01*
G01*
G37*
%TD*%
%TO.C,D71*%
G36*
G01*
X48393750Y-123350000D02*
X48906250Y-123350000D01*
G75*
G02*
X49125000Y-123568750I0J-218750D01*
G01*
X49125000Y-124006250D01*
G75*
G02*
X48906250Y-124225000I-218750J0D01*
G01*
X48393750Y-124225000D01*
G75*
G02*
X48175000Y-124006250I0J218750D01*
G01*
X48175000Y-123568750D01*
G75*
G02*
X48393750Y-123350000I218750J0D01*
G01*
G37*
G36*
G01*
X48393750Y-121775000D02*
X48906250Y-121775000D01*
G75*
G02*
X49125000Y-121993750I0J-218750D01*
G01*
X49125000Y-122431250D01*
G75*
G02*
X48906250Y-122650000I-218750J0D01*
G01*
X48393750Y-122650000D01*
G75*
G02*
X48175000Y-122431250I0J218750D01*
G01*
X48175000Y-121993750D01*
G75*
G02*
X48393750Y-121775000I218750J0D01*
G01*
G37*
%TD*%
%TO.C,D72*%
G36*
G01*
X67393750Y-121775000D02*
X67906250Y-121775000D01*
G75*
G02*
X68125000Y-121993750I0J-218750D01*
G01*
X68125000Y-122431250D01*
G75*
G02*
X67906250Y-122650000I-218750J0D01*
G01*
X67393750Y-122650000D01*
G75*
G02*
X67175000Y-122431250I0J218750D01*
G01*
X67175000Y-121993750D01*
G75*
G02*
X67393750Y-121775000I218750J0D01*
G01*
G37*
G36*
G01*
X67393750Y-123350000D02*
X67906250Y-123350000D01*
G75*
G02*
X68125000Y-123568750I0J-218750D01*
G01*
X68125000Y-124006250D01*
G75*
G02*
X67906250Y-124225000I-218750J0D01*
G01*
X67393750Y-124225000D01*
G75*
G02*
X67175000Y-124006250I0J218750D01*
G01*
X67175000Y-123568750D01*
G75*
G02*
X67393750Y-123350000I218750J0D01*
G01*
G37*
%TD*%
%TO.C,D73*%
G36*
G01*
X86393750Y-123350000D02*
X86906250Y-123350000D01*
G75*
G02*
X87125000Y-123568750I0J-218750D01*
G01*
X87125000Y-124006250D01*
G75*
G02*
X86906250Y-124225000I-218750J0D01*
G01*
X86393750Y-124225000D01*
G75*
G02*
X86175000Y-124006250I0J218750D01*
G01*
X86175000Y-123568750D01*
G75*
G02*
X86393750Y-123350000I218750J0D01*
G01*
G37*
G36*
G01*
X86393750Y-121775000D02*
X86906250Y-121775000D01*
G75*
G02*
X87125000Y-121993750I0J-218750D01*
G01*
X87125000Y-122431250D01*
G75*
G02*
X86906250Y-122650000I-218750J0D01*
G01*
X86393750Y-122650000D01*
G75*
G02*
X86175000Y-122431250I0J218750D01*
G01*
X86175000Y-121993750D01*
G75*
G02*
X86393750Y-121775000I218750J0D01*
G01*
G37*
%TD*%
%TO.C,D74*%
G36*
G01*
X114893750Y-121775000D02*
X115406250Y-121775000D01*
G75*
G02*
X115625000Y-121993750I0J-218750D01*
G01*
X115625000Y-122431250D01*
G75*
G02*
X115406250Y-122650000I-218750J0D01*
G01*
X114893750Y-122650000D01*
G75*
G02*
X114675000Y-122431250I0J218750D01*
G01*
X114675000Y-121993750D01*
G75*
G02*
X114893750Y-121775000I218750J0D01*
G01*
G37*
G36*
G01*
X114893750Y-123350000D02*
X115406250Y-123350000D01*
G75*
G02*
X115625000Y-123568750I0J-218750D01*
G01*
X115625000Y-124006250D01*
G75*
G02*
X115406250Y-124225000I-218750J0D01*
G01*
X114893750Y-124225000D01*
G75*
G02*
X114675000Y-124006250I0J218750D01*
G01*
X114675000Y-123568750D01*
G75*
G02*
X114893750Y-123350000I218750J0D01*
G01*
G37*
%TD*%
%TO.C,D75*%
G36*
G01*
X242393750Y-123350000D02*
X242906250Y-123350000D01*
G75*
G02*
X243125000Y-123568750I0J-218750D01*
G01*
X243125000Y-124006250D01*
G75*
G02*
X242906250Y-124225000I-218750J0D01*
G01*
X242393750Y-124225000D01*
G75*
G02*
X242175000Y-124006250I0J218750D01*
G01*
X242175000Y-123568750D01*
G75*
G02*
X242393750Y-123350000I218750J0D01*
G01*
G37*
G36*
G01*
X242393750Y-121775000D02*
X242906250Y-121775000D01*
G75*
G02*
X243125000Y-121993750I0J-218750D01*
G01*
X243125000Y-122431250D01*
G75*
G02*
X242906250Y-122650000I-218750J0D01*
G01*
X242393750Y-122650000D01*
G75*
G02*
X242175000Y-122431250I0J218750D01*
G01*
X242175000Y-121993750D01*
G75*
G02*
X242393750Y-121775000I218750J0D01*
G01*
G37*
%TD*%
%TO.C,D76*%
G36*
G01*
X261393750Y-121775000D02*
X261906250Y-121775000D01*
G75*
G02*
X262125000Y-121993750I0J-218750D01*
G01*
X262125000Y-122431250D01*
G75*
G02*
X261906250Y-122650000I-218750J0D01*
G01*
X261393750Y-122650000D01*
G75*
G02*
X261175000Y-122431250I0J218750D01*
G01*
X261175000Y-121993750D01*
G75*
G02*
X261393750Y-121775000I218750J0D01*
G01*
G37*
G36*
G01*
X261393750Y-123350000D02*
X261906250Y-123350000D01*
G75*
G02*
X262125000Y-123568750I0J-218750D01*
G01*
X262125000Y-124006250D01*
G75*
G02*
X261906250Y-124225000I-218750J0D01*
G01*
X261393750Y-124225000D01*
G75*
G02*
X261175000Y-124006250I0J218750D01*
G01*
X261175000Y-123568750D01*
G75*
G02*
X261393750Y-123350000I218750J0D01*
G01*
G37*
%TD*%
%TO.C,D77*%
G36*
G01*
X280393750Y-123350000D02*
X280906250Y-123350000D01*
G75*
G02*
X281125000Y-123568750I0J-218750D01*
G01*
X281125000Y-124006250D01*
G75*
G02*
X280906250Y-124225000I-218750J0D01*
G01*
X280393750Y-124225000D01*
G75*
G02*
X280175000Y-124006250I0J218750D01*
G01*
X280175000Y-123568750D01*
G75*
G02*
X280393750Y-123350000I218750J0D01*
G01*
G37*
G36*
G01*
X280393750Y-121775000D02*
X280906250Y-121775000D01*
G75*
G02*
X281125000Y-121993750I0J-218750D01*
G01*
X281125000Y-122431250D01*
G75*
G02*
X280906250Y-122650000I-218750J0D01*
G01*
X280393750Y-122650000D01*
G75*
G02*
X280175000Y-122431250I0J218750D01*
G01*
X280175000Y-121993750D01*
G75*
G02*
X280393750Y-121775000I218750J0D01*
G01*
G37*
%TD*%
%TO.C,D78*%
G36*
G01*
X299393750Y-121775000D02*
X299906250Y-121775000D01*
G75*
G02*
X300125000Y-121993750I0J-218750D01*
G01*
X300125000Y-122431250D01*
G75*
G02*
X299906250Y-122650000I-218750J0D01*
G01*
X299393750Y-122650000D01*
G75*
G02*
X299175000Y-122431250I0J218750D01*
G01*
X299175000Y-121993750D01*
G75*
G02*
X299393750Y-121775000I218750J0D01*
G01*
G37*
G36*
G01*
X299393750Y-123350000D02*
X299906250Y-123350000D01*
G75*
G02*
X300125000Y-123568750I0J-218750D01*
G01*
X300125000Y-124006250D01*
G75*
G02*
X299906250Y-124225000I-218750J0D01*
G01*
X299393750Y-124225000D01*
G75*
G02*
X299175000Y-124006250I0J218750D01*
G01*
X299175000Y-123568750D01*
G75*
G02*
X299393750Y-123350000I218750J0D01*
G01*
G37*
%TD*%
%TO.C,D79*%
G36*
G01*
X318393750Y-123350000D02*
X318906250Y-123350000D01*
G75*
G02*
X319125000Y-123568750I0J-218750D01*
G01*
X319125000Y-124006250D01*
G75*
G02*
X318906250Y-124225000I-218750J0D01*
G01*
X318393750Y-124225000D01*
G75*
G02*
X318175000Y-124006250I0J218750D01*
G01*
X318175000Y-123568750D01*
G75*
G02*
X318393750Y-123350000I218750J0D01*
G01*
G37*
G36*
G01*
X318393750Y-121775000D02*
X318906250Y-121775000D01*
G75*
G02*
X319125000Y-121993750I0J-218750D01*
G01*
X319125000Y-122431250D01*
G75*
G02*
X318906250Y-122650000I-218750J0D01*
G01*
X318393750Y-122650000D01*
G75*
G02*
X318175000Y-122431250I0J218750D01*
G01*
X318175000Y-121993750D01*
G75*
G02*
X318393750Y-121775000I218750J0D01*
G01*
G37*
%TD*%
%TO.C,D80*%
G36*
G01*
X337393750Y-121775000D02*
X337906250Y-121775000D01*
G75*
G02*
X338125000Y-121993750I0J-218750D01*
G01*
X338125000Y-122431250D01*
G75*
G02*
X337906250Y-122650000I-218750J0D01*
G01*
X337393750Y-122650000D01*
G75*
G02*
X337175000Y-122431250I0J218750D01*
G01*
X337175000Y-121993750D01*
G75*
G02*
X337393750Y-121775000I218750J0D01*
G01*
G37*
G36*
G01*
X337393750Y-123350000D02*
X337906250Y-123350000D01*
G75*
G02*
X338125000Y-123568750I0J-218750D01*
G01*
X338125000Y-124006250D01*
G75*
G02*
X337906250Y-124225000I-218750J0D01*
G01*
X337393750Y-124225000D01*
G75*
G02*
X337175000Y-124006250I0J218750D01*
G01*
X337175000Y-123568750D01*
G75*
G02*
X337393750Y-123350000I218750J0D01*
G01*
G37*
%TD*%
M02*
