%TF.GenerationSoftware,KiCad,Pcbnew,5.1.10-1.fc34*%
%TF.CreationDate,2021-08-03T16:02:25+03:00*%
%TF.ProjectId,keyboard,6b657962-6f61-4726-942e-6b696361645f,rev?*%
%TF.SameCoordinates,Original*%
%TF.FileFunction,Soldermask,Bot*%
%TF.FilePolarity,Negative*%
%FSLAX46Y46*%
G04 Gerber Fmt 4.6, Leading zero omitted, Abs format (unit mm)*
G04 Created by KiCad (PCBNEW 5.1.10-1.fc34) date 2021-08-03 16:02:25*
%MOMM*%
%LPD*%
G01*
G04 APERTURE LIST*
%ADD10R,2.400000X2.000000*%
%ADD11R,1.500000X0.550000*%
%ADD12R,0.550000X1.500000*%
%ADD13C,0.650000*%
%ADD14O,0.650000X0.950000*%
%ADD15O,1.400000X0.800000*%
%ADD16R,0.700000X0.300000*%
%ADD17O,1.700000X1.700000*%
%ADD18R,1.700000X1.700000*%
%ADD19C,1.700000*%
%ADD20C,4.000000*%
%ADD21C,2.200000*%
%ADD22C,3.050000*%
G04 APERTURE END LIST*
%TO.C,C5*%
G36*
G01*
X50138000Y-21246000D02*
X49938000Y-21246000D01*
G75*
G02*
X49838000Y-21146000I0J100000D01*
G01*
X49838000Y-20886000D01*
G75*
G02*
X49938000Y-20786000I100000J0D01*
G01*
X50138000Y-20786000D01*
G75*
G02*
X50238000Y-20886000I0J-100000D01*
G01*
X50238000Y-21146000D01*
G75*
G02*
X50138000Y-21246000I-100000J0D01*
G01*
G37*
G36*
G01*
X50138000Y-21886000D02*
X49938000Y-21886000D01*
G75*
G02*
X49838000Y-21786000I0J100000D01*
G01*
X49838000Y-21526000D01*
G75*
G02*
X49938000Y-21426000I100000J0D01*
G01*
X50138000Y-21426000D01*
G75*
G02*
X50238000Y-21526000I0J-100000D01*
G01*
X50238000Y-21786000D01*
G75*
G02*
X50138000Y-21886000I-100000J0D01*
G01*
G37*
%TD*%
D10*
%TO.C,Y1*%
X68072000Y-19486000D03*
X68072000Y-23186000D03*
%TD*%
%TO.C,C6*%
G36*
G01*
X332894000Y-22188000D02*
X333094000Y-22188000D01*
G75*
G02*
X333194000Y-22288000I0J-100000D01*
G01*
X333194000Y-22548000D01*
G75*
G02*
X333094000Y-22648000I-100000J0D01*
G01*
X332894000Y-22648000D01*
G75*
G02*
X332794000Y-22548000I0J100000D01*
G01*
X332794000Y-22288000D01*
G75*
G02*
X332894000Y-22188000I100000J0D01*
G01*
G37*
G36*
G01*
X332894000Y-21548000D02*
X333094000Y-21548000D01*
G75*
G02*
X333194000Y-21648000I0J-100000D01*
G01*
X333194000Y-21908000D01*
G75*
G02*
X333094000Y-22008000I-100000J0D01*
G01*
X332894000Y-22008000D01*
G75*
G02*
X332794000Y-21908000I0J100000D01*
G01*
X332794000Y-21648000D01*
G75*
G02*
X332894000Y-21548000I100000J0D01*
G01*
G37*
%TD*%
%TO.C,Y2*%
X318516000Y-19740000D03*
X318516000Y-23440000D03*
%TD*%
D11*
%TO.C,U2*%
X299862000Y-13780000D03*
X299862000Y-14580000D03*
X299862000Y-15380000D03*
X299862000Y-16180000D03*
X299862000Y-16980000D03*
X299862000Y-17780000D03*
X299862000Y-18580000D03*
X299862000Y-19380000D03*
X299862000Y-20180000D03*
X299862000Y-20980000D03*
X299862000Y-21780000D03*
D12*
X301562000Y-23480000D03*
X302362000Y-23480000D03*
X303162000Y-23480000D03*
X303962000Y-23480000D03*
X304762000Y-23480000D03*
X305562000Y-23480000D03*
X306362000Y-23480000D03*
X307162000Y-23480000D03*
X307962000Y-23480000D03*
X308762000Y-23480000D03*
X309562000Y-23480000D03*
D11*
X311262000Y-21780000D03*
X311262000Y-20980000D03*
X311262000Y-20180000D03*
X311262000Y-19380000D03*
X311262000Y-18580000D03*
X311262000Y-17780000D03*
X311262000Y-16980000D03*
X311262000Y-16180000D03*
X311262000Y-15380000D03*
X311262000Y-14580000D03*
X311262000Y-13780000D03*
D12*
X309562000Y-12080000D03*
X308762000Y-12080000D03*
X307962000Y-12080000D03*
X307162000Y-12080000D03*
X306362000Y-12080000D03*
X305562000Y-12080000D03*
X304762000Y-12080000D03*
X303962000Y-12080000D03*
X303162000Y-12080000D03*
X302362000Y-12080000D03*
X301562000Y-12080000D03*
%TD*%
D11*
%TO.C,U1*%
X51704000Y-13780000D03*
X51704000Y-14580000D03*
X51704000Y-15380000D03*
X51704000Y-16180000D03*
X51704000Y-16980000D03*
X51704000Y-17780000D03*
X51704000Y-18580000D03*
X51704000Y-19380000D03*
X51704000Y-20180000D03*
X51704000Y-20980000D03*
X51704000Y-21780000D03*
D12*
X53404000Y-23480000D03*
X54204000Y-23480000D03*
X55004000Y-23480000D03*
X55804000Y-23480000D03*
X56604000Y-23480000D03*
X57404000Y-23480000D03*
X58204000Y-23480000D03*
X59004000Y-23480000D03*
X59804000Y-23480000D03*
X60604000Y-23480000D03*
X61404000Y-23480000D03*
D11*
X63104000Y-21780000D03*
X63104000Y-20980000D03*
X63104000Y-20180000D03*
X63104000Y-19380000D03*
X63104000Y-18580000D03*
X63104000Y-17780000D03*
X63104000Y-16980000D03*
X63104000Y-16180000D03*
X63104000Y-15380000D03*
X63104000Y-14580000D03*
X63104000Y-13780000D03*
D12*
X61404000Y-12080000D03*
X60604000Y-12080000D03*
X59804000Y-12080000D03*
X59004000Y-12080000D03*
X58204000Y-12080000D03*
X57404000Y-12080000D03*
X56604000Y-12080000D03*
X55804000Y-12080000D03*
X55004000Y-12080000D03*
X54204000Y-12080000D03*
X53404000Y-12080000D03*
%TD*%
%TO.C,R16*%
G36*
G01*
X230207000Y-22077000D02*
X230207000Y-22627000D01*
G75*
G02*
X230007000Y-22827000I-200000J0D01*
G01*
X229607000Y-22827000D01*
G75*
G02*
X229407000Y-22627000I0J200000D01*
G01*
X229407000Y-22077000D01*
G75*
G02*
X229607000Y-21877000I200000J0D01*
G01*
X230007000Y-21877000D01*
G75*
G02*
X230207000Y-22077000I0J-200000D01*
G01*
G37*
G36*
G01*
X231857000Y-22077000D02*
X231857000Y-22627000D01*
G75*
G02*
X231657000Y-22827000I-200000J0D01*
G01*
X231257000Y-22827000D01*
G75*
G02*
X231057000Y-22627000I0J200000D01*
G01*
X231057000Y-22077000D01*
G75*
G02*
X231257000Y-21877000I200000J0D01*
G01*
X231657000Y-21877000D01*
G75*
G02*
X231857000Y-22077000I0J-200000D01*
G01*
G37*
%TD*%
%TO.C,R15*%
G36*
G01*
X144697000Y-13483000D02*
X144697000Y-12933000D01*
G75*
G02*
X144897000Y-12733000I200000J0D01*
G01*
X145297000Y-12733000D01*
G75*
G02*
X145497000Y-12933000I0J-200000D01*
G01*
X145497000Y-13483000D01*
G75*
G02*
X145297000Y-13683000I-200000J0D01*
G01*
X144897000Y-13683000D01*
G75*
G02*
X144697000Y-13483000I0J200000D01*
G01*
G37*
G36*
G01*
X143047000Y-13483000D02*
X143047000Y-12933000D01*
G75*
G02*
X143247000Y-12733000I200000J0D01*
G01*
X143647000Y-12733000D01*
G75*
G02*
X143847000Y-12933000I0J-200000D01*
G01*
X143847000Y-13483000D01*
G75*
G02*
X143647000Y-13683000I-200000J0D01*
G01*
X143247000Y-13683000D01*
G75*
G02*
X143047000Y-13483000I0J200000D01*
G01*
G37*
%TD*%
%TO.C,R14*%
G36*
G01*
X230207000Y-17251000D02*
X230207000Y-17801000D01*
G75*
G02*
X230007000Y-18001000I-200000J0D01*
G01*
X229607000Y-18001000D01*
G75*
G02*
X229407000Y-17801000I0J200000D01*
G01*
X229407000Y-17251000D01*
G75*
G02*
X229607000Y-17051000I200000J0D01*
G01*
X230007000Y-17051000D01*
G75*
G02*
X230207000Y-17251000I0J-200000D01*
G01*
G37*
G36*
G01*
X231857000Y-17251000D02*
X231857000Y-17801000D01*
G75*
G02*
X231657000Y-18001000I-200000J0D01*
G01*
X231257000Y-18001000D01*
G75*
G02*
X231057000Y-17801000I0J200000D01*
G01*
X231057000Y-17251000D01*
G75*
G02*
X231257000Y-17051000I200000J0D01*
G01*
X231657000Y-17051000D01*
G75*
G02*
X231857000Y-17251000I0J-200000D01*
G01*
G37*
%TD*%
%TO.C,R13*%
G36*
G01*
X144697000Y-18309000D02*
X144697000Y-17759000D01*
G75*
G02*
X144897000Y-17559000I200000J0D01*
G01*
X145297000Y-17559000D01*
G75*
G02*
X145497000Y-17759000I0J-200000D01*
G01*
X145497000Y-18309000D01*
G75*
G02*
X145297000Y-18509000I-200000J0D01*
G01*
X144897000Y-18509000D01*
G75*
G02*
X144697000Y-18309000I0J200000D01*
G01*
G37*
G36*
G01*
X143047000Y-18309000D02*
X143047000Y-17759000D01*
G75*
G02*
X143247000Y-17559000I200000J0D01*
G01*
X143647000Y-17559000D01*
G75*
G02*
X143847000Y-17759000I0J-200000D01*
G01*
X143847000Y-18309000D01*
G75*
G02*
X143647000Y-18509000I-200000J0D01*
G01*
X143247000Y-18509000D01*
G75*
G02*
X143047000Y-18309000I0J200000D01*
G01*
G37*
%TD*%
%TO.C,R12*%
G36*
G01*
X322601000Y-19578000D02*
X322051000Y-19578000D01*
G75*
G02*
X321851000Y-19378000I0J200000D01*
G01*
X321851000Y-18978000D01*
G75*
G02*
X322051000Y-18778000I200000J0D01*
G01*
X322601000Y-18778000D01*
G75*
G02*
X322801000Y-18978000I0J-200000D01*
G01*
X322801000Y-19378000D01*
G75*
G02*
X322601000Y-19578000I-200000J0D01*
G01*
G37*
G36*
G01*
X322601000Y-21228000D02*
X322051000Y-21228000D01*
G75*
G02*
X321851000Y-21028000I0J200000D01*
G01*
X321851000Y-20628000D01*
G75*
G02*
X322051000Y-20428000I200000J0D01*
G01*
X322601000Y-20428000D01*
G75*
G02*
X322801000Y-20628000I0J-200000D01*
G01*
X322801000Y-21028000D01*
G75*
G02*
X322601000Y-21228000I-200000J0D01*
G01*
G37*
%TD*%
%TO.C,R11*%
G36*
G01*
X71903000Y-22689000D02*
X71353000Y-22689000D01*
G75*
G02*
X71153000Y-22489000I0J200000D01*
G01*
X71153000Y-22089000D01*
G75*
G02*
X71353000Y-21889000I200000J0D01*
G01*
X71903000Y-21889000D01*
G75*
G02*
X72103000Y-22089000I0J-200000D01*
G01*
X72103000Y-22489000D01*
G75*
G02*
X71903000Y-22689000I-200000J0D01*
G01*
G37*
G36*
G01*
X71903000Y-24339000D02*
X71353000Y-24339000D01*
G75*
G02*
X71153000Y-24139000I0J200000D01*
G01*
X71153000Y-23739000D01*
G75*
G02*
X71353000Y-23539000I200000J0D01*
G01*
X71903000Y-23539000D01*
G75*
G02*
X72103000Y-23739000I0J-200000D01*
G01*
X72103000Y-24139000D01*
G75*
G02*
X71903000Y-24339000I-200000J0D01*
G01*
G37*
%TD*%
%TO.C,R10*%
G36*
G01*
X297667000Y-22269000D02*
X298217000Y-22269000D01*
G75*
G02*
X298417000Y-22469000I0J-200000D01*
G01*
X298417000Y-22869000D01*
G75*
G02*
X298217000Y-23069000I-200000J0D01*
G01*
X297667000Y-23069000D01*
G75*
G02*
X297467000Y-22869000I0J200000D01*
G01*
X297467000Y-22469000D01*
G75*
G02*
X297667000Y-22269000I200000J0D01*
G01*
G37*
G36*
G01*
X297667000Y-20619000D02*
X298217000Y-20619000D01*
G75*
G02*
X298417000Y-20819000I0J-200000D01*
G01*
X298417000Y-21219000D01*
G75*
G02*
X298217000Y-21419000I-200000J0D01*
G01*
X297667000Y-21419000D01*
G75*
G02*
X297467000Y-21219000I0J200000D01*
G01*
X297467000Y-20819000D01*
G75*
G02*
X297667000Y-20619000I200000J0D01*
G01*
G37*
%TD*%
%TO.C,R9*%
G36*
G01*
X51479000Y-25675000D02*
X51479000Y-25125000D01*
G75*
G02*
X51679000Y-24925000I200000J0D01*
G01*
X52079000Y-24925000D01*
G75*
G02*
X52279000Y-25125000I0J-200000D01*
G01*
X52279000Y-25675000D01*
G75*
G02*
X52079000Y-25875000I-200000J0D01*
G01*
X51679000Y-25875000D01*
G75*
G02*
X51479000Y-25675000I0J200000D01*
G01*
G37*
G36*
G01*
X49829000Y-25675000D02*
X49829000Y-25125000D01*
G75*
G02*
X50029000Y-24925000I200000J0D01*
G01*
X50429000Y-24925000D01*
G75*
G02*
X50629000Y-25125000I0J-200000D01*
G01*
X50629000Y-25675000D01*
G75*
G02*
X50429000Y-25875000I-200000J0D01*
G01*
X50029000Y-25875000D01*
G75*
G02*
X49829000Y-25675000I0J200000D01*
G01*
G37*
%TD*%
%TO.C,R8*%
G36*
G01*
X337991000Y-15261000D02*
X337991000Y-14711000D01*
G75*
G02*
X338191000Y-14511000I200000J0D01*
G01*
X338591000Y-14511000D01*
G75*
G02*
X338791000Y-14711000I0J-200000D01*
G01*
X338791000Y-15261000D01*
G75*
G02*
X338591000Y-15461000I-200000J0D01*
G01*
X338191000Y-15461000D01*
G75*
G02*
X337991000Y-15261000I0J200000D01*
G01*
G37*
G36*
G01*
X336341000Y-15261000D02*
X336341000Y-14711000D01*
G75*
G02*
X336541000Y-14511000I200000J0D01*
G01*
X336941000Y-14511000D01*
G75*
G02*
X337141000Y-14711000I0J-200000D01*
G01*
X337141000Y-15261000D01*
G75*
G02*
X336941000Y-15461000I-200000J0D01*
G01*
X336541000Y-15461000D01*
G75*
G02*
X336341000Y-15261000I0J200000D01*
G01*
G37*
%TD*%
%TO.C,R7*%
G36*
G01*
X36913000Y-20299000D02*
X36913000Y-20849000D01*
G75*
G02*
X36713000Y-21049000I-200000J0D01*
G01*
X36313000Y-21049000D01*
G75*
G02*
X36113000Y-20849000I0J200000D01*
G01*
X36113000Y-20299000D01*
G75*
G02*
X36313000Y-20099000I200000J0D01*
G01*
X36713000Y-20099000D01*
G75*
G02*
X36913000Y-20299000I0J-200000D01*
G01*
G37*
G36*
G01*
X38563000Y-20299000D02*
X38563000Y-20849000D01*
G75*
G02*
X38363000Y-21049000I-200000J0D01*
G01*
X37963000Y-21049000D01*
G75*
G02*
X37763000Y-20849000I0J200000D01*
G01*
X37763000Y-20299000D01*
G75*
G02*
X37963000Y-20099000I200000J0D01*
G01*
X38363000Y-20099000D01*
G75*
G02*
X38563000Y-20299000I0J-200000D01*
G01*
G37*
%TD*%
%TO.C,R6*%
G36*
G01*
X337991000Y-18309000D02*
X337991000Y-17759000D01*
G75*
G02*
X338191000Y-17559000I200000J0D01*
G01*
X338591000Y-17559000D01*
G75*
G02*
X338791000Y-17759000I0J-200000D01*
G01*
X338791000Y-18309000D01*
G75*
G02*
X338591000Y-18509000I-200000J0D01*
G01*
X338191000Y-18509000D01*
G75*
G02*
X337991000Y-18309000I0J200000D01*
G01*
G37*
G36*
G01*
X336341000Y-18309000D02*
X336341000Y-17759000D01*
G75*
G02*
X336541000Y-17559000I200000J0D01*
G01*
X336941000Y-17559000D01*
G75*
G02*
X337141000Y-17759000I0J-200000D01*
G01*
X337141000Y-18309000D01*
G75*
G02*
X336941000Y-18509000I-200000J0D01*
G01*
X336541000Y-18509000D01*
G75*
G02*
X336341000Y-18309000I0J200000D01*
G01*
G37*
%TD*%
%TO.C,R5*%
G36*
G01*
X35389000Y-15981000D02*
X35389000Y-16531000D01*
G75*
G02*
X35189000Y-16731000I-200000J0D01*
G01*
X34789000Y-16731000D01*
G75*
G02*
X34589000Y-16531000I0J200000D01*
G01*
X34589000Y-15981000D01*
G75*
G02*
X34789000Y-15781000I200000J0D01*
G01*
X35189000Y-15781000D01*
G75*
G02*
X35389000Y-15981000I0J-200000D01*
G01*
G37*
G36*
G01*
X37039000Y-15981000D02*
X37039000Y-16531000D01*
G75*
G02*
X36839000Y-16731000I-200000J0D01*
G01*
X36439000Y-16731000D01*
G75*
G02*
X36239000Y-16531000I0J200000D01*
G01*
X36239000Y-15981000D01*
G75*
G02*
X36439000Y-15781000I200000J0D01*
G01*
X36839000Y-15781000D01*
G75*
G02*
X37039000Y-15981000I0J-200000D01*
G01*
G37*
%TD*%
%TO.C,R4*%
G36*
G01*
X339769000Y-22627000D02*
X339769000Y-22077000D01*
G75*
G02*
X339969000Y-21877000I200000J0D01*
G01*
X340369000Y-21877000D01*
G75*
G02*
X340569000Y-22077000I0J-200000D01*
G01*
X340569000Y-22627000D01*
G75*
G02*
X340369000Y-22827000I-200000J0D01*
G01*
X339969000Y-22827000D01*
G75*
G02*
X339769000Y-22627000I0J200000D01*
G01*
G37*
G36*
G01*
X338119000Y-22627000D02*
X338119000Y-22077000D01*
G75*
G02*
X338319000Y-21877000I200000J0D01*
G01*
X338719000Y-21877000D01*
G75*
G02*
X338919000Y-22077000I0J-200000D01*
G01*
X338919000Y-22627000D01*
G75*
G02*
X338719000Y-22827000I-200000J0D01*
G01*
X338319000Y-22827000D01*
G75*
G02*
X338119000Y-22627000I0J200000D01*
G01*
G37*
%TD*%
%TO.C,R3*%
G36*
G01*
X36239000Y-13483000D02*
X36239000Y-12933000D01*
G75*
G02*
X36439000Y-12733000I200000J0D01*
G01*
X36839000Y-12733000D01*
G75*
G02*
X37039000Y-12933000I0J-200000D01*
G01*
X37039000Y-13483000D01*
G75*
G02*
X36839000Y-13683000I-200000J0D01*
G01*
X36439000Y-13683000D01*
G75*
G02*
X36239000Y-13483000I0J200000D01*
G01*
G37*
G36*
G01*
X34589000Y-13483000D02*
X34589000Y-12933000D01*
G75*
G02*
X34789000Y-12733000I200000J0D01*
G01*
X35189000Y-12733000D01*
G75*
G02*
X35389000Y-12933000I0J-200000D01*
G01*
X35389000Y-13483000D01*
G75*
G02*
X35189000Y-13683000I-200000J0D01*
G01*
X34789000Y-13683000D01*
G75*
G02*
X34589000Y-13483000I0J200000D01*
G01*
G37*
%TD*%
%TO.C,R2*%
G36*
G01*
X339577000Y-16173000D02*
X340127000Y-16173000D01*
G75*
G02*
X340327000Y-16373000I0J-200000D01*
G01*
X340327000Y-16773000D01*
G75*
G02*
X340127000Y-16973000I-200000J0D01*
G01*
X339577000Y-16973000D01*
G75*
G02*
X339377000Y-16773000I0J200000D01*
G01*
X339377000Y-16373000D01*
G75*
G02*
X339577000Y-16173000I200000J0D01*
G01*
G37*
G36*
G01*
X339577000Y-14523000D02*
X340127000Y-14523000D01*
G75*
G02*
X340327000Y-14723000I0J-200000D01*
G01*
X340327000Y-15123000D01*
G75*
G02*
X340127000Y-15323000I-200000J0D01*
G01*
X339577000Y-15323000D01*
G75*
G02*
X339377000Y-15123000I0J200000D01*
G01*
X339377000Y-14723000D01*
G75*
G02*
X339577000Y-14523000I200000J0D01*
G01*
G37*
%TD*%
%TO.C,R1*%
G36*
G01*
X35327000Y-19387000D02*
X34777000Y-19387000D01*
G75*
G02*
X34577000Y-19187000I0J200000D01*
G01*
X34577000Y-18787000D01*
G75*
G02*
X34777000Y-18587000I200000J0D01*
G01*
X35327000Y-18587000D01*
G75*
G02*
X35527000Y-18787000I0J-200000D01*
G01*
X35527000Y-19187000D01*
G75*
G02*
X35327000Y-19387000I-200000J0D01*
G01*
G37*
G36*
G01*
X35327000Y-21037000D02*
X34777000Y-21037000D01*
G75*
G02*
X34577000Y-20837000I0J200000D01*
G01*
X34577000Y-20437000D01*
G75*
G02*
X34777000Y-20237000I200000J0D01*
G01*
X35327000Y-20237000D01*
G75*
G02*
X35527000Y-20437000I0J-200000D01*
G01*
X35527000Y-20837000D01*
G75*
G02*
X35327000Y-21037000I-200000J0D01*
G01*
G37*
%TD*%
D13*
%TO.C,J6*%
X225768000Y-20180000D03*
X225768000Y-19380000D03*
X225768000Y-18580000D03*
X225768000Y-16980000D03*
X225768000Y-16180000D03*
X225768000Y-15380000D03*
X226468000Y-20580000D03*
X226468000Y-18980000D03*
X226468000Y-18180000D03*
X226468000Y-17380000D03*
X226468000Y-16580000D03*
X226468000Y-14980000D03*
X227118000Y-21380000D03*
D14*
X227118000Y-14180000D03*
D15*
X219918000Y-22270000D03*
X219918000Y-13290000D03*
X225868000Y-13650000D03*
D16*
X227778000Y-15530000D03*
X227778000Y-17030000D03*
X227778000Y-16530000D03*
X227778000Y-16030000D03*
X227778000Y-15030000D03*
X227778000Y-17530000D03*
X227778000Y-18030000D03*
X227778000Y-18530000D03*
X227778000Y-19030000D03*
X227778000Y-19530000D03*
X227778000Y-20030000D03*
X227778000Y-20530000D03*
D15*
X225868000Y-21910000D03*
%TD*%
D13*
%TO.C,J5*%
X149136000Y-15380000D03*
X149136000Y-16180000D03*
X149136000Y-16980000D03*
X149136000Y-18580000D03*
X149136000Y-19380000D03*
X149136000Y-20180000D03*
X148436000Y-14980000D03*
X148436000Y-16580000D03*
X148436000Y-17380000D03*
X148436000Y-18180000D03*
X148436000Y-18980000D03*
X148436000Y-20580000D03*
X147786000Y-14180000D03*
D14*
X147786000Y-21380000D03*
D15*
X154986000Y-13290000D03*
X154986000Y-22270000D03*
X149036000Y-21910000D03*
D16*
X147126000Y-20030000D03*
X147126000Y-18530000D03*
X147126000Y-19030000D03*
X147126000Y-19530000D03*
X147126000Y-20530000D03*
X147126000Y-18030000D03*
X147126000Y-17530000D03*
X147126000Y-17030000D03*
X147126000Y-16530000D03*
X147126000Y-16030000D03*
X147126000Y-15530000D03*
X147126000Y-15030000D03*
D15*
X149036000Y-13650000D03*
%TD*%
D17*
%TO.C,J4*%
X325120000Y-22860000D03*
D18*
X325120000Y-20320000D03*
%TD*%
D17*
%TO.C,J3*%
X74168000Y-22860000D03*
D18*
X74168000Y-20320000D03*
%TD*%
D13*
%TO.C,J2*%
X343700000Y-15380000D03*
X343700000Y-16180000D03*
X343700000Y-16980000D03*
X343700000Y-18580000D03*
X343700000Y-19380000D03*
X343700000Y-20180000D03*
X343000000Y-14980000D03*
X343000000Y-16580000D03*
X343000000Y-17380000D03*
X343000000Y-18180000D03*
X343000000Y-18980000D03*
X343000000Y-20580000D03*
X342350000Y-14180000D03*
D14*
X342350000Y-21380000D03*
D15*
X349550000Y-13290000D03*
X349550000Y-22270000D03*
X343600000Y-21910000D03*
D16*
X341690000Y-20030000D03*
X341690000Y-18530000D03*
X341690000Y-19030000D03*
X341690000Y-19530000D03*
X341690000Y-20530000D03*
X341690000Y-18030000D03*
X341690000Y-17530000D03*
X341690000Y-17030000D03*
X341690000Y-16530000D03*
X341690000Y-16030000D03*
X341690000Y-15530000D03*
X341690000Y-15030000D03*
D15*
X343600000Y-13650000D03*
%TD*%
D13*
%TO.C,J1*%
X31204000Y-20180000D03*
X31204000Y-19380000D03*
X31204000Y-18580000D03*
X31204000Y-16980000D03*
X31204000Y-16180000D03*
X31204000Y-15380000D03*
X31904000Y-20580000D03*
X31904000Y-18980000D03*
X31904000Y-18180000D03*
X31904000Y-17380000D03*
X31904000Y-16580000D03*
X31904000Y-14980000D03*
X32554000Y-21380000D03*
D14*
X32554000Y-14180000D03*
D15*
X25354000Y-22270000D03*
X25354000Y-13290000D03*
X31304000Y-13650000D03*
D16*
X33214000Y-15530000D03*
X33214000Y-17030000D03*
X33214000Y-16530000D03*
X33214000Y-16030000D03*
X33214000Y-15030000D03*
X33214000Y-17530000D03*
X33214000Y-18030000D03*
X33214000Y-18530000D03*
X33214000Y-19030000D03*
X33214000Y-19530000D03*
X33214000Y-20030000D03*
X33214000Y-20530000D03*
D15*
X31304000Y-21910000D03*
%TD*%
%TO.C,C16*%
G36*
G01*
X305144000Y-10514000D02*
X305144000Y-10314000D01*
G75*
G02*
X305244000Y-10214000I100000J0D01*
G01*
X305504000Y-10214000D01*
G75*
G02*
X305604000Y-10314000I0J-100000D01*
G01*
X305604000Y-10514000D01*
G75*
G02*
X305504000Y-10614000I-100000J0D01*
G01*
X305244000Y-10614000D01*
G75*
G02*
X305144000Y-10514000I0J100000D01*
G01*
G37*
G36*
G01*
X304504000Y-10514000D02*
X304504000Y-10314000D01*
G75*
G02*
X304604000Y-10214000I100000J0D01*
G01*
X304864000Y-10214000D01*
G75*
G02*
X304964000Y-10314000I0J-100000D01*
G01*
X304964000Y-10514000D01*
G75*
G02*
X304864000Y-10614000I-100000J0D01*
G01*
X304604000Y-10614000D01*
G75*
G02*
X304504000Y-10514000I0J100000D01*
G01*
G37*
%TD*%
%TO.C,C15*%
G36*
G01*
X57052000Y-10514000D02*
X57052000Y-10314000D01*
G75*
G02*
X57152000Y-10214000I100000J0D01*
G01*
X57412000Y-10214000D01*
G75*
G02*
X57512000Y-10314000I0J-100000D01*
G01*
X57512000Y-10514000D01*
G75*
G02*
X57412000Y-10614000I-100000J0D01*
G01*
X57152000Y-10614000D01*
G75*
G02*
X57052000Y-10514000I0J100000D01*
G01*
G37*
G36*
G01*
X56412000Y-10514000D02*
X56412000Y-10314000D01*
G75*
G02*
X56512000Y-10214000I100000J0D01*
G01*
X56772000Y-10214000D01*
G75*
G02*
X56872000Y-10314000I0J-100000D01*
G01*
X56872000Y-10514000D01*
G75*
G02*
X56772000Y-10614000I-100000J0D01*
G01*
X56512000Y-10614000D01*
G75*
G02*
X56412000Y-10514000I0J100000D01*
G01*
G37*
%TD*%
%TO.C,C14*%
G36*
G01*
X316330000Y-23786000D02*
X316130000Y-23786000D01*
G75*
G02*
X316030000Y-23686000I0J100000D01*
G01*
X316030000Y-23426000D01*
G75*
G02*
X316130000Y-23326000I100000J0D01*
G01*
X316330000Y-23326000D01*
G75*
G02*
X316430000Y-23426000I0J-100000D01*
G01*
X316430000Y-23686000D01*
G75*
G02*
X316330000Y-23786000I-100000J0D01*
G01*
G37*
G36*
G01*
X316330000Y-24426000D02*
X316130000Y-24426000D01*
G75*
G02*
X316030000Y-24326000I0J100000D01*
G01*
X316030000Y-24066000D01*
G75*
G02*
X316130000Y-23966000I100000J0D01*
G01*
X316330000Y-23966000D01*
G75*
G02*
X316430000Y-24066000I0J-100000D01*
G01*
X316430000Y-24326000D01*
G75*
G02*
X316330000Y-24426000I-100000J0D01*
G01*
G37*
%TD*%
%TO.C,C13*%
G36*
G01*
X65886000Y-23532000D02*
X65686000Y-23532000D01*
G75*
G02*
X65586000Y-23432000I0J100000D01*
G01*
X65586000Y-23172000D01*
G75*
G02*
X65686000Y-23072000I100000J0D01*
G01*
X65886000Y-23072000D01*
G75*
G02*
X65986000Y-23172000I0J-100000D01*
G01*
X65986000Y-23432000D01*
G75*
G02*
X65886000Y-23532000I-100000J0D01*
G01*
G37*
G36*
G01*
X65886000Y-24172000D02*
X65686000Y-24172000D01*
G75*
G02*
X65586000Y-24072000I0J100000D01*
G01*
X65586000Y-23812000D01*
G75*
G02*
X65686000Y-23712000I100000J0D01*
G01*
X65886000Y-23712000D01*
G75*
G02*
X65986000Y-23812000I0J-100000D01*
G01*
X65986000Y-24072000D01*
G75*
G02*
X65886000Y-24172000I-100000J0D01*
G01*
G37*
%TD*%
%TO.C,C12*%
G36*
G01*
X315368000Y-23966000D02*
X315568000Y-23966000D01*
G75*
G02*
X315668000Y-24066000I0J-100000D01*
G01*
X315668000Y-24326000D01*
G75*
G02*
X315568000Y-24426000I-100000J0D01*
G01*
X315368000Y-24426000D01*
G75*
G02*
X315268000Y-24326000I0J100000D01*
G01*
X315268000Y-24066000D01*
G75*
G02*
X315368000Y-23966000I100000J0D01*
G01*
G37*
G36*
G01*
X315368000Y-23326000D02*
X315568000Y-23326000D01*
G75*
G02*
X315668000Y-23426000I0J-100000D01*
G01*
X315668000Y-23686000D01*
G75*
G02*
X315568000Y-23786000I-100000J0D01*
G01*
X315368000Y-23786000D01*
G75*
G02*
X315268000Y-23686000I0J100000D01*
G01*
X315268000Y-23426000D01*
G75*
G02*
X315368000Y-23326000I100000J0D01*
G01*
G37*
%TD*%
%TO.C,C11*%
G36*
G01*
X64924000Y-23712000D02*
X65124000Y-23712000D01*
G75*
G02*
X65224000Y-23812000I0J-100000D01*
G01*
X65224000Y-24072000D01*
G75*
G02*
X65124000Y-24172000I-100000J0D01*
G01*
X64924000Y-24172000D01*
G75*
G02*
X64824000Y-24072000I0J100000D01*
G01*
X64824000Y-23812000D01*
G75*
G02*
X64924000Y-23712000I100000J0D01*
G01*
G37*
G36*
G01*
X64924000Y-23072000D02*
X65124000Y-23072000D01*
G75*
G02*
X65224000Y-23172000I0J-100000D01*
G01*
X65224000Y-23432000D01*
G75*
G02*
X65124000Y-23532000I-100000J0D01*
G01*
X64924000Y-23532000D01*
G75*
G02*
X64824000Y-23432000I0J100000D01*
G01*
X64824000Y-23172000D01*
G75*
G02*
X64924000Y-23072000I100000J0D01*
G01*
G37*
%TD*%
%TO.C,C10*%
G36*
G01*
X336958000Y-22188000D02*
X337158000Y-22188000D01*
G75*
G02*
X337258000Y-22288000I0J-100000D01*
G01*
X337258000Y-22548000D01*
G75*
G02*
X337158000Y-22648000I-100000J0D01*
G01*
X336958000Y-22648000D01*
G75*
G02*
X336858000Y-22548000I0J100000D01*
G01*
X336858000Y-22288000D01*
G75*
G02*
X336958000Y-22188000I100000J0D01*
G01*
G37*
G36*
G01*
X336958000Y-21548000D02*
X337158000Y-21548000D01*
G75*
G02*
X337258000Y-21648000I0J-100000D01*
G01*
X337258000Y-21908000D01*
G75*
G02*
X337158000Y-22008000I-100000J0D01*
G01*
X336958000Y-22008000D01*
G75*
G02*
X336858000Y-21908000I0J100000D01*
G01*
X336858000Y-21648000D01*
G75*
G02*
X336958000Y-21548000I100000J0D01*
G01*
G37*
%TD*%
%TO.C,C9*%
G36*
G01*
X335942000Y-22188000D02*
X336142000Y-22188000D01*
G75*
G02*
X336242000Y-22288000I0J-100000D01*
G01*
X336242000Y-22548000D01*
G75*
G02*
X336142000Y-22648000I-100000J0D01*
G01*
X335942000Y-22648000D01*
G75*
G02*
X335842000Y-22548000I0J100000D01*
G01*
X335842000Y-22288000D01*
G75*
G02*
X335942000Y-22188000I100000J0D01*
G01*
G37*
G36*
G01*
X335942000Y-21548000D02*
X336142000Y-21548000D01*
G75*
G02*
X336242000Y-21648000I0J-100000D01*
G01*
X336242000Y-21908000D01*
G75*
G02*
X336142000Y-22008000I-100000J0D01*
G01*
X335942000Y-22008000D01*
G75*
G02*
X335842000Y-21908000I0J100000D01*
G01*
X335842000Y-21648000D01*
G75*
G02*
X335942000Y-21548000I100000J0D01*
G01*
G37*
%TD*%
%TO.C,C8*%
G36*
G01*
X334926000Y-22188000D02*
X335126000Y-22188000D01*
G75*
G02*
X335226000Y-22288000I0J-100000D01*
G01*
X335226000Y-22548000D01*
G75*
G02*
X335126000Y-22648000I-100000J0D01*
G01*
X334926000Y-22648000D01*
G75*
G02*
X334826000Y-22548000I0J100000D01*
G01*
X334826000Y-22288000D01*
G75*
G02*
X334926000Y-22188000I100000J0D01*
G01*
G37*
G36*
G01*
X334926000Y-21548000D02*
X335126000Y-21548000D01*
G75*
G02*
X335226000Y-21648000I0J-100000D01*
G01*
X335226000Y-21908000D01*
G75*
G02*
X335126000Y-22008000I-100000J0D01*
G01*
X334926000Y-22008000D01*
G75*
G02*
X334826000Y-21908000I0J100000D01*
G01*
X334826000Y-21648000D01*
G75*
G02*
X334926000Y-21548000I100000J0D01*
G01*
G37*
%TD*%
%TO.C,C7*%
G36*
G01*
X333910000Y-22188000D02*
X334110000Y-22188000D01*
G75*
G02*
X334210000Y-22288000I0J-100000D01*
G01*
X334210000Y-22548000D01*
G75*
G02*
X334110000Y-22648000I-100000J0D01*
G01*
X333910000Y-22648000D01*
G75*
G02*
X333810000Y-22548000I0J100000D01*
G01*
X333810000Y-22288000D01*
G75*
G02*
X333910000Y-22188000I100000J0D01*
G01*
G37*
G36*
G01*
X333910000Y-21548000D02*
X334110000Y-21548000D01*
G75*
G02*
X334210000Y-21648000I0J-100000D01*
G01*
X334210000Y-21908000D01*
G75*
G02*
X334110000Y-22008000I-100000J0D01*
G01*
X333910000Y-22008000D01*
G75*
G02*
X333810000Y-21908000I0J100000D01*
G01*
X333810000Y-21648000D01*
G75*
G02*
X333910000Y-21548000I100000J0D01*
G01*
G37*
%TD*%
%TO.C,C4*%
G36*
G01*
X41502000Y-14642000D02*
X41302000Y-14642000D01*
G75*
G02*
X41202000Y-14542000I0J100000D01*
G01*
X41202000Y-14282000D01*
G75*
G02*
X41302000Y-14182000I100000J0D01*
G01*
X41502000Y-14182000D01*
G75*
G02*
X41602000Y-14282000I0J-100000D01*
G01*
X41602000Y-14542000D01*
G75*
G02*
X41502000Y-14642000I-100000J0D01*
G01*
G37*
G36*
G01*
X41502000Y-15282000D02*
X41302000Y-15282000D01*
G75*
G02*
X41202000Y-15182000I0J100000D01*
G01*
X41202000Y-14922000D01*
G75*
G02*
X41302000Y-14822000I100000J0D01*
G01*
X41502000Y-14822000D01*
G75*
G02*
X41602000Y-14922000I0J-100000D01*
G01*
X41602000Y-15182000D01*
G75*
G02*
X41502000Y-15282000I-100000J0D01*
G01*
G37*
%TD*%
%TO.C,C3*%
G36*
G01*
X40486000Y-14642000D02*
X40286000Y-14642000D01*
G75*
G02*
X40186000Y-14542000I0J100000D01*
G01*
X40186000Y-14282000D01*
G75*
G02*
X40286000Y-14182000I100000J0D01*
G01*
X40486000Y-14182000D01*
G75*
G02*
X40586000Y-14282000I0J-100000D01*
G01*
X40586000Y-14542000D01*
G75*
G02*
X40486000Y-14642000I-100000J0D01*
G01*
G37*
G36*
G01*
X40486000Y-15282000D02*
X40286000Y-15282000D01*
G75*
G02*
X40186000Y-15182000I0J100000D01*
G01*
X40186000Y-14922000D01*
G75*
G02*
X40286000Y-14822000I100000J0D01*
G01*
X40486000Y-14822000D01*
G75*
G02*
X40586000Y-14922000I0J-100000D01*
G01*
X40586000Y-15182000D01*
G75*
G02*
X40486000Y-15282000I-100000J0D01*
G01*
G37*
%TD*%
%TO.C,C2*%
G36*
G01*
X39470000Y-14642000D02*
X39270000Y-14642000D01*
G75*
G02*
X39170000Y-14542000I0J100000D01*
G01*
X39170000Y-14282000D01*
G75*
G02*
X39270000Y-14182000I100000J0D01*
G01*
X39470000Y-14182000D01*
G75*
G02*
X39570000Y-14282000I0J-100000D01*
G01*
X39570000Y-14542000D01*
G75*
G02*
X39470000Y-14642000I-100000J0D01*
G01*
G37*
G36*
G01*
X39470000Y-15282000D02*
X39270000Y-15282000D01*
G75*
G02*
X39170000Y-15182000I0J100000D01*
G01*
X39170000Y-14922000D01*
G75*
G02*
X39270000Y-14822000I100000J0D01*
G01*
X39470000Y-14822000D01*
G75*
G02*
X39570000Y-14922000I0J-100000D01*
G01*
X39570000Y-15182000D01*
G75*
G02*
X39470000Y-15282000I-100000J0D01*
G01*
G37*
%TD*%
%TO.C,C1*%
G36*
G01*
X38454000Y-14642000D02*
X38254000Y-14642000D01*
G75*
G02*
X38154000Y-14542000I0J100000D01*
G01*
X38154000Y-14282000D01*
G75*
G02*
X38254000Y-14182000I100000J0D01*
G01*
X38454000Y-14182000D01*
G75*
G02*
X38554000Y-14282000I0J-100000D01*
G01*
X38554000Y-14542000D01*
G75*
G02*
X38454000Y-14642000I-100000J0D01*
G01*
G37*
G36*
G01*
X38454000Y-15282000D02*
X38254000Y-15282000D01*
G75*
G02*
X38154000Y-15182000I0J100000D01*
G01*
X38154000Y-14922000D01*
G75*
G02*
X38254000Y-14822000I100000J0D01*
G01*
X38454000Y-14822000D01*
G75*
G02*
X38554000Y-14922000I0J-100000D01*
G01*
X38554000Y-15182000D01*
G75*
G02*
X38454000Y-15282000I-100000J0D01*
G01*
G37*
%TD*%
%TO.C,D1*%
G36*
G01*
X29393750Y-28350000D02*
X29906250Y-28350000D01*
G75*
G02*
X30125000Y-28568750I0J-218750D01*
G01*
X30125000Y-29006250D01*
G75*
G02*
X29906250Y-29225000I-218750J0D01*
G01*
X29393750Y-29225000D01*
G75*
G02*
X29175000Y-29006250I0J218750D01*
G01*
X29175000Y-28568750D01*
G75*
G02*
X29393750Y-28350000I218750J0D01*
G01*
G37*
G36*
G01*
X29393750Y-26775000D02*
X29906250Y-26775000D01*
G75*
G02*
X30125000Y-26993750I0J-218750D01*
G01*
X30125000Y-27431250D01*
G75*
G02*
X29906250Y-27650000I-218750J0D01*
G01*
X29393750Y-27650000D01*
G75*
G02*
X29175000Y-27431250I0J218750D01*
G01*
X29175000Y-26993750D01*
G75*
G02*
X29393750Y-26775000I218750J0D01*
G01*
G37*
%TD*%
%TO.C,D2*%
G36*
G01*
X48393750Y-28350000D02*
X48906250Y-28350000D01*
G75*
G02*
X49125000Y-28568750I0J-218750D01*
G01*
X49125000Y-29006250D01*
G75*
G02*
X48906250Y-29225000I-218750J0D01*
G01*
X48393750Y-29225000D01*
G75*
G02*
X48175000Y-29006250I0J218750D01*
G01*
X48175000Y-28568750D01*
G75*
G02*
X48393750Y-28350000I218750J0D01*
G01*
G37*
G36*
G01*
X48393750Y-26775000D02*
X48906250Y-26775000D01*
G75*
G02*
X49125000Y-26993750I0J-218750D01*
G01*
X49125000Y-27431250D01*
G75*
G02*
X48906250Y-27650000I-218750J0D01*
G01*
X48393750Y-27650000D01*
G75*
G02*
X48175000Y-27431250I0J218750D01*
G01*
X48175000Y-26993750D01*
G75*
G02*
X48393750Y-26775000I218750J0D01*
G01*
G37*
%TD*%
%TO.C,D3*%
G36*
G01*
X67393750Y-28350000D02*
X67906250Y-28350000D01*
G75*
G02*
X68125000Y-28568750I0J-218750D01*
G01*
X68125000Y-29006250D01*
G75*
G02*
X67906250Y-29225000I-218750J0D01*
G01*
X67393750Y-29225000D01*
G75*
G02*
X67175000Y-29006250I0J218750D01*
G01*
X67175000Y-28568750D01*
G75*
G02*
X67393750Y-28350000I218750J0D01*
G01*
G37*
G36*
G01*
X67393750Y-26775000D02*
X67906250Y-26775000D01*
G75*
G02*
X68125000Y-26993750I0J-218750D01*
G01*
X68125000Y-27431250D01*
G75*
G02*
X67906250Y-27650000I-218750J0D01*
G01*
X67393750Y-27650000D01*
G75*
G02*
X67175000Y-27431250I0J218750D01*
G01*
X67175000Y-26993750D01*
G75*
G02*
X67393750Y-26775000I218750J0D01*
G01*
G37*
%TD*%
%TO.C,D4*%
G36*
G01*
X86393750Y-26775000D02*
X86906250Y-26775000D01*
G75*
G02*
X87125000Y-26993750I0J-218750D01*
G01*
X87125000Y-27431250D01*
G75*
G02*
X86906250Y-27650000I-218750J0D01*
G01*
X86393750Y-27650000D01*
G75*
G02*
X86175000Y-27431250I0J218750D01*
G01*
X86175000Y-26993750D01*
G75*
G02*
X86393750Y-26775000I218750J0D01*
G01*
G37*
G36*
G01*
X86393750Y-28350000D02*
X86906250Y-28350000D01*
G75*
G02*
X87125000Y-28568750I0J-218750D01*
G01*
X87125000Y-29006250D01*
G75*
G02*
X86906250Y-29225000I-218750J0D01*
G01*
X86393750Y-29225000D01*
G75*
G02*
X86175000Y-29006250I0J218750D01*
G01*
X86175000Y-28568750D01*
G75*
G02*
X86393750Y-28350000I218750J0D01*
G01*
G37*
%TD*%
%TO.C,D5*%
G36*
G01*
X105393750Y-26775000D02*
X105906250Y-26775000D01*
G75*
G02*
X106125000Y-26993750I0J-218750D01*
G01*
X106125000Y-27431250D01*
G75*
G02*
X105906250Y-27650000I-218750J0D01*
G01*
X105393750Y-27650000D01*
G75*
G02*
X105175000Y-27431250I0J218750D01*
G01*
X105175000Y-26993750D01*
G75*
G02*
X105393750Y-26775000I218750J0D01*
G01*
G37*
G36*
G01*
X105393750Y-28350000D02*
X105906250Y-28350000D01*
G75*
G02*
X106125000Y-28568750I0J-218750D01*
G01*
X106125000Y-29006250D01*
G75*
G02*
X105906250Y-29225000I-218750J0D01*
G01*
X105393750Y-29225000D01*
G75*
G02*
X105175000Y-29006250I0J218750D01*
G01*
X105175000Y-28568750D01*
G75*
G02*
X105393750Y-28350000I218750J0D01*
G01*
G37*
%TD*%
%TO.C,D6*%
G36*
G01*
X124393750Y-28350000D02*
X124906250Y-28350000D01*
G75*
G02*
X125125000Y-28568750I0J-218750D01*
G01*
X125125000Y-29006250D01*
G75*
G02*
X124906250Y-29225000I-218750J0D01*
G01*
X124393750Y-29225000D01*
G75*
G02*
X124175000Y-29006250I0J218750D01*
G01*
X124175000Y-28568750D01*
G75*
G02*
X124393750Y-28350000I218750J0D01*
G01*
G37*
G36*
G01*
X124393750Y-26775000D02*
X124906250Y-26775000D01*
G75*
G02*
X125125000Y-26993750I0J-218750D01*
G01*
X125125000Y-27431250D01*
G75*
G02*
X124906250Y-27650000I-218750J0D01*
G01*
X124393750Y-27650000D01*
G75*
G02*
X124175000Y-27431250I0J218750D01*
G01*
X124175000Y-26993750D01*
G75*
G02*
X124393750Y-26775000I218750J0D01*
G01*
G37*
%TD*%
%TO.C,D7*%
G36*
G01*
X143393750Y-28350000D02*
X143906250Y-28350000D01*
G75*
G02*
X144125000Y-28568750I0J-218750D01*
G01*
X144125000Y-29006250D01*
G75*
G02*
X143906250Y-29225000I-218750J0D01*
G01*
X143393750Y-29225000D01*
G75*
G02*
X143175000Y-29006250I0J218750D01*
G01*
X143175000Y-28568750D01*
G75*
G02*
X143393750Y-28350000I218750J0D01*
G01*
G37*
G36*
G01*
X143393750Y-26775000D02*
X143906250Y-26775000D01*
G75*
G02*
X144125000Y-26993750I0J-218750D01*
G01*
X144125000Y-27431250D01*
G75*
G02*
X143906250Y-27650000I-218750J0D01*
G01*
X143393750Y-27650000D01*
G75*
G02*
X143175000Y-27431250I0J218750D01*
G01*
X143175000Y-26993750D01*
G75*
G02*
X143393750Y-26775000I218750J0D01*
G01*
G37*
%TD*%
%TO.C,D8*%
G36*
G01*
X223393750Y-28350000D02*
X223906250Y-28350000D01*
G75*
G02*
X224125000Y-28568750I0J-218750D01*
G01*
X224125000Y-29006250D01*
G75*
G02*
X223906250Y-29225000I-218750J0D01*
G01*
X223393750Y-29225000D01*
G75*
G02*
X223175000Y-29006250I0J218750D01*
G01*
X223175000Y-28568750D01*
G75*
G02*
X223393750Y-28350000I218750J0D01*
G01*
G37*
G36*
G01*
X223393750Y-26775000D02*
X223906250Y-26775000D01*
G75*
G02*
X224125000Y-26993750I0J-218750D01*
G01*
X224125000Y-27431250D01*
G75*
G02*
X223906250Y-27650000I-218750J0D01*
G01*
X223393750Y-27650000D01*
G75*
G02*
X223175000Y-27431250I0J218750D01*
G01*
X223175000Y-26993750D01*
G75*
G02*
X223393750Y-26775000I218750J0D01*
G01*
G37*
%TD*%
%TO.C,D9*%
G36*
G01*
X242393750Y-28350000D02*
X242906250Y-28350000D01*
G75*
G02*
X243125000Y-28568750I0J-218750D01*
G01*
X243125000Y-29006250D01*
G75*
G02*
X242906250Y-29225000I-218750J0D01*
G01*
X242393750Y-29225000D01*
G75*
G02*
X242175000Y-29006250I0J218750D01*
G01*
X242175000Y-28568750D01*
G75*
G02*
X242393750Y-28350000I218750J0D01*
G01*
G37*
G36*
G01*
X242393750Y-26775000D02*
X242906250Y-26775000D01*
G75*
G02*
X243125000Y-26993750I0J-218750D01*
G01*
X243125000Y-27431250D01*
G75*
G02*
X242906250Y-27650000I-218750J0D01*
G01*
X242393750Y-27650000D01*
G75*
G02*
X242175000Y-27431250I0J218750D01*
G01*
X242175000Y-26993750D01*
G75*
G02*
X242393750Y-26775000I218750J0D01*
G01*
G37*
%TD*%
%TO.C,D10*%
G36*
G01*
X261393750Y-28350000D02*
X261906250Y-28350000D01*
G75*
G02*
X262125000Y-28568750I0J-218750D01*
G01*
X262125000Y-29006250D01*
G75*
G02*
X261906250Y-29225000I-218750J0D01*
G01*
X261393750Y-29225000D01*
G75*
G02*
X261175000Y-29006250I0J218750D01*
G01*
X261175000Y-28568750D01*
G75*
G02*
X261393750Y-28350000I218750J0D01*
G01*
G37*
G36*
G01*
X261393750Y-26775000D02*
X261906250Y-26775000D01*
G75*
G02*
X262125000Y-26993750I0J-218750D01*
G01*
X262125000Y-27431250D01*
G75*
G02*
X261906250Y-27650000I-218750J0D01*
G01*
X261393750Y-27650000D01*
G75*
G02*
X261175000Y-27431250I0J218750D01*
G01*
X261175000Y-26993750D01*
G75*
G02*
X261393750Y-26775000I218750J0D01*
G01*
G37*
%TD*%
%TO.C,D11*%
G36*
G01*
X280393750Y-26775000D02*
X280906250Y-26775000D01*
G75*
G02*
X281125000Y-26993750I0J-218750D01*
G01*
X281125000Y-27431250D01*
G75*
G02*
X280906250Y-27650000I-218750J0D01*
G01*
X280393750Y-27650000D01*
G75*
G02*
X280175000Y-27431250I0J218750D01*
G01*
X280175000Y-26993750D01*
G75*
G02*
X280393750Y-26775000I218750J0D01*
G01*
G37*
G36*
G01*
X280393750Y-28350000D02*
X280906250Y-28350000D01*
G75*
G02*
X281125000Y-28568750I0J-218750D01*
G01*
X281125000Y-29006250D01*
G75*
G02*
X280906250Y-29225000I-218750J0D01*
G01*
X280393750Y-29225000D01*
G75*
G02*
X280175000Y-29006250I0J218750D01*
G01*
X280175000Y-28568750D01*
G75*
G02*
X280393750Y-28350000I218750J0D01*
G01*
G37*
%TD*%
%TO.C,D12*%
G36*
G01*
X299393750Y-26775000D02*
X299906250Y-26775000D01*
G75*
G02*
X300125000Y-26993750I0J-218750D01*
G01*
X300125000Y-27431250D01*
G75*
G02*
X299906250Y-27650000I-218750J0D01*
G01*
X299393750Y-27650000D01*
G75*
G02*
X299175000Y-27431250I0J218750D01*
G01*
X299175000Y-26993750D01*
G75*
G02*
X299393750Y-26775000I218750J0D01*
G01*
G37*
G36*
G01*
X299393750Y-28350000D02*
X299906250Y-28350000D01*
G75*
G02*
X300125000Y-28568750I0J-218750D01*
G01*
X300125000Y-29006250D01*
G75*
G02*
X299906250Y-29225000I-218750J0D01*
G01*
X299393750Y-29225000D01*
G75*
G02*
X299175000Y-29006250I0J218750D01*
G01*
X299175000Y-28568750D01*
G75*
G02*
X299393750Y-28350000I218750J0D01*
G01*
G37*
%TD*%
%TO.C,D13*%
G36*
G01*
X318393750Y-26775000D02*
X318906250Y-26775000D01*
G75*
G02*
X319125000Y-26993750I0J-218750D01*
G01*
X319125000Y-27431250D01*
G75*
G02*
X318906250Y-27650000I-218750J0D01*
G01*
X318393750Y-27650000D01*
G75*
G02*
X318175000Y-27431250I0J218750D01*
G01*
X318175000Y-26993750D01*
G75*
G02*
X318393750Y-26775000I218750J0D01*
G01*
G37*
G36*
G01*
X318393750Y-28350000D02*
X318906250Y-28350000D01*
G75*
G02*
X319125000Y-28568750I0J-218750D01*
G01*
X319125000Y-29006250D01*
G75*
G02*
X318906250Y-29225000I-218750J0D01*
G01*
X318393750Y-29225000D01*
G75*
G02*
X318175000Y-29006250I0J218750D01*
G01*
X318175000Y-28568750D01*
G75*
G02*
X318393750Y-28350000I218750J0D01*
G01*
G37*
%TD*%
%TO.C,D14*%
G36*
G01*
X337393750Y-26775000D02*
X337906250Y-26775000D01*
G75*
G02*
X338125000Y-26993750I0J-218750D01*
G01*
X338125000Y-27431250D01*
G75*
G02*
X337906250Y-27650000I-218750J0D01*
G01*
X337393750Y-27650000D01*
G75*
G02*
X337175000Y-27431250I0J218750D01*
G01*
X337175000Y-26993750D01*
G75*
G02*
X337393750Y-26775000I218750J0D01*
G01*
G37*
G36*
G01*
X337393750Y-28350000D02*
X337906250Y-28350000D01*
G75*
G02*
X338125000Y-28568750I0J-218750D01*
G01*
X338125000Y-29006250D01*
G75*
G02*
X337906250Y-29225000I-218750J0D01*
G01*
X337393750Y-29225000D01*
G75*
G02*
X337175000Y-29006250I0J218750D01*
G01*
X337175000Y-28568750D01*
G75*
G02*
X337393750Y-28350000I218750J0D01*
G01*
G37*
%TD*%
%TO.C,D15*%
G36*
G01*
X29393750Y-47350000D02*
X29906250Y-47350000D01*
G75*
G02*
X30125000Y-47568750I0J-218750D01*
G01*
X30125000Y-48006250D01*
G75*
G02*
X29906250Y-48225000I-218750J0D01*
G01*
X29393750Y-48225000D01*
G75*
G02*
X29175000Y-48006250I0J218750D01*
G01*
X29175000Y-47568750D01*
G75*
G02*
X29393750Y-47350000I218750J0D01*
G01*
G37*
G36*
G01*
X29393750Y-45775000D02*
X29906250Y-45775000D01*
G75*
G02*
X30125000Y-45993750I0J-218750D01*
G01*
X30125000Y-46431250D01*
G75*
G02*
X29906250Y-46650000I-218750J0D01*
G01*
X29393750Y-46650000D01*
G75*
G02*
X29175000Y-46431250I0J218750D01*
G01*
X29175000Y-45993750D01*
G75*
G02*
X29393750Y-45775000I218750J0D01*
G01*
G37*
%TD*%
%TO.C,D16*%
G36*
G01*
X48393750Y-45775000D02*
X48906250Y-45775000D01*
G75*
G02*
X49125000Y-45993750I0J-218750D01*
G01*
X49125000Y-46431250D01*
G75*
G02*
X48906250Y-46650000I-218750J0D01*
G01*
X48393750Y-46650000D01*
G75*
G02*
X48175000Y-46431250I0J218750D01*
G01*
X48175000Y-45993750D01*
G75*
G02*
X48393750Y-45775000I218750J0D01*
G01*
G37*
G36*
G01*
X48393750Y-47350000D02*
X48906250Y-47350000D01*
G75*
G02*
X49125000Y-47568750I0J-218750D01*
G01*
X49125000Y-48006250D01*
G75*
G02*
X48906250Y-48225000I-218750J0D01*
G01*
X48393750Y-48225000D01*
G75*
G02*
X48175000Y-48006250I0J218750D01*
G01*
X48175000Y-47568750D01*
G75*
G02*
X48393750Y-47350000I218750J0D01*
G01*
G37*
%TD*%
%TO.C,D17*%
G36*
G01*
X67393750Y-45775000D02*
X67906250Y-45775000D01*
G75*
G02*
X68125000Y-45993750I0J-218750D01*
G01*
X68125000Y-46431250D01*
G75*
G02*
X67906250Y-46650000I-218750J0D01*
G01*
X67393750Y-46650000D01*
G75*
G02*
X67175000Y-46431250I0J218750D01*
G01*
X67175000Y-45993750D01*
G75*
G02*
X67393750Y-45775000I218750J0D01*
G01*
G37*
G36*
G01*
X67393750Y-47350000D02*
X67906250Y-47350000D01*
G75*
G02*
X68125000Y-47568750I0J-218750D01*
G01*
X68125000Y-48006250D01*
G75*
G02*
X67906250Y-48225000I-218750J0D01*
G01*
X67393750Y-48225000D01*
G75*
G02*
X67175000Y-48006250I0J218750D01*
G01*
X67175000Y-47568750D01*
G75*
G02*
X67393750Y-47350000I218750J0D01*
G01*
G37*
%TD*%
%TO.C,D18*%
G36*
G01*
X86393750Y-45775000D02*
X86906250Y-45775000D01*
G75*
G02*
X87125000Y-45993750I0J-218750D01*
G01*
X87125000Y-46431250D01*
G75*
G02*
X86906250Y-46650000I-218750J0D01*
G01*
X86393750Y-46650000D01*
G75*
G02*
X86175000Y-46431250I0J218750D01*
G01*
X86175000Y-45993750D01*
G75*
G02*
X86393750Y-45775000I218750J0D01*
G01*
G37*
G36*
G01*
X86393750Y-47350000D02*
X86906250Y-47350000D01*
G75*
G02*
X87125000Y-47568750I0J-218750D01*
G01*
X87125000Y-48006250D01*
G75*
G02*
X86906250Y-48225000I-218750J0D01*
G01*
X86393750Y-48225000D01*
G75*
G02*
X86175000Y-48006250I0J218750D01*
G01*
X86175000Y-47568750D01*
G75*
G02*
X86393750Y-47350000I218750J0D01*
G01*
G37*
%TD*%
%TO.C,D19*%
G36*
G01*
X105393750Y-47350000D02*
X105906250Y-47350000D01*
G75*
G02*
X106125000Y-47568750I0J-218750D01*
G01*
X106125000Y-48006250D01*
G75*
G02*
X105906250Y-48225000I-218750J0D01*
G01*
X105393750Y-48225000D01*
G75*
G02*
X105175000Y-48006250I0J218750D01*
G01*
X105175000Y-47568750D01*
G75*
G02*
X105393750Y-47350000I218750J0D01*
G01*
G37*
G36*
G01*
X105393750Y-45775000D02*
X105906250Y-45775000D01*
G75*
G02*
X106125000Y-45993750I0J-218750D01*
G01*
X106125000Y-46431250D01*
G75*
G02*
X105906250Y-46650000I-218750J0D01*
G01*
X105393750Y-46650000D01*
G75*
G02*
X105175000Y-46431250I0J218750D01*
G01*
X105175000Y-45993750D01*
G75*
G02*
X105393750Y-45775000I218750J0D01*
G01*
G37*
%TD*%
%TO.C,D20*%
G36*
G01*
X124393750Y-47350000D02*
X124906250Y-47350000D01*
G75*
G02*
X125125000Y-47568750I0J-218750D01*
G01*
X125125000Y-48006250D01*
G75*
G02*
X124906250Y-48225000I-218750J0D01*
G01*
X124393750Y-48225000D01*
G75*
G02*
X124175000Y-48006250I0J218750D01*
G01*
X124175000Y-47568750D01*
G75*
G02*
X124393750Y-47350000I218750J0D01*
G01*
G37*
G36*
G01*
X124393750Y-45775000D02*
X124906250Y-45775000D01*
G75*
G02*
X125125000Y-45993750I0J-218750D01*
G01*
X125125000Y-46431250D01*
G75*
G02*
X124906250Y-46650000I-218750J0D01*
G01*
X124393750Y-46650000D01*
G75*
G02*
X124175000Y-46431250I0J218750D01*
G01*
X124175000Y-45993750D01*
G75*
G02*
X124393750Y-45775000I218750J0D01*
G01*
G37*
%TD*%
%TO.C,D21*%
G36*
G01*
X143393750Y-45775000D02*
X143906250Y-45775000D01*
G75*
G02*
X144125000Y-45993750I0J-218750D01*
G01*
X144125000Y-46431250D01*
G75*
G02*
X143906250Y-46650000I-218750J0D01*
G01*
X143393750Y-46650000D01*
G75*
G02*
X143175000Y-46431250I0J218750D01*
G01*
X143175000Y-45993750D01*
G75*
G02*
X143393750Y-45775000I218750J0D01*
G01*
G37*
G36*
G01*
X143393750Y-47350000D02*
X143906250Y-47350000D01*
G75*
G02*
X144125000Y-47568750I0J-218750D01*
G01*
X144125000Y-48006250D01*
G75*
G02*
X143906250Y-48225000I-218750J0D01*
G01*
X143393750Y-48225000D01*
G75*
G02*
X143175000Y-48006250I0J218750D01*
G01*
X143175000Y-47568750D01*
G75*
G02*
X143393750Y-47350000I218750J0D01*
G01*
G37*
%TD*%
%TO.C,D22*%
G36*
G01*
X223393750Y-45775000D02*
X223906250Y-45775000D01*
G75*
G02*
X224125000Y-45993750I0J-218750D01*
G01*
X224125000Y-46431250D01*
G75*
G02*
X223906250Y-46650000I-218750J0D01*
G01*
X223393750Y-46650000D01*
G75*
G02*
X223175000Y-46431250I0J218750D01*
G01*
X223175000Y-45993750D01*
G75*
G02*
X223393750Y-45775000I218750J0D01*
G01*
G37*
G36*
G01*
X223393750Y-47350000D02*
X223906250Y-47350000D01*
G75*
G02*
X224125000Y-47568750I0J-218750D01*
G01*
X224125000Y-48006250D01*
G75*
G02*
X223906250Y-48225000I-218750J0D01*
G01*
X223393750Y-48225000D01*
G75*
G02*
X223175000Y-48006250I0J218750D01*
G01*
X223175000Y-47568750D01*
G75*
G02*
X223393750Y-47350000I218750J0D01*
G01*
G37*
%TD*%
%TO.C,D23*%
G36*
G01*
X242393750Y-45775000D02*
X242906250Y-45775000D01*
G75*
G02*
X243125000Y-45993750I0J-218750D01*
G01*
X243125000Y-46431250D01*
G75*
G02*
X242906250Y-46650000I-218750J0D01*
G01*
X242393750Y-46650000D01*
G75*
G02*
X242175000Y-46431250I0J218750D01*
G01*
X242175000Y-45993750D01*
G75*
G02*
X242393750Y-45775000I218750J0D01*
G01*
G37*
G36*
G01*
X242393750Y-47350000D02*
X242906250Y-47350000D01*
G75*
G02*
X243125000Y-47568750I0J-218750D01*
G01*
X243125000Y-48006250D01*
G75*
G02*
X242906250Y-48225000I-218750J0D01*
G01*
X242393750Y-48225000D01*
G75*
G02*
X242175000Y-48006250I0J218750D01*
G01*
X242175000Y-47568750D01*
G75*
G02*
X242393750Y-47350000I218750J0D01*
G01*
G37*
%TD*%
%TO.C,D24*%
G36*
G01*
X261393750Y-47350000D02*
X261906250Y-47350000D01*
G75*
G02*
X262125000Y-47568750I0J-218750D01*
G01*
X262125000Y-48006250D01*
G75*
G02*
X261906250Y-48225000I-218750J0D01*
G01*
X261393750Y-48225000D01*
G75*
G02*
X261175000Y-48006250I0J218750D01*
G01*
X261175000Y-47568750D01*
G75*
G02*
X261393750Y-47350000I218750J0D01*
G01*
G37*
G36*
G01*
X261393750Y-45775000D02*
X261906250Y-45775000D01*
G75*
G02*
X262125000Y-45993750I0J-218750D01*
G01*
X262125000Y-46431250D01*
G75*
G02*
X261906250Y-46650000I-218750J0D01*
G01*
X261393750Y-46650000D01*
G75*
G02*
X261175000Y-46431250I0J218750D01*
G01*
X261175000Y-45993750D01*
G75*
G02*
X261393750Y-45775000I218750J0D01*
G01*
G37*
%TD*%
%TO.C,D25*%
G36*
G01*
X280393750Y-45775000D02*
X280906250Y-45775000D01*
G75*
G02*
X281125000Y-45993750I0J-218750D01*
G01*
X281125000Y-46431250D01*
G75*
G02*
X280906250Y-46650000I-218750J0D01*
G01*
X280393750Y-46650000D01*
G75*
G02*
X280175000Y-46431250I0J218750D01*
G01*
X280175000Y-45993750D01*
G75*
G02*
X280393750Y-45775000I218750J0D01*
G01*
G37*
G36*
G01*
X280393750Y-47350000D02*
X280906250Y-47350000D01*
G75*
G02*
X281125000Y-47568750I0J-218750D01*
G01*
X281125000Y-48006250D01*
G75*
G02*
X280906250Y-48225000I-218750J0D01*
G01*
X280393750Y-48225000D01*
G75*
G02*
X280175000Y-48006250I0J218750D01*
G01*
X280175000Y-47568750D01*
G75*
G02*
X280393750Y-47350000I218750J0D01*
G01*
G37*
%TD*%
%TO.C,D26*%
G36*
G01*
X299393750Y-47350000D02*
X299906250Y-47350000D01*
G75*
G02*
X300125000Y-47568750I0J-218750D01*
G01*
X300125000Y-48006250D01*
G75*
G02*
X299906250Y-48225000I-218750J0D01*
G01*
X299393750Y-48225000D01*
G75*
G02*
X299175000Y-48006250I0J218750D01*
G01*
X299175000Y-47568750D01*
G75*
G02*
X299393750Y-47350000I218750J0D01*
G01*
G37*
G36*
G01*
X299393750Y-45775000D02*
X299906250Y-45775000D01*
G75*
G02*
X300125000Y-45993750I0J-218750D01*
G01*
X300125000Y-46431250D01*
G75*
G02*
X299906250Y-46650000I-218750J0D01*
G01*
X299393750Y-46650000D01*
G75*
G02*
X299175000Y-46431250I0J218750D01*
G01*
X299175000Y-45993750D01*
G75*
G02*
X299393750Y-45775000I218750J0D01*
G01*
G37*
%TD*%
%TO.C,D27*%
G36*
G01*
X318393750Y-45775000D02*
X318906250Y-45775000D01*
G75*
G02*
X319125000Y-45993750I0J-218750D01*
G01*
X319125000Y-46431250D01*
G75*
G02*
X318906250Y-46650000I-218750J0D01*
G01*
X318393750Y-46650000D01*
G75*
G02*
X318175000Y-46431250I0J218750D01*
G01*
X318175000Y-45993750D01*
G75*
G02*
X318393750Y-45775000I218750J0D01*
G01*
G37*
G36*
G01*
X318393750Y-47350000D02*
X318906250Y-47350000D01*
G75*
G02*
X319125000Y-47568750I0J-218750D01*
G01*
X319125000Y-48006250D01*
G75*
G02*
X318906250Y-48225000I-218750J0D01*
G01*
X318393750Y-48225000D01*
G75*
G02*
X318175000Y-48006250I0J218750D01*
G01*
X318175000Y-47568750D01*
G75*
G02*
X318393750Y-47350000I218750J0D01*
G01*
G37*
%TD*%
%TO.C,D28*%
G36*
G01*
X337393750Y-47350000D02*
X337906250Y-47350000D01*
G75*
G02*
X338125000Y-47568750I0J-218750D01*
G01*
X338125000Y-48006250D01*
G75*
G02*
X337906250Y-48225000I-218750J0D01*
G01*
X337393750Y-48225000D01*
G75*
G02*
X337175000Y-48006250I0J218750D01*
G01*
X337175000Y-47568750D01*
G75*
G02*
X337393750Y-47350000I218750J0D01*
G01*
G37*
G36*
G01*
X337393750Y-45775000D02*
X337906250Y-45775000D01*
G75*
G02*
X338125000Y-45993750I0J-218750D01*
G01*
X338125000Y-46431250D01*
G75*
G02*
X337906250Y-46650000I-218750J0D01*
G01*
X337393750Y-46650000D01*
G75*
G02*
X337175000Y-46431250I0J218750D01*
G01*
X337175000Y-45993750D01*
G75*
G02*
X337393750Y-45775000I218750J0D01*
G01*
G37*
%TD*%
%TO.C,D29*%
G36*
G01*
X29393750Y-64775000D02*
X29906250Y-64775000D01*
G75*
G02*
X30125000Y-64993750I0J-218750D01*
G01*
X30125000Y-65431250D01*
G75*
G02*
X29906250Y-65650000I-218750J0D01*
G01*
X29393750Y-65650000D01*
G75*
G02*
X29175000Y-65431250I0J218750D01*
G01*
X29175000Y-64993750D01*
G75*
G02*
X29393750Y-64775000I218750J0D01*
G01*
G37*
G36*
G01*
X29393750Y-66350000D02*
X29906250Y-66350000D01*
G75*
G02*
X30125000Y-66568750I0J-218750D01*
G01*
X30125000Y-67006250D01*
G75*
G02*
X29906250Y-67225000I-218750J0D01*
G01*
X29393750Y-67225000D01*
G75*
G02*
X29175000Y-67006250I0J218750D01*
G01*
X29175000Y-66568750D01*
G75*
G02*
X29393750Y-66350000I218750J0D01*
G01*
G37*
%TD*%
%TO.C,D30*%
G36*
G01*
X48393750Y-66350000D02*
X48906250Y-66350000D01*
G75*
G02*
X49125000Y-66568750I0J-218750D01*
G01*
X49125000Y-67006250D01*
G75*
G02*
X48906250Y-67225000I-218750J0D01*
G01*
X48393750Y-67225000D01*
G75*
G02*
X48175000Y-67006250I0J218750D01*
G01*
X48175000Y-66568750D01*
G75*
G02*
X48393750Y-66350000I218750J0D01*
G01*
G37*
G36*
G01*
X48393750Y-64775000D02*
X48906250Y-64775000D01*
G75*
G02*
X49125000Y-64993750I0J-218750D01*
G01*
X49125000Y-65431250D01*
G75*
G02*
X48906250Y-65650000I-218750J0D01*
G01*
X48393750Y-65650000D01*
G75*
G02*
X48175000Y-65431250I0J218750D01*
G01*
X48175000Y-64993750D01*
G75*
G02*
X48393750Y-64775000I218750J0D01*
G01*
G37*
%TD*%
%TO.C,D31*%
G36*
G01*
X67393750Y-64775000D02*
X67906250Y-64775000D01*
G75*
G02*
X68125000Y-64993750I0J-218750D01*
G01*
X68125000Y-65431250D01*
G75*
G02*
X67906250Y-65650000I-218750J0D01*
G01*
X67393750Y-65650000D01*
G75*
G02*
X67175000Y-65431250I0J218750D01*
G01*
X67175000Y-64993750D01*
G75*
G02*
X67393750Y-64775000I218750J0D01*
G01*
G37*
G36*
G01*
X67393750Y-66350000D02*
X67906250Y-66350000D01*
G75*
G02*
X68125000Y-66568750I0J-218750D01*
G01*
X68125000Y-67006250D01*
G75*
G02*
X67906250Y-67225000I-218750J0D01*
G01*
X67393750Y-67225000D01*
G75*
G02*
X67175000Y-67006250I0J218750D01*
G01*
X67175000Y-66568750D01*
G75*
G02*
X67393750Y-66350000I218750J0D01*
G01*
G37*
%TD*%
%TO.C,D32*%
G36*
G01*
X86393750Y-64775000D02*
X86906250Y-64775000D01*
G75*
G02*
X87125000Y-64993750I0J-218750D01*
G01*
X87125000Y-65431250D01*
G75*
G02*
X86906250Y-65650000I-218750J0D01*
G01*
X86393750Y-65650000D01*
G75*
G02*
X86175000Y-65431250I0J218750D01*
G01*
X86175000Y-64993750D01*
G75*
G02*
X86393750Y-64775000I218750J0D01*
G01*
G37*
G36*
G01*
X86393750Y-66350000D02*
X86906250Y-66350000D01*
G75*
G02*
X87125000Y-66568750I0J-218750D01*
G01*
X87125000Y-67006250D01*
G75*
G02*
X86906250Y-67225000I-218750J0D01*
G01*
X86393750Y-67225000D01*
G75*
G02*
X86175000Y-67006250I0J218750D01*
G01*
X86175000Y-66568750D01*
G75*
G02*
X86393750Y-66350000I218750J0D01*
G01*
G37*
%TD*%
%TO.C,D33*%
G36*
G01*
X105393750Y-64775000D02*
X105906250Y-64775000D01*
G75*
G02*
X106125000Y-64993750I0J-218750D01*
G01*
X106125000Y-65431250D01*
G75*
G02*
X105906250Y-65650000I-218750J0D01*
G01*
X105393750Y-65650000D01*
G75*
G02*
X105175000Y-65431250I0J218750D01*
G01*
X105175000Y-64993750D01*
G75*
G02*
X105393750Y-64775000I218750J0D01*
G01*
G37*
G36*
G01*
X105393750Y-66350000D02*
X105906250Y-66350000D01*
G75*
G02*
X106125000Y-66568750I0J-218750D01*
G01*
X106125000Y-67006250D01*
G75*
G02*
X105906250Y-67225000I-218750J0D01*
G01*
X105393750Y-67225000D01*
G75*
G02*
X105175000Y-67006250I0J218750D01*
G01*
X105175000Y-66568750D01*
G75*
G02*
X105393750Y-66350000I218750J0D01*
G01*
G37*
%TD*%
%TO.C,D34*%
G36*
G01*
X124393750Y-66350000D02*
X124906250Y-66350000D01*
G75*
G02*
X125125000Y-66568750I0J-218750D01*
G01*
X125125000Y-67006250D01*
G75*
G02*
X124906250Y-67225000I-218750J0D01*
G01*
X124393750Y-67225000D01*
G75*
G02*
X124175000Y-67006250I0J218750D01*
G01*
X124175000Y-66568750D01*
G75*
G02*
X124393750Y-66350000I218750J0D01*
G01*
G37*
G36*
G01*
X124393750Y-64775000D02*
X124906250Y-64775000D01*
G75*
G02*
X125125000Y-64993750I0J-218750D01*
G01*
X125125000Y-65431250D01*
G75*
G02*
X124906250Y-65650000I-218750J0D01*
G01*
X124393750Y-65650000D01*
G75*
G02*
X124175000Y-65431250I0J218750D01*
G01*
X124175000Y-64993750D01*
G75*
G02*
X124393750Y-64775000I218750J0D01*
G01*
G37*
%TD*%
%TO.C,D35*%
G36*
G01*
X143393750Y-64775000D02*
X143906250Y-64775000D01*
G75*
G02*
X144125000Y-64993750I0J-218750D01*
G01*
X144125000Y-65431250D01*
G75*
G02*
X143906250Y-65650000I-218750J0D01*
G01*
X143393750Y-65650000D01*
G75*
G02*
X143175000Y-65431250I0J218750D01*
G01*
X143175000Y-64993750D01*
G75*
G02*
X143393750Y-64775000I218750J0D01*
G01*
G37*
G36*
G01*
X143393750Y-66350000D02*
X143906250Y-66350000D01*
G75*
G02*
X144125000Y-66568750I0J-218750D01*
G01*
X144125000Y-67006250D01*
G75*
G02*
X143906250Y-67225000I-218750J0D01*
G01*
X143393750Y-67225000D01*
G75*
G02*
X143175000Y-67006250I0J218750D01*
G01*
X143175000Y-66568750D01*
G75*
G02*
X143393750Y-66350000I218750J0D01*
G01*
G37*
%TD*%
%TO.C,D36*%
G36*
G01*
X223393750Y-66350000D02*
X223906250Y-66350000D01*
G75*
G02*
X224125000Y-66568750I0J-218750D01*
G01*
X224125000Y-67006250D01*
G75*
G02*
X223906250Y-67225000I-218750J0D01*
G01*
X223393750Y-67225000D01*
G75*
G02*
X223175000Y-67006250I0J218750D01*
G01*
X223175000Y-66568750D01*
G75*
G02*
X223393750Y-66350000I218750J0D01*
G01*
G37*
G36*
G01*
X223393750Y-64775000D02*
X223906250Y-64775000D01*
G75*
G02*
X224125000Y-64993750I0J-218750D01*
G01*
X224125000Y-65431250D01*
G75*
G02*
X223906250Y-65650000I-218750J0D01*
G01*
X223393750Y-65650000D01*
G75*
G02*
X223175000Y-65431250I0J218750D01*
G01*
X223175000Y-64993750D01*
G75*
G02*
X223393750Y-64775000I218750J0D01*
G01*
G37*
%TD*%
%TO.C,D37*%
G36*
G01*
X242393750Y-64775000D02*
X242906250Y-64775000D01*
G75*
G02*
X243125000Y-64993750I0J-218750D01*
G01*
X243125000Y-65431250D01*
G75*
G02*
X242906250Y-65650000I-218750J0D01*
G01*
X242393750Y-65650000D01*
G75*
G02*
X242175000Y-65431250I0J218750D01*
G01*
X242175000Y-64993750D01*
G75*
G02*
X242393750Y-64775000I218750J0D01*
G01*
G37*
G36*
G01*
X242393750Y-66350000D02*
X242906250Y-66350000D01*
G75*
G02*
X243125000Y-66568750I0J-218750D01*
G01*
X243125000Y-67006250D01*
G75*
G02*
X242906250Y-67225000I-218750J0D01*
G01*
X242393750Y-67225000D01*
G75*
G02*
X242175000Y-67006250I0J218750D01*
G01*
X242175000Y-66568750D01*
G75*
G02*
X242393750Y-66350000I218750J0D01*
G01*
G37*
%TD*%
%TO.C,D38*%
G36*
G01*
X261393750Y-66350000D02*
X261906250Y-66350000D01*
G75*
G02*
X262125000Y-66568750I0J-218750D01*
G01*
X262125000Y-67006250D01*
G75*
G02*
X261906250Y-67225000I-218750J0D01*
G01*
X261393750Y-67225000D01*
G75*
G02*
X261175000Y-67006250I0J218750D01*
G01*
X261175000Y-66568750D01*
G75*
G02*
X261393750Y-66350000I218750J0D01*
G01*
G37*
G36*
G01*
X261393750Y-64775000D02*
X261906250Y-64775000D01*
G75*
G02*
X262125000Y-64993750I0J-218750D01*
G01*
X262125000Y-65431250D01*
G75*
G02*
X261906250Y-65650000I-218750J0D01*
G01*
X261393750Y-65650000D01*
G75*
G02*
X261175000Y-65431250I0J218750D01*
G01*
X261175000Y-64993750D01*
G75*
G02*
X261393750Y-64775000I218750J0D01*
G01*
G37*
%TD*%
%TO.C,D39*%
G36*
G01*
X280393750Y-64775000D02*
X280906250Y-64775000D01*
G75*
G02*
X281125000Y-64993750I0J-218750D01*
G01*
X281125000Y-65431250D01*
G75*
G02*
X280906250Y-65650000I-218750J0D01*
G01*
X280393750Y-65650000D01*
G75*
G02*
X280175000Y-65431250I0J218750D01*
G01*
X280175000Y-64993750D01*
G75*
G02*
X280393750Y-64775000I218750J0D01*
G01*
G37*
G36*
G01*
X280393750Y-66350000D02*
X280906250Y-66350000D01*
G75*
G02*
X281125000Y-66568750I0J-218750D01*
G01*
X281125000Y-67006250D01*
G75*
G02*
X280906250Y-67225000I-218750J0D01*
G01*
X280393750Y-67225000D01*
G75*
G02*
X280175000Y-67006250I0J218750D01*
G01*
X280175000Y-66568750D01*
G75*
G02*
X280393750Y-66350000I218750J0D01*
G01*
G37*
%TD*%
%TO.C,D40*%
G36*
G01*
X299393750Y-66350000D02*
X299906250Y-66350000D01*
G75*
G02*
X300125000Y-66568750I0J-218750D01*
G01*
X300125000Y-67006250D01*
G75*
G02*
X299906250Y-67225000I-218750J0D01*
G01*
X299393750Y-67225000D01*
G75*
G02*
X299175000Y-67006250I0J218750D01*
G01*
X299175000Y-66568750D01*
G75*
G02*
X299393750Y-66350000I218750J0D01*
G01*
G37*
G36*
G01*
X299393750Y-64775000D02*
X299906250Y-64775000D01*
G75*
G02*
X300125000Y-64993750I0J-218750D01*
G01*
X300125000Y-65431250D01*
G75*
G02*
X299906250Y-65650000I-218750J0D01*
G01*
X299393750Y-65650000D01*
G75*
G02*
X299175000Y-65431250I0J218750D01*
G01*
X299175000Y-64993750D01*
G75*
G02*
X299393750Y-64775000I218750J0D01*
G01*
G37*
%TD*%
%TO.C,D41*%
G36*
G01*
X318393750Y-66350000D02*
X318906250Y-66350000D01*
G75*
G02*
X319125000Y-66568750I0J-218750D01*
G01*
X319125000Y-67006250D01*
G75*
G02*
X318906250Y-67225000I-218750J0D01*
G01*
X318393750Y-67225000D01*
G75*
G02*
X318175000Y-67006250I0J218750D01*
G01*
X318175000Y-66568750D01*
G75*
G02*
X318393750Y-66350000I218750J0D01*
G01*
G37*
G36*
G01*
X318393750Y-64775000D02*
X318906250Y-64775000D01*
G75*
G02*
X319125000Y-64993750I0J-218750D01*
G01*
X319125000Y-65431250D01*
G75*
G02*
X318906250Y-65650000I-218750J0D01*
G01*
X318393750Y-65650000D01*
G75*
G02*
X318175000Y-65431250I0J218750D01*
G01*
X318175000Y-64993750D01*
G75*
G02*
X318393750Y-64775000I218750J0D01*
G01*
G37*
%TD*%
%TO.C,D42*%
G36*
G01*
X337393750Y-66350000D02*
X337906250Y-66350000D01*
G75*
G02*
X338125000Y-66568750I0J-218750D01*
G01*
X338125000Y-67006250D01*
G75*
G02*
X337906250Y-67225000I-218750J0D01*
G01*
X337393750Y-67225000D01*
G75*
G02*
X337175000Y-67006250I0J218750D01*
G01*
X337175000Y-66568750D01*
G75*
G02*
X337393750Y-66350000I218750J0D01*
G01*
G37*
G36*
G01*
X337393750Y-64775000D02*
X337906250Y-64775000D01*
G75*
G02*
X338125000Y-64993750I0J-218750D01*
G01*
X338125000Y-65431250D01*
G75*
G02*
X337906250Y-65650000I-218750J0D01*
G01*
X337393750Y-65650000D01*
G75*
G02*
X337175000Y-65431250I0J218750D01*
G01*
X337175000Y-64993750D01*
G75*
G02*
X337393750Y-64775000I218750J0D01*
G01*
G37*
%TD*%
%TO.C,D43*%
G36*
G01*
X29393750Y-83775000D02*
X29906250Y-83775000D01*
G75*
G02*
X30125000Y-83993750I0J-218750D01*
G01*
X30125000Y-84431250D01*
G75*
G02*
X29906250Y-84650000I-218750J0D01*
G01*
X29393750Y-84650000D01*
G75*
G02*
X29175000Y-84431250I0J218750D01*
G01*
X29175000Y-83993750D01*
G75*
G02*
X29393750Y-83775000I218750J0D01*
G01*
G37*
G36*
G01*
X29393750Y-85350000D02*
X29906250Y-85350000D01*
G75*
G02*
X30125000Y-85568750I0J-218750D01*
G01*
X30125000Y-86006250D01*
G75*
G02*
X29906250Y-86225000I-218750J0D01*
G01*
X29393750Y-86225000D01*
G75*
G02*
X29175000Y-86006250I0J218750D01*
G01*
X29175000Y-85568750D01*
G75*
G02*
X29393750Y-85350000I218750J0D01*
G01*
G37*
%TD*%
%TO.C,D44*%
G36*
G01*
X48393750Y-85350000D02*
X48906250Y-85350000D01*
G75*
G02*
X49125000Y-85568750I0J-218750D01*
G01*
X49125000Y-86006250D01*
G75*
G02*
X48906250Y-86225000I-218750J0D01*
G01*
X48393750Y-86225000D01*
G75*
G02*
X48175000Y-86006250I0J218750D01*
G01*
X48175000Y-85568750D01*
G75*
G02*
X48393750Y-85350000I218750J0D01*
G01*
G37*
G36*
G01*
X48393750Y-83775000D02*
X48906250Y-83775000D01*
G75*
G02*
X49125000Y-83993750I0J-218750D01*
G01*
X49125000Y-84431250D01*
G75*
G02*
X48906250Y-84650000I-218750J0D01*
G01*
X48393750Y-84650000D01*
G75*
G02*
X48175000Y-84431250I0J218750D01*
G01*
X48175000Y-83993750D01*
G75*
G02*
X48393750Y-83775000I218750J0D01*
G01*
G37*
%TD*%
%TO.C,D45*%
G36*
G01*
X67393750Y-85350000D02*
X67906250Y-85350000D01*
G75*
G02*
X68125000Y-85568750I0J-218750D01*
G01*
X68125000Y-86006250D01*
G75*
G02*
X67906250Y-86225000I-218750J0D01*
G01*
X67393750Y-86225000D01*
G75*
G02*
X67175000Y-86006250I0J218750D01*
G01*
X67175000Y-85568750D01*
G75*
G02*
X67393750Y-85350000I218750J0D01*
G01*
G37*
G36*
G01*
X67393750Y-83775000D02*
X67906250Y-83775000D01*
G75*
G02*
X68125000Y-83993750I0J-218750D01*
G01*
X68125000Y-84431250D01*
G75*
G02*
X67906250Y-84650000I-218750J0D01*
G01*
X67393750Y-84650000D01*
G75*
G02*
X67175000Y-84431250I0J218750D01*
G01*
X67175000Y-83993750D01*
G75*
G02*
X67393750Y-83775000I218750J0D01*
G01*
G37*
%TD*%
%TO.C,D46*%
G36*
G01*
X86393750Y-83775000D02*
X86906250Y-83775000D01*
G75*
G02*
X87125000Y-83993750I0J-218750D01*
G01*
X87125000Y-84431250D01*
G75*
G02*
X86906250Y-84650000I-218750J0D01*
G01*
X86393750Y-84650000D01*
G75*
G02*
X86175000Y-84431250I0J218750D01*
G01*
X86175000Y-83993750D01*
G75*
G02*
X86393750Y-83775000I218750J0D01*
G01*
G37*
G36*
G01*
X86393750Y-85350000D02*
X86906250Y-85350000D01*
G75*
G02*
X87125000Y-85568750I0J-218750D01*
G01*
X87125000Y-86006250D01*
G75*
G02*
X86906250Y-86225000I-218750J0D01*
G01*
X86393750Y-86225000D01*
G75*
G02*
X86175000Y-86006250I0J218750D01*
G01*
X86175000Y-85568750D01*
G75*
G02*
X86393750Y-85350000I218750J0D01*
G01*
G37*
%TD*%
%TO.C,D47*%
G36*
G01*
X105393750Y-85350000D02*
X105906250Y-85350000D01*
G75*
G02*
X106125000Y-85568750I0J-218750D01*
G01*
X106125000Y-86006250D01*
G75*
G02*
X105906250Y-86225000I-218750J0D01*
G01*
X105393750Y-86225000D01*
G75*
G02*
X105175000Y-86006250I0J218750D01*
G01*
X105175000Y-85568750D01*
G75*
G02*
X105393750Y-85350000I218750J0D01*
G01*
G37*
G36*
G01*
X105393750Y-83775000D02*
X105906250Y-83775000D01*
G75*
G02*
X106125000Y-83993750I0J-218750D01*
G01*
X106125000Y-84431250D01*
G75*
G02*
X105906250Y-84650000I-218750J0D01*
G01*
X105393750Y-84650000D01*
G75*
G02*
X105175000Y-84431250I0J218750D01*
G01*
X105175000Y-83993750D01*
G75*
G02*
X105393750Y-83775000I218750J0D01*
G01*
G37*
%TD*%
%TO.C,D48*%
G36*
G01*
X124393750Y-83775000D02*
X124906250Y-83775000D01*
G75*
G02*
X125125000Y-83993750I0J-218750D01*
G01*
X125125000Y-84431250D01*
G75*
G02*
X124906250Y-84650000I-218750J0D01*
G01*
X124393750Y-84650000D01*
G75*
G02*
X124175000Y-84431250I0J218750D01*
G01*
X124175000Y-83993750D01*
G75*
G02*
X124393750Y-83775000I218750J0D01*
G01*
G37*
G36*
G01*
X124393750Y-85350000D02*
X124906250Y-85350000D01*
G75*
G02*
X125125000Y-85568750I0J-218750D01*
G01*
X125125000Y-86006250D01*
G75*
G02*
X124906250Y-86225000I-218750J0D01*
G01*
X124393750Y-86225000D01*
G75*
G02*
X124175000Y-86006250I0J218750D01*
G01*
X124175000Y-85568750D01*
G75*
G02*
X124393750Y-85350000I218750J0D01*
G01*
G37*
%TD*%
%TO.C,D49*%
G36*
G01*
X143393750Y-85350000D02*
X143906250Y-85350000D01*
G75*
G02*
X144125000Y-85568750I0J-218750D01*
G01*
X144125000Y-86006250D01*
G75*
G02*
X143906250Y-86225000I-218750J0D01*
G01*
X143393750Y-86225000D01*
G75*
G02*
X143175000Y-86006250I0J218750D01*
G01*
X143175000Y-85568750D01*
G75*
G02*
X143393750Y-85350000I218750J0D01*
G01*
G37*
G36*
G01*
X143393750Y-83775000D02*
X143906250Y-83775000D01*
G75*
G02*
X144125000Y-83993750I0J-218750D01*
G01*
X144125000Y-84431250D01*
G75*
G02*
X143906250Y-84650000I-218750J0D01*
G01*
X143393750Y-84650000D01*
G75*
G02*
X143175000Y-84431250I0J218750D01*
G01*
X143175000Y-83993750D01*
G75*
G02*
X143393750Y-83775000I218750J0D01*
G01*
G37*
%TD*%
%TO.C,D50*%
G36*
G01*
X223393750Y-83775000D02*
X223906250Y-83775000D01*
G75*
G02*
X224125000Y-83993750I0J-218750D01*
G01*
X224125000Y-84431250D01*
G75*
G02*
X223906250Y-84650000I-218750J0D01*
G01*
X223393750Y-84650000D01*
G75*
G02*
X223175000Y-84431250I0J218750D01*
G01*
X223175000Y-83993750D01*
G75*
G02*
X223393750Y-83775000I218750J0D01*
G01*
G37*
G36*
G01*
X223393750Y-85350000D02*
X223906250Y-85350000D01*
G75*
G02*
X224125000Y-85568750I0J-218750D01*
G01*
X224125000Y-86006250D01*
G75*
G02*
X223906250Y-86225000I-218750J0D01*
G01*
X223393750Y-86225000D01*
G75*
G02*
X223175000Y-86006250I0J218750D01*
G01*
X223175000Y-85568750D01*
G75*
G02*
X223393750Y-85350000I218750J0D01*
G01*
G37*
%TD*%
%TO.C,D51*%
G36*
G01*
X242393750Y-85350000D02*
X242906250Y-85350000D01*
G75*
G02*
X243125000Y-85568750I0J-218750D01*
G01*
X243125000Y-86006250D01*
G75*
G02*
X242906250Y-86225000I-218750J0D01*
G01*
X242393750Y-86225000D01*
G75*
G02*
X242175000Y-86006250I0J218750D01*
G01*
X242175000Y-85568750D01*
G75*
G02*
X242393750Y-85350000I218750J0D01*
G01*
G37*
G36*
G01*
X242393750Y-83775000D02*
X242906250Y-83775000D01*
G75*
G02*
X243125000Y-83993750I0J-218750D01*
G01*
X243125000Y-84431250D01*
G75*
G02*
X242906250Y-84650000I-218750J0D01*
G01*
X242393750Y-84650000D01*
G75*
G02*
X242175000Y-84431250I0J218750D01*
G01*
X242175000Y-83993750D01*
G75*
G02*
X242393750Y-83775000I218750J0D01*
G01*
G37*
%TD*%
%TO.C,D52*%
G36*
G01*
X261393750Y-83775000D02*
X261906250Y-83775000D01*
G75*
G02*
X262125000Y-83993750I0J-218750D01*
G01*
X262125000Y-84431250D01*
G75*
G02*
X261906250Y-84650000I-218750J0D01*
G01*
X261393750Y-84650000D01*
G75*
G02*
X261175000Y-84431250I0J218750D01*
G01*
X261175000Y-83993750D01*
G75*
G02*
X261393750Y-83775000I218750J0D01*
G01*
G37*
G36*
G01*
X261393750Y-85350000D02*
X261906250Y-85350000D01*
G75*
G02*
X262125000Y-85568750I0J-218750D01*
G01*
X262125000Y-86006250D01*
G75*
G02*
X261906250Y-86225000I-218750J0D01*
G01*
X261393750Y-86225000D01*
G75*
G02*
X261175000Y-86006250I0J218750D01*
G01*
X261175000Y-85568750D01*
G75*
G02*
X261393750Y-85350000I218750J0D01*
G01*
G37*
%TD*%
%TO.C,D53*%
G36*
G01*
X280393750Y-85350000D02*
X280906250Y-85350000D01*
G75*
G02*
X281125000Y-85568750I0J-218750D01*
G01*
X281125000Y-86006250D01*
G75*
G02*
X280906250Y-86225000I-218750J0D01*
G01*
X280393750Y-86225000D01*
G75*
G02*
X280175000Y-86006250I0J218750D01*
G01*
X280175000Y-85568750D01*
G75*
G02*
X280393750Y-85350000I218750J0D01*
G01*
G37*
G36*
G01*
X280393750Y-83775000D02*
X280906250Y-83775000D01*
G75*
G02*
X281125000Y-83993750I0J-218750D01*
G01*
X281125000Y-84431250D01*
G75*
G02*
X280906250Y-84650000I-218750J0D01*
G01*
X280393750Y-84650000D01*
G75*
G02*
X280175000Y-84431250I0J218750D01*
G01*
X280175000Y-83993750D01*
G75*
G02*
X280393750Y-83775000I218750J0D01*
G01*
G37*
%TD*%
%TO.C,D54*%
G36*
G01*
X299393750Y-85350000D02*
X299906250Y-85350000D01*
G75*
G02*
X300125000Y-85568750I0J-218750D01*
G01*
X300125000Y-86006250D01*
G75*
G02*
X299906250Y-86225000I-218750J0D01*
G01*
X299393750Y-86225000D01*
G75*
G02*
X299175000Y-86006250I0J218750D01*
G01*
X299175000Y-85568750D01*
G75*
G02*
X299393750Y-85350000I218750J0D01*
G01*
G37*
G36*
G01*
X299393750Y-83775000D02*
X299906250Y-83775000D01*
G75*
G02*
X300125000Y-83993750I0J-218750D01*
G01*
X300125000Y-84431250D01*
G75*
G02*
X299906250Y-84650000I-218750J0D01*
G01*
X299393750Y-84650000D01*
G75*
G02*
X299175000Y-84431250I0J218750D01*
G01*
X299175000Y-83993750D01*
G75*
G02*
X299393750Y-83775000I218750J0D01*
G01*
G37*
%TD*%
%TO.C,D55*%
G36*
G01*
X327893750Y-83775000D02*
X328406250Y-83775000D01*
G75*
G02*
X328625000Y-83993750I0J-218750D01*
G01*
X328625000Y-84431250D01*
G75*
G02*
X328406250Y-84650000I-218750J0D01*
G01*
X327893750Y-84650000D01*
G75*
G02*
X327675000Y-84431250I0J218750D01*
G01*
X327675000Y-83993750D01*
G75*
G02*
X327893750Y-83775000I218750J0D01*
G01*
G37*
G36*
G01*
X327893750Y-85350000D02*
X328406250Y-85350000D01*
G75*
G02*
X328625000Y-85568750I0J-218750D01*
G01*
X328625000Y-86006250D01*
G75*
G02*
X328406250Y-86225000I-218750J0D01*
G01*
X327893750Y-86225000D01*
G75*
G02*
X327675000Y-86006250I0J218750D01*
G01*
X327675000Y-85568750D01*
G75*
G02*
X327893750Y-85350000I218750J0D01*
G01*
G37*
%TD*%
%TO.C,D56*%
G36*
G01*
X29393750Y-102775000D02*
X29906250Y-102775000D01*
G75*
G02*
X30125000Y-102993750I0J-218750D01*
G01*
X30125000Y-103431250D01*
G75*
G02*
X29906250Y-103650000I-218750J0D01*
G01*
X29393750Y-103650000D01*
G75*
G02*
X29175000Y-103431250I0J218750D01*
G01*
X29175000Y-102993750D01*
G75*
G02*
X29393750Y-102775000I218750J0D01*
G01*
G37*
G36*
G01*
X29393750Y-104350000D02*
X29906250Y-104350000D01*
G75*
G02*
X30125000Y-104568750I0J-218750D01*
G01*
X30125000Y-105006250D01*
G75*
G02*
X29906250Y-105225000I-218750J0D01*
G01*
X29393750Y-105225000D01*
G75*
G02*
X29175000Y-105006250I0J218750D01*
G01*
X29175000Y-104568750D01*
G75*
G02*
X29393750Y-104350000I218750J0D01*
G01*
G37*
%TD*%
%TO.C,D57*%
G36*
G01*
X48393750Y-104350000D02*
X48906250Y-104350000D01*
G75*
G02*
X49125000Y-104568750I0J-218750D01*
G01*
X49125000Y-105006250D01*
G75*
G02*
X48906250Y-105225000I-218750J0D01*
G01*
X48393750Y-105225000D01*
G75*
G02*
X48175000Y-105006250I0J218750D01*
G01*
X48175000Y-104568750D01*
G75*
G02*
X48393750Y-104350000I218750J0D01*
G01*
G37*
G36*
G01*
X48393750Y-102775000D02*
X48906250Y-102775000D01*
G75*
G02*
X49125000Y-102993750I0J-218750D01*
G01*
X49125000Y-103431250D01*
G75*
G02*
X48906250Y-103650000I-218750J0D01*
G01*
X48393750Y-103650000D01*
G75*
G02*
X48175000Y-103431250I0J218750D01*
G01*
X48175000Y-102993750D01*
G75*
G02*
X48393750Y-102775000I218750J0D01*
G01*
G37*
%TD*%
%TO.C,D58*%
G36*
G01*
X67393750Y-102775000D02*
X67906250Y-102775000D01*
G75*
G02*
X68125000Y-102993750I0J-218750D01*
G01*
X68125000Y-103431250D01*
G75*
G02*
X67906250Y-103650000I-218750J0D01*
G01*
X67393750Y-103650000D01*
G75*
G02*
X67175000Y-103431250I0J218750D01*
G01*
X67175000Y-102993750D01*
G75*
G02*
X67393750Y-102775000I218750J0D01*
G01*
G37*
G36*
G01*
X67393750Y-104350000D02*
X67906250Y-104350000D01*
G75*
G02*
X68125000Y-104568750I0J-218750D01*
G01*
X68125000Y-105006250D01*
G75*
G02*
X67906250Y-105225000I-218750J0D01*
G01*
X67393750Y-105225000D01*
G75*
G02*
X67175000Y-105006250I0J218750D01*
G01*
X67175000Y-104568750D01*
G75*
G02*
X67393750Y-104350000I218750J0D01*
G01*
G37*
%TD*%
%TO.C,D59*%
G36*
G01*
X86393750Y-104350000D02*
X86906250Y-104350000D01*
G75*
G02*
X87125000Y-104568750I0J-218750D01*
G01*
X87125000Y-105006250D01*
G75*
G02*
X86906250Y-105225000I-218750J0D01*
G01*
X86393750Y-105225000D01*
G75*
G02*
X86175000Y-105006250I0J218750D01*
G01*
X86175000Y-104568750D01*
G75*
G02*
X86393750Y-104350000I218750J0D01*
G01*
G37*
G36*
G01*
X86393750Y-102775000D02*
X86906250Y-102775000D01*
G75*
G02*
X87125000Y-102993750I0J-218750D01*
G01*
X87125000Y-103431250D01*
G75*
G02*
X86906250Y-103650000I-218750J0D01*
G01*
X86393750Y-103650000D01*
G75*
G02*
X86175000Y-103431250I0J218750D01*
G01*
X86175000Y-102993750D01*
G75*
G02*
X86393750Y-102775000I218750J0D01*
G01*
G37*
%TD*%
%TO.C,D60*%
G36*
G01*
X105393750Y-102775000D02*
X105906250Y-102775000D01*
G75*
G02*
X106125000Y-102993750I0J-218750D01*
G01*
X106125000Y-103431250D01*
G75*
G02*
X105906250Y-103650000I-218750J0D01*
G01*
X105393750Y-103650000D01*
G75*
G02*
X105175000Y-103431250I0J218750D01*
G01*
X105175000Y-102993750D01*
G75*
G02*
X105393750Y-102775000I218750J0D01*
G01*
G37*
G36*
G01*
X105393750Y-104350000D02*
X105906250Y-104350000D01*
G75*
G02*
X106125000Y-104568750I0J-218750D01*
G01*
X106125000Y-105006250D01*
G75*
G02*
X105906250Y-105225000I-218750J0D01*
G01*
X105393750Y-105225000D01*
G75*
G02*
X105175000Y-105006250I0J218750D01*
G01*
X105175000Y-104568750D01*
G75*
G02*
X105393750Y-104350000I218750J0D01*
G01*
G37*
%TD*%
%TO.C,D61*%
G36*
G01*
X124393750Y-104350000D02*
X124906250Y-104350000D01*
G75*
G02*
X125125000Y-104568750I0J-218750D01*
G01*
X125125000Y-105006250D01*
G75*
G02*
X124906250Y-105225000I-218750J0D01*
G01*
X124393750Y-105225000D01*
G75*
G02*
X124175000Y-105006250I0J218750D01*
G01*
X124175000Y-104568750D01*
G75*
G02*
X124393750Y-104350000I218750J0D01*
G01*
G37*
G36*
G01*
X124393750Y-102775000D02*
X124906250Y-102775000D01*
G75*
G02*
X125125000Y-102993750I0J-218750D01*
G01*
X125125000Y-103431250D01*
G75*
G02*
X124906250Y-103650000I-218750J0D01*
G01*
X124393750Y-103650000D01*
G75*
G02*
X124175000Y-103431250I0J218750D01*
G01*
X124175000Y-102993750D01*
G75*
G02*
X124393750Y-102775000I218750J0D01*
G01*
G37*
%TD*%
%TO.C,D62*%
G36*
G01*
X143393750Y-102775000D02*
X143906250Y-102775000D01*
G75*
G02*
X144125000Y-102993750I0J-218750D01*
G01*
X144125000Y-103431250D01*
G75*
G02*
X143906250Y-103650000I-218750J0D01*
G01*
X143393750Y-103650000D01*
G75*
G02*
X143175000Y-103431250I0J218750D01*
G01*
X143175000Y-102993750D01*
G75*
G02*
X143393750Y-102775000I218750J0D01*
G01*
G37*
G36*
G01*
X143393750Y-104350000D02*
X143906250Y-104350000D01*
G75*
G02*
X144125000Y-104568750I0J-218750D01*
G01*
X144125000Y-105006250D01*
G75*
G02*
X143906250Y-105225000I-218750J0D01*
G01*
X143393750Y-105225000D01*
G75*
G02*
X143175000Y-105006250I0J218750D01*
G01*
X143175000Y-104568750D01*
G75*
G02*
X143393750Y-104350000I218750J0D01*
G01*
G37*
%TD*%
%TO.C,D63*%
G36*
G01*
X223393750Y-104350000D02*
X223906250Y-104350000D01*
G75*
G02*
X224125000Y-104568750I0J-218750D01*
G01*
X224125000Y-105006250D01*
G75*
G02*
X223906250Y-105225000I-218750J0D01*
G01*
X223393750Y-105225000D01*
G75*
G02*
X223175000Y-105006250I0J218750D01*
G01*
X223175000Y-104568750D01*
G75*
G02*
X223393750Y-104350000I218750J0D01*
G01*
G37*
G36*
G01*
X223393750Y-102775000D02*
X223906250Y-102775000D01*
G75*
G02*
X224125000Y-102993750I0J-218750D01*
G01*
X224125000Y-103431250D01*
G75*
G02*
X223906250Y-103650000I-218750J0D01*
G01*
X223393750Y-103650000D01*
G75*
G02*
X223175000Y-103431250I0J218750D01*
G01*
X223175000Y-102993750D01*
G75*
G02*
X223393750Y-102775000I218750J0D01*
G01*
G37*
%TD*%
%TO.C,D64*%
G36*
G01*
X242393750Y-102775000D02*
X242906250Y-102775000D01*
G75*
G02*
X243125000Y-102993750I0J-218750D01*
G01*
X243125000Y-103431250D01*
G75*
G02*
X242906250Y-103650000I-218750J0D01*
G01*
X242393750Y-103650000D01*
G75*
G02*
X242175000Y-103431250I0J218750D01*
G01*
X242175000Y-102993750D01*
G75*
G02*
X242393750Y-102775000I218750J0D01*
G01*
G37*
G36*
G01*
X242393750Y-104350000D02*
X242906250Y-104350000D01*
G75*
G02*
X243125000Y-104568750I0J-218750D01*
G01*
X243125000Y-105006250D01*
G75*
G02*
X242906250Y-105225000I-218750J0D01*
G01*
X242393750Y-105225000D01*
G75*
G02*
X242175000Y-105006250I0J218750D01*
G01*
X242175000Y-104568750D01*
G75*
G02*
X242393750Y-104350000I218750J0D01*
G01*
G37*
%TD*%
%TO.C,D65*%
G36*
G01*
X261393750Y-104350000D02*
X261906250Y-104350000D01*
G75*
G02*
X262125000Y-104568750I0J-218750D01*
G01*
X262125000Y-105006250D01*
G75*
G02*
X261906250Y-105225000I-218750J0D01*
G01*
X261393750Y-105225000D01*
G75*
G02*
X261175000Y-105006250I0J218750D01*
G01*
X261175000Y-104568750D01*
G75*
G02*
X261393750Y-104350000I218750J0D01*
G01*
G37*
G36*
G01*
X261393750Y-102775000D02*
X261906250Y-102775000D01*
G75*
G02*
X262125000Y-102993750I0J-218750D01*
G01*
X262125000Y-103431250D01*
G75*
G02*
X261906250Y-103650000I-218750J0D01*
G01*
X261393750Y-103650000D01*
G75*
G02*
X261175000Y-103431250I0J218750D01*
G01*
X261175000Y-102993750D01*
G75*
G02*
X261393750Y-102775000I218750J0D01*
G01*
G37*
%TD*%
%TO.C,D66*%
G36*
G01*
X280393750Y-102775000D02*
X280906250Y-102775000D01*
G75*
G02*
X281125000Y-102993750I0J-218750D01*
G01*
X281125000Y-103431250D01*
G75*
G02*
X280906250Y-103650000I-218750J0D01*
G01*
X280393750Y-103650000D01*
G75*
G02*
X280175000Y-103431250I0J218750D01*
G01*
X280175000Y-102993750D01*
G75*
G02*
X280393750Y-102775000I218750J0D01*
G01*
G37*
G36*
G01*
X280393750Y-104350000D02*
X280906250Y-104350000D01*
G75*
G02*
X281125000Y-104568750I0J-218750D01*
G01*
X281125000Y-105006250D01*
G75*
G02*
X280906250Y-105225000I-218750J0D01*
G01*
X280393750Y-105225000D01*
G75*
G02*
X280175000Y-105006250I0J218750D01*
G01*
X280175000Y-104568750D01*
G75*
G02*
X280393750Y-104350000I218750J0D01*
G01*
G37*
%TD*%
%TO.C,D67*%
G36*
G01*
X299393750Y-104350000D02*
X299906250Y-104350000D01*
G75*
G02*
X300125000Y-104568750I0J-218750D01*
G01*
X300125000Y-105006250D01*
G75*
G02*
X299906250Y-105225000I-218750J0D01*
G01*
X299393750Y-105225000D01*
G75*
G02*
X299175000Y-105006250I0J218750D01*
G01*
X299175000Y-104568750D01*
G75*
G02*
X299393750Y-104350000I218750J0D01*
G01*
G37*
G36*
G01*
X299393750Y-102775000D02*
X299906250Y-102775000D01*
G75*
G02*
X300125000Y-102993750I0J-218750D01*
G01*
X300125000Y-103431250D01*
G75*
G02*
X299906250Y-103650000I-218750J0D01*
G01*
X299393750Y-103650000D01*
G75*
G02*
X299175000Y-103431250I0J218750D01*
G01*
X299175000Y-102993750D01*
G75*
G02*
X299393750Y-102775000I218750J0D01*
G01*
G37*
%TD*%
%TO.C,D68*%
G36*
G01*
X318393750Y-104350000D02*
X318906250Y-104350000D01*
G75*
G02*
X319125000Y-104568750I0J-218750D01*
G01*
X319125000Y-105006250D01*
G75*
G02*
X318906250Y-105225000I-218750J0D01*
G01*
X318393750Y-105225000D01*
G75*
G02*
X318175000Y-105006250I0J218750D01*
G01*
X318175000Y-104568750D01*
G75*
G02*
X318393750Y-104350000I218750J0D01*
G01*
G37*
G36*
G01*
X318393750Y-102775000D02*
X318906250Y-102775000D01*
G75*
G02*
X319125000Y-102993750I0J-218750D01*
G01*
X319125000Y-103431250D01*
G75*
G02*
X318906250Y-103650000I-218750J0D01*
G01*
X318393750Y-103650000D01*
G75*
G02*
X318175000Y-103431250I0J218750D01*
G01*
X318175000Y-102993750D01*
G75*
G02*
X318393750Y-102775000I218750J0D01*
G01*
G37*
%TD*%
%TO.C,D69*%
G36*
G01*
X337393750Y-104350000D02*
X337906250Y-104350000D01*
G75*
G02*
X338125000Y-104568750I0J-218750D01*
G01*
X338125000Y-105006250D01*
G75*
G02*
X337906250Y-105225000I-218750J0D01*
G01*
X337393750Y-105225000D01*
G75*
G02*
X337175000Y-105006250I0J218750D01*
G01*
X337175000Y-104568750D01*
G75*
G02*
X337393750Y-104350000I218750J0D01*
G01*
G37*
G36*
G01*
X337393750Y-102775000D02*
X337906250Y-102775000D01*
G75*
G02*
X338125000Y-102993750I0J-218750D01*
G01*
X338125000Y-103431250D01*
G75*
G02*
X337906250Y-103650000I-218750J0D01*
G01*
X337393750Y-103650000D01*
G75*
G02*
X337175000Y-103431250I0J218750D01*
G01*
X337175000Y-102993750D01*
G75*
G02*
X337393750Y-102775000I218750J0D01*
G01*
G37*
%TD*%
%TO.C,D70*%
G36*
G01*
X29393750Y-121775000D02*
X29906250Y-121775000D01*
G75*
G02*
X30125000Y-121993750I0J-218750D01*
G01*
X30125000Y-122431250D01*
G75*
G02*
X29906250Y-122650000I-218750J0D01*
G01*
X29393750Y-122650000D01*
G75*
G02*
X29175000Y-122431250I0J218750D01*
G01*
X29175000Y-121993750D01*
G75*
G02*
X29393750Y-121775000I218750J0D01*
G01*
G37*
G36*
G01*
X29393750Y-123350000D02*
X29906250Y-123350000D01*
G75*
G02*
X30125000Y-123568750I0J-218750D01*
G01*
X30125000Y-124006250D01*
G75*
G02*
X29906250Y-124225000I-218750J0D01*
G01*
X29393750Y-124225000D01*
G75*
G02*
X29175000Y-124006250I0J218750D01*
G01*
X29175000Y-123568750D01*
G75*
G02*
X29393750Y-123350000I218750J0D01*
G01*
G37*
%TD*%
%TO.C,D71*%
G36*
G01*
X48393750Y-123350000D02*
X48906250Y-123350000D01*
G75*
G02*
X49125000Y-123568750I0J-218750D01*
G01*
X49125000Y-124006250D01*
G75*
G02*
X48906250Y-124225000I-218750J0D01*
G01*
X48393750Y-124225000D01*
G75*
G02*
X48175000Y-124006250I0J218750D01*
G01*
X48175000Y-123568750D01*
G75*
G02*
X48393750Y-123350000I218750J0D01*
G01*
G37*
G36*
G01*
X48393750Y-121775000D02*
X48906250Y-121775000D01*
G75*
G02*
X49125000Y-121993750I0J-218750D01*
G01*
X49125000Y-122431250D01*
G75*
G02*
X48906250Y-122650000I-218750J0D01*
G01*
X48393750Y-122650000D01*
G75*
G02*
X48175000Y-122431250I0J218750D01*
G01*
X48175000Y-121993750D01*
G75*
G02*
X48393750Y-121775000I218750J0D01*
G01*
G37*
%TD*%
%TO.C,D72*%
G36*
G01*
X67393750Y-121775000D02*
X67906250Y-121775000D01*
G75*
G02*
X68125000Y-121993750I0J-218750D01*
G01*
X68125000Y-122431250D01*
G75*
G02*
X67906250Y-122650000I-218750J0D01*
G01*
X67393750Y-122650000D01*
G75*
G02*
X67175000Y-122431250I0J218750D01*
G01*
X67175000Y-121993750D01*
G75*
G02*
X67393750Y-121775000I218750J0D01*
G01*
G37*
G36*
G01*
X67393750Y-123350000D02*
X67906250Y-123350000D01*
G75*
G02*
X68125000Y-123568750I0J-218750D01*
G01*
X68125000Y-124006250D01*
G75*
G02*
X67906250Y-124225000I-218750J0D01*
G01*
X67393750Y-124225000D01*
G75*
G02*
X67175000Y-124006250I0J218750D01*
G01*
X67175000Y-123568750D01*
G75*
G02*
X67393750Y-123350000I218750J0D01*
G01*
G37*
%TD*%
%TO.C,D73*%
G36*
G01*
X86393750Y-123350000D02*
X86906250Y-123350000D01*
G75*
G02*
X87125000Y-123568750I0J-218750D01*
G01*
X87125000Y-124006250D01*
G75*
G02*
X86906250Y-124225000I-218750J0D01*
G01*
X86393750Y-124225000D01*
G75*
G02*
X86175000Y-124006250I0J218750D01*
G01*
X86175000Y-123568750D01*
G75*
G02*
X86393750Y-123350000I218750J0D01*
G01*
G37*
G36*
G01*
X86393750Y-121775000D02*
X86906250Y-121775000D01*
G75*
G02*
X87125000Y-121993750I0J-218750D01*
G01*
X87125000Y-122431250D01*
G75*
G02*
X86906250Y-122650000I-218750J0D01*
G01*
X86393750Y-122650000D01*
G75*
G02*
X86175000Y-122431250I0J218750D01*
G01*
X86175000Y-121993750D01*
G75*
G02*
X86393750Y-121775000I218750J0D01*
G01*
G37*
%TD*%
%TO.C,D74*%
G36*
G01*
X114893750Y-121775000D02*
X115406250Y-121775000D01*
G75*
G02*
X115625000Y-121993750I0J-218750D01*
G01*
X115625000Y-122431250D01*
G75*
G02*
X115406250Y-122650000I-218750J0D01*
G01*
X114893750Y-122650000D01*
G75*
G02*
X114675000Y-122431250I0J218750D01*
G01*
X114675000Y-121993750D01*
G75*
G02*
X114893750Y-121775000I218750J0D01*
G01*
G37*
G36*
G01*
X114893750Y-123350000D02*
X115406250Y-123350000D01*
G75*
G02*
X115625000Y-123568750I0J-218750D01*
G01*
X115625000Y-124006250D01*
G75*
G02*
X115406250Y-124225000I-218750J0D01*
G01*
X114893750Y-124225000D01*
G75*
G02*
X114675000Y-124006250I0J218750D01*
G01*
X114675000Y-123568750D01*
G75*
G02*
X114893750Y-123350000I218750J0D01*
G01*
G37*
%TD*%
%TO.C,D75*%
G36*
G01*
X242393750Y-123350000D02*
X242906250Y-123350000D01*
G75*
G02*
X243125000Y-123568750I0J-218750D01*
G01*
X243125000Y-124006250D01*
G75*
G02*
X242906250Y-124225000I-218750J0D01*
G01*
X242393750Y-124225000D01*
G75*
G02*
X242175000Y-124006250I0J218750D01*
G01*
X242175000Y-123568750D01*
G75*
G02*
X242393750Y-123350000I218750J0D01*
G01*
G37*
G36*
G01*
X242393750Y-121775000D02*
X242906250Y-121775000D01*
G75*
G02*
X243125000Y-121993750I0J-218750D01*
G01*
X243125000Y-122431250D01*
G75*
G02*
X242906250Y-122650000I-218750J0D01*
G01*
X242393750Y-122650000D01*
G75*
G02*
X242175000Y-122431250I0J218750D01*
G01*
X242175000Y-121993750D01*
G75*
G02*
X242393750Y-121775000I218750J0D01*
G01*
G37*
%TD*%
%TO.C,D76*%
G36*
G01*
X261393750Y-121775000D02*
X261906250Y-121775000D01*
G75*
G02*
X262125000Y-121993750I0J-218750D01*
G01*
X262125000Y-122431250D01*
G75*
G02*
X261906250Y-122650000I-218750J0D01*
G01*
X261393750Y-122650000D01*
G75*
G02*
X261175000Y-122431250I0J218750D01*
G01*
X261175000Y-121993750D01*
G75*
G02*
X261393750Y-121775000I218750J0D01*
G01*
G37*
G36*
G01*
X261393750Y-123350000D02*
X261906250Y-123350000D01*
G75*
G02*
X262125000Y-123568750I0J-218750D01*
G01*
X262125000Y-124006250D01*
G75*
G02*
X261906250Y-124225000I-218750J0D01*
G01*
X261393750Y-124225000D01*
G75*
G02*
X261175000Y-124006250I0J218750D01*
G01*
X261175000Y-123568750D01*
G75*
G02*
X261393750Y-123350000I218750J0D01*
G01*
G37*
%TD*%
%TO.C,D77*%
G36*
G01*
X280393750Y-123350000D02*
X280906250Y-123350000D01*
G75*
G02*
X281125000Y-123568750I0J-218750D01*
G01*
X281125000Y-124006250D01*
G75*
G02*
X280906250Y-124225000I-218750J0D01*
G01*
X280393750Y-124225000D01*
G75*
G02*
X280175000Y-124006250I0J218750D01*
G01*
X280175000Y-123568750D01*
G75*
G02*
X280393750Y-123350000I218750J0D01*
G01*
G37*
G36*
G01*
X280393750Y-121775000D02*
X280906250Y-121775000D01*
G75*
G02*
X281125000Y-121993750I0J-218750D01*
G01*
X281125000Y-122431250D01*
G75*
G02*
X280906250Y-122650000I-218750J0D01*
G01*
X280393750Y-122650000D01*
G75*
G02*
X280175000Y-122431250I0J218750D01*
G01*
X280175000Y-121993750D01*
G75*
G02*
X280393750Y-121775000I218750J0D01*
G01*
G37*
%TD*%
%TO.C,D78*%
G36*
G01*
X299393750Y-121775000D02*
X299906250Y-121775000D01*
G75*
G02*
X300125000Y-121993750I0J-218750D01*
G01*
X300125000Y-122431250D01*
G75*
G02*
X299906250Y-122650000I-218750J0D01*
G01*
X299393750Y-122650000D01*
G75*
G02*
X299175000Y-122431250I0J218750D01*
G01*
X299175000Y-121993750D01*
G75*
G02*
X299393750Y-121775000I218750J0D01*
G01*
G37*
G36*
G01*
X299393750Y-123350000D02*
X299906250Y-123350000D01*
G75*
G02*
X300125000Y-123568750I0J-218750D01*
G01*
X300125000Y-124006250D01*
G75*
G02*
X299906250Y-124225000I-218750J0D01*
G01*
X299393750Y-124225000D01*
G75*
G02*
X299175000Y-124006250I0J218750D01*
G01*
X299175000Y-123568750D01*
G75*
G02*
X299393750Y-123350000I218750J0D01*
G01*
G37*
%TD*%
%TO.C,D79*%
G36*
G01*
X318393750Y-123350000D02*
X318906250Y-123350000D01*
G75*
G02*
X319125000Y-123568750I0J-218750D01*
G01*
X319125000Y-124006250D01*
G75*
G02*
X318906250Y-124225000I-218750J0D01*
G01*
X318393750Y-124225000D01*
G75*
G02*
X318175000Y-124006250I0J218750D01*
G01*
X318175000Y-123568750D01*
G75*
G02*
X318393750Y-123350000I218750J0D01*
G01*
G37*
G36*
G01*
X318393750Y-121775000D02*
X318906250Y-121775000D01*
G75*
G02*
X319125000Y-121993750I0J-218750D01*
G01*
X319125000Y-122431250D01*
G75*
G02*
X318906250Y-122650000I-218750J0D01*
G01*
X318393750Y-122650000D01*
G75*
G02*
X318175000Y-122431250I0J218750D01*
G01*
X318175000Y-121993750D01*
G75*
G02*
X318393750Y-121775000I218750J0D01*
G01*
G37*
%TD*%
%TO.C,D80*%
G36*
G01*
X337393750Y-121775000D02*
X337906250Y-121775000D01*
G75*
G02*
X338125000Y-121993750I0J-218750D01*
G01*
X338125000Y-122431250D01*
G75*
G02*
X337906250Y-122650000I-218750J0D01*
G01*
X337393750Y-122650000D01*
G75*
G02*
X337175000Y-122431250I0J218750D01*
G01*
X337175000Y-121993750D01*
G75*
G02*
X337393750Y-121775000I218750J0D01*
G01*
G37*
G36*
G01*
X337393750Y-123350000D02*
X337906250Y-123350000D01*
G75*
G02*
X338125000Y-123568750I0J-218750D01*
G01*
X338125000Y-124006250D01*
G75*
G02*
X337906250Y-124225000I-218750J0D01*
G01*
X337393750Y-124225000D01*
G75*
G02*
X337175000Y-124006250I0J218750D01*
G01*
X337175000Y-123568750D01*
G75*
G02*
X337393750Y-123350000I218750J0D01*
G01*
G37*
%TD*%
D19*
%TO.C,SW1*%
X38540000Y-34080000D03*
X28380000Y-34080000D03*
D20*
X33460000Y-34080000D03*
D21*
X29650000Y-31540000D03*
X36000000Y-29000000D03*
%TD*%
D19*
%TO.C,SW2*%
X57540000Y-34080000D03*
X47380000Y-34080000D03*
D20*
X52460000Y-34080000D03*
D21*
X48650000Y-31540000D03*
X55000000Y-29000000D03*
%TD*%
%TO.C,SW3*%
X74000000Y-29000000D03*
X67650000Y-31540000D03*
D20*
X71460000Y-34080000D03*
D19*
X66380000Y-34080000D03*
X76540000Y-34080000D03*
%TD*%
%TO.C,SW4*%
X95540000Y-34080000D03*
X85380000Y-34080000D03*
D20*
X90460000Y-34080000D03*
D21*
X86650000Y-31540000D03*
X93000000Y-29000000D03*
%TD*%
%TO.C,SW5*%
X112000000Y-29000000D03*
X105650000Y-31540000D03*
D20*
X109460000Y-34080000D03*
D19*
X104380000Y-34080000D03*
X114540000Y-34080000D03*
%TD*%
D21*
%TO.C,SW6*%
X131000000Y-29000000D03*
X124650000Y-31540000D03*
D20*
X128460000Y-34080000D03*
D19*
X123380000Y-34080000D03*
X133540000Y-34080000D03*
%TD*%
D21*
%TO.C,SW7*%
X150000000Y-29000000D03*
X143650000Y-31540000D03*
D20*
X147460000Y-34080000D03*
D19*
X142380000Y-34080000D03*
X152540000Y-34080000D03*
%TD*%
D21*
%TO.C,SW8*%
X230000000Y-29000000D03*
X223650000Y-31540000D03*
D20*
X227460000Y-34080000D03*
D19*
X222380000Y-34080000D03*
X232540000Y-34080000D03*
%TD*%
%TO.C,SW9*%
X251540000Y-34080000D03*
X241380000Y-34080000D03*
D20*
X246460000Y-34080000D03*
D21*
X242650000Y-31540000D03*
X249000000Y-29000000D03*
%TD*%
D19*
%TO.C,SW10*%
X270540000Y-34080000D03*
X260380000Y-34080000D03*
D20*
X265460000Y-34080000D03*
D21*
X261650000Y-31540000D03*
X268000000Y-29000000D03*
%TD*%
D19*
%TO.C,SW11*%
X289540000Y-34080000D03*
X279380000Y-34080000D03*
D20*
X284460000Y-34080000D03*
D21*
X280650000Y-31540000D03*
X287000000Y-29000000D03*
%TD*%
%TO.C,SW12*%
X306000000Y-29000000D03*
X299650000Y-31540000D03*
D20*
X303460000Y-34080000D03*
D19*
X298380000Y-34080000D03*
X308540000Y-34080000D03*
%TD*%
D21*
%TO.C,SW13*%
X325000000Y-29000000D03*
X318650000Y-31540000D03*
D20*
X322460000Y-34080000D03*
D19*
X317380000Y-34080000D03*
X327540000Y-34080000D03*
%TD*%
D21*
%TO.C,SW14*%
X344000000Y-29000000D03*
X337650000Y-31540000D03*
D20*
X341460000Y-34080000D03*
D19*
X336380000Y-34080000D03*
X346540000Y-34080000D03*
%TD*%
%TO.C,SW15*%
X38540000Y-53080000D03*
X28380000Y-53080000D03*
D20*
X33460000Y-53080000D03*
D21*
X29650000Y-50540000D03*
X36000000Y-48000000D03*
%TD*%
%TO.C,SW16*%
X55000000Y-48000000D03*
X48650000Y-50540000D03*
D20*
X52460000Y-53080000D03*
D19*
X47380000Y-53080000D03*
X57540000Y-53080000D03*
%TD*%
%TO.C,SW17*%
X76540000Y-53080000D03*
X66380000Y-53080000D03*
D20*
X71460000Y-53080000D03*
D21*
X67650000Y-50540000D03*
X74000000Y-48000000D03*
%TD*%
D19*
%TO.C,SW18*%
X95540000Y-53080000D03*
X85380000Y-53080000D03*
D20*
X90460000Y-53080000D03*
D21*
X86650000Y-50540000D03*
X93000000Y-48000000D03*
%TD*%
%TO.C,SW19*%
X112000000Y-48000000D03*
X105650000Y-50540000D03*
D20*
X109460000Y-53080000D03*
D19*
X104380000Y-53080000D03*
X114540000Y-53080000D03*
%TD*%
D21*
%TO.C,SW20*%
X131000000Y-48000000D03*
X124650000Y-50540000D03*
D20*
X128460000Y-53080000D03*
D19*
X123380000Y-53080000D03*
X133540000Y-53080000D03*
%TD*%
%TO.C,SW21*%
X152540000Y-53080000D03*
X142380000Y-53080000D03*
D20*
X147460000Y-53080000D03*
D21*
X143650000Y-50540000D03*
X150000000Y-48000000D03*
%TD*%
%TO.C,SW22*%
X230000000Y-48000000D03*
X223650000Y-50540000D03*
D20*
X227460000Y-53080000D03*
D19*
X222380000Y-53080000D03*
X232540000Y-53080000D03*
%TD*%
%TO.C,SW23*%
X251540000Y-53080000D03*
X241380000Y-53080000D03*
D20*
X246460000Y-53080000D03*
D21*
X242650000Y-50540000D03*
X249000000Y-48000000D03*
%TD*%
%TO.C,SW24*%
X268000000Y-48000000D03*
X261650000Y-50540000D03*
D20*
X265460000Y-53080000D03*
D19*
X260380000Y-53080000D03*
X270540000Y-53080000D03*
%TD*%
%TO.C,SW25*%
X289540000Y-53080000D03*
X279380000Y-53080000D03*
D20*
X284460000Y-53080000D03*
D21*
X280650000Y-50540000D03*
X287000000Y-48000000D03*
%TD*%
%TO.C,SW26*%
X306000000Y-48000000D03*
X299650000Y-50540000D03*
D20*
X303460000Y-53080000D03*
D19*
X298380000Y-53080000D03*
X308540000Y-53080000D03*
%TD*%
%TO.C,SW27*%
X327540000Y-53080000D03*
X317380000Y-53080000D03*
D20*
X322460000Y-53080000D03*
D21*
X318650000Y-50540000D03*
X325000000Y-48000000D03*
%TD*%
%TO.C,SW28*%
X344000000Y-48000000D03*
X337650000Y-50540000D03*
D20*
X341460000Y-53080000D03*
D19*
X336380000Y-53080000D03*
X346540000Y-53080000D03*
%TD*%
D21*
%TO.C,SW29*%
X36000000Y-67000000D03*
X29650000Y-69540000D03*
D20*
X33460000Y-72080000D03*
D19*
X28380000Y-72080000D03*
X38540000Y-72080000D03*
%TD*%
%TO.C,SW30*%
X57540000Y-72080000D03*
X47380000Y-72080000D03*
D20*
X52460000Y-72080000D03*
D21*
X48650000Y-69540000D03*
X55000000Y-67000000D03*
%TD*%
%TO.C,SW31*%
X74000000Y-67000000D03*
X67650000Y-69540000D03*
D20*
X71460000Y-72080000D03*
D19*
X66380000Y-72080000D03*
X76540000Y-72080000D03*
%TD*%
D21*
%TO.C,SW32*%
X93000000Y-67000000D03*
X86650000Y-69540000D03*
D20*
X90460000Y-72080000D03*
D19*
X85380000Y-72080000D03*
X95540000Y-72080000D03*
%TD*%
%TO.C,SW33*%
X114540000Y-72080000D03*
X104380000Y-72080000D03*
D20*
X109460000Y-72080000D03*
D21*
X105650000Y-69540000D03*
X112000000Y-67000000D03*
%TD*%
D19*
%TO.C,SW34*%
X133540000Y-72080000D03*
X123380000Y-72080000D03*
D20*
X128460000Y-72080000D03*
D21*
X124650000Y-69540000D03*
X131000000Y-67000000D03*
%TD*%
%TO.C,SW35*%
X150000000Y-67000000D03*
X143650000Y-69540000D03*
D20*
X147460000Y-72080000D03*
D19*
X142380000Y-72080000D03*
X152540000Y-72080000D03*
%TD*%
%TO.C,SW36*%
X232540000Y-72080000D03*
X222380000Y-72080000D03*
D20*
X227460000Y-72080000D03*
D21*
X223650000Y-69540000D03*
X230000000Y-67000000D03*
%TD*%
%TO.C,SW37*%
X249000000Y-67000000D03*
X242650000Y-69540000D03*
D20*
X246460000Y-72080000D03*
D19*
X241380000Y-72080000D03*
X251540000Y-72080000D03*
%TD*%
%TO.C,SW38*%
X270540000Y-72080000D03*
X260380000Y-72080000D03*
D20*
X265460000Y-72080000D03*
D21*
X261650000Y-69540000D03*
X268000000Y-67000000D03*
%TD*%
%TO.C,SW39*%
X287000000Y-67000000D03*
X280650000Y-69540000D03*
D20*
X284460000Y-72080000D03*
D19*
X279380000Y-72080000D03*
X289540000Y-72080000D03*
%TD*%
D21*
%TO.C,SW40*%
X306000000Y-67000000D03*
X299650000Y-69540000D03*
D20*
X303460000Y-72080000D03*
D19*
X298380000Y-72080000D03*
X308540000Y-72080000D03*
%TD*%
%TO.C,SW41*%
X327540000Y-72080000D03*
X317380000Y-72080000D03*
D20*
X322460000Y-72080000D03*
D21*
X318650000Y-69540000D03*
X325000000Y-67000000D03*
%TD*%
D19*
%TO.C,SW42*%
X346540000Y-72080000D03*
X336380000Y-72080000D03*
D20*
X341460000Y-72080000D03*
D21*
X337650000Y-69540000D03*
X344000000Y-67000000D03*
%TD*%
%TO.C,SW43*%
X36000000Y-86000000D03*
X29650000Y-88540000D03*
D20*
X33460000Y-91080000D03*
D19*
X28380000Y-91080000D03*
X38540000Y-91080000D03*
%TD*%
D21*
%TO.C,SW44*%
X55000000Y-86000000D03*
X48650000Y-88540000D03*
D20*
X52460000Y-91080000D03*
D19*
X47380000Y-91080000D03*
X57540000Y-91080000D03*
%TD*%
%TO.C,SW45*%
X76540000Y-91080000D03*
X66380000Y-91080000D03*
D20*
X71460000Y-91080000D03*
D21*
X67650000Y-88540000D03*
X74000000Y-86000000D03*
%TD*%
D19*
%TO.C,SW46*%
X95540000Y-91080000D03*
X85380000Y-91080000D03*
D20*
X90460000Y-91080000D03*
D21*
X86650000Y-88540000D03*
X93000000Y-86000000D03*
%TD*%
D19*
%TO.C,SW47*%
X114540000Y-91080000D03*
X104380000Y-91080000D03*
D20*
X109460000Y-91080000D03*
D21*
X105650000Y-88540000D03*
X112000000Y-86000000D03*
%TD*%
%TO.C,SW48*%
X131000000Y-86000000D03*
X124650000Y-88540000D03*
D20*
X128460000Y-91080000D03*
D19*
X123380000Y-91080000D03*
X133540000Y-91080000D03*
%TD*%
D21*
%TO.C,SW49*%
X150000000Y-86000000D03*
X143650000Y-88540000D03*
D20*
X147460000Y-91080000D03*
D19*
X142380000Y-91080000D03*
X152540000Y-91080000D03*
%TD*%
%TO.C,SW50*%
X232540000Y-91080000D03*
X222380000Y-91080000D03*
D20*
X227460000Y-91080000D03*
D21*
X223650000Y-88540000D03*
X230000000Y-86000000D03*
%TD*%
%TO.C,SW51*%
X249000000Y-86000000D03*
X242650000Y-88540000D03*
D20*
X246460000Y-91080000D03*
D19*
X241380000Y-91080000D03*
X251540000Y-91080000D03*
%TD*%
D21*
%TO.C,SW52*%
X268000000Y-86000000D03*
X261650000Y-88540000D03*
D20*
X265460000Y-91080000D03*
D19*
X260380000Y-91080000D03*
X270540000Y-91080000D03*
%TD*%
D21*
%TO.C,SW53*%
X287000000Y-86000000D03*
X280650000Y-88540000D03*
D20*
X284460000Y-91080000D03*
D19*
X279380000Y-91080000D03*
X289540000Y-91080000D03*
%TD*%
D21*
%TO.C,SW54*%
X306000000Y-86000000D03*
X299650000Y-88540000D03*
D20*
X303460000Y-91080000D03*
D19*
X298380000Y-91080000D03*
X308540000Y-91080000D03*
%TD*%
D22*
%TO.C,SW55*%
X343860000Y-84080000D03*
X320060000Y-84080000D03*
D20*
X320060000Y-99320000D03*
X343860000Y-99320000D03*
D19*
X337040000Y-91080000D03*
X326880000Y-91080000D03*
D20*
X331960000Y-91080000D03*
D21*
X328150000Y-88540000D03*
X334500000Y-86000000D03*
%TD*%
D19*
%TO.C,SW56*%
X38540000Y-110080000D03*
X28380000Y-110080000D03*
D20*
X33460000Y-110080000D03*
D21*
X29650000Y-107540000D03*
X36000000Y-105000000D03*
%TD*%
D19*
%TO.C,SW57*%
X57540000Y-110080000D03*
X47380000Y-110080000D03*
D20*
X52460000Y-110080000D03*
D21*
X48650000Y-107540000D03*
X55000000Y-105000000D03*
%TD*%
%TO.C,SW58*%
X74000000Y-105000000D03*
X67650000Y-107540000D03*
D20*
X71460000Y-110080000D03*
D19*
X66380000Y-110080000D03*
X76540000Y-110080000D03*
%TD*%
D21*
%TO.C,SW59*%
X93000000Y-105000000D03*
X86650000Y-107540000D03*
D20*
X90460000Y-110080000D03*
D19*
X85380000Y-110080000D03*
X95540000Y-110080000D03*
%TD*%
D21*
%TO.C,SW60*%
X112000000Y-105000000D03*
X105650000Y-107540000D03*
D20*
X109460000Y-110080000D03*
D19*
X104380000Y-110080000D03*
X114540000Y-110080000D03*
%TD*%
D21*
%TO.C,SW61*%
X131000000Y-105000000D03*
X124650000Y-107540000D03*
D20*
X128460000Y-110080000D03*
D19*
X123380000Y-110080000D03*
X133540000Y-110080000D03*
%TD*%
%TO.C,SW62*%
X152540000Y-110080000D03*
X142380000Y-110080000D03*
D20*
X147460000Y-110080000D03*
D21*
X143650000Y-107540000D03*
X150000000Y-105000000D03*
%TD*%
D19*
%TO.C,SW63*%
X232540000Y-110080000D03*
X222380000Y-110080000D03*
D20*
X227460000Y-110080000D03*
D21*
X223650000Y-107540000D03*
X230000000Y-105000000D03*
%TD*%
D19*
%TO.C,SW64*%
X251540000Y-110080000D03*
X241380000Y-110080000D03*
D20*
X246460000Y-110080000D03*
D21*
X242650000Y-107540000D03*
X249000000Y-105000000D03*
%TD*%
D19*
%TO.C,SW65*%
X270540000Y-110080000D03*
X260380000Y-110080000D03*
D20*
X265460000Y-110080000D03*
D21*
X261650000Y-107540000D03*
X268000000Y-105000000D03*
%TD*%
%TO.C,SW66*%
X287000000Y-105000000D03*
X280650000Y-107540000D03*
D20*
X284460000Y-110080000D03*
D19*
X279380000Y-110080000D03*
X289540000Y-110080000D03*
%TD*%
D21*
%TO.C,SW67*%
X306000000Y-105000000D03*
X299650000Y-107540000D03*
D20*
X303460000Y-110080000D03*
D19*
X298380000Y-110080000D03*
X308540000Y-110080000D03*
%TD*%
%TO.C,SW68*%
X327540000Y-110080000D03*
X317380000Y-110080000D03*
D20*
X322460000Y-110080000D03*
D21*
X318650000Y-107540000D03*
X325000000Y-105000000D03*
%TD*%
%TO.C,SW69*%
X344000000Y-105000000D03*
X337650000Y-107540000D03*
D20*
X341460000Y-110080000D03*
D19*
X336380000Y-110080000D03*
X346540000Y-110080000D03*
%TD*%
%TO.C,SW70*%
X38540000Y-129080000D03*
X28380000Y-129080000D03*
D20*
X33460000Y-129080000D03*
D21*
X29650000Y-126540000D03*
X36000000Y-124000000D03*
%TD*%
D19*
%TO.C,SW71*%
X57540000Y-129080000D03*
X47380000Y-129080000D03*
D20*
X52460000Y-129080000D03*
D21*
X48650000Y-126540000D03*
X55000000Y-124000000D03*
%TD*%
D19*
%TO.C,SW72*%
X76540000Y-129080000D03*
X66380000Y-129080000D03*
D20*
X71460000Y-129080000D03*
D21*
X67650000Y-126540000D03*
X74000000Y-124000000D03*
%TD*%
D19*
%TO.C,SW73*%
X95540000Y-129080000D03*
X85380000Y-129080000D03*
D20*
X90460000Y-129080000D03*
D21*
X86650000Y-126540000D03*
X93000000Y-124000000D03*
%TD*%
%TO.C,SW74*%
X121500000Y-124000000D03*
X115150000Y-126540000D03*
D20*
X118960000Y-129080000D03*
D19*
X113880000Y-129080000D03*
X124040000Y-129080000D03*
D20*
X130860000Y-137320000D03*
X107060000Y-137320000D03*
D22*
X107060000Y-122080000D03*
X130860000Y-122080000D03*
%TD*%
D19*
%TO.C,SW75*%
X251540000Y-129080000D03*
X241380000Y-129080000D03*
D20*
X246460000Y-129080000D03*
D21*
X242650000Y-126540000D03*
X249000000Y-124000000D03*
%TD*%
%TO.C,SW76*%
X268000000Y-124000000D03*
X261650000Y-126540000D03*
D20*
X265460000Y-129080000D03*
D19*
X260380000Y-129080000D03*
X270540000Y-129080000D03*
%TD*%
D21*
%TO.C,SW77*%
X287000000Y-124000000D03*
X280650000Y-126540000D03*
D20*
X284460000Y-129080000D03*
D19*
X279380000Y-129080000D03*
X289540000Y-129080000D03*
%TD*%
D21*
%TO.C,SW78*%
X306000000Y-124000000D03*
X299650000Y-126540000D03*
D20*
X303460000Y-129080000D03*
D19*
X298380000Y-129080000D03*
X308540000Y-129080000D03*
%TD*%
D21*
%TO.C,SW79*%
X325000000Y-124000000D03*
X318650000Y-126540000D03*
D20*
X322460000Y-129080000D03*
D19*
X317380000Y-129080000D03*
X327540000Y-129080000D03*
%TD*%
%TO.C,SW80*%
X346540000Y-129080000D03*
X336380000Y-129080000D03*
D20*
X341460000Y-129080000D03*
D21*
X337650000Y-126540000D03*
X344000000Y-124000000D03*
%TD*%
M02*
